<svg width="56" height="56" fill="none" xmlns="http://www.w3.org/2000/svg"><g clip-path="url(#clip0_852_5022)" stroke="#1397DE" stroke-width="2" stroke-miterlimit="10" stroke-linecap="round" stroke-linejoin="round"><path d="M30.225 15.954a14.48 14.48 0 00-5.616-1.126c-8.023 0-14.527 6.504-14.527 14.527 0 8.024 6.504 14.527 14.527 14.527 2.811 0 5.435-.799 7.658-2.181m2.971-2.444a14.526 14.526 0 003.082-5.09M24.61 9.361V6.237m0 46.237V49.35M4.615 29.355H1.491M14.613 12.04L13.05 9.334m23.12 40.043l-1.563-2.706M7.294 39.352L4.59 40.916m2.704-21.558L4.59 17.796M14.613 46.67l-1.562 2.706"/><path d="M29.618 27.777h-4.291a.186.186 0 01-.184-.216l1.356-8.476c.033-.205-.242-.302-.345-.122l-6.715 11.691a.186.186 0 00.162.28h4.291c.115 0 .202.102.184.216l-1.357 8.476c-.032.205.243.302.346.122l6.715-11.691a.186.186 0 00-.162-.28zm15.227 20.239V37.592H39.89v17.04c0 .303.245.548.547.548h3.86a.547.547 0 00.547-.547v-2.79M37.022 5.578V2.92a2.1 2.1 0 10-4.199 0v8.98h4.199V9.406m14.89 2.494V2.92a2.1 2.1 0 00-4.2 0v8.98h4.2zm-20.812 0a.875.875 0 00-.874.876v7.747c0 5.053 3.129 9.409 7.544 11.23a.88.88 0 01.55.812v4.152c0 .483.392.875.875.875h6.345a.875.875 0 00.875-.875v-4.152a.88.88 0 01.55-.812c4.415-1.821 7.544-6.177 7.544-11.23v-7.747a.875.875 0 00-.875-.875H31.101z"/></g><defs><clipPath id="clip0_852_5022"><path fill="#fff" d="M0 0h56v56H0z"/></clipPath></defs></svg>