<svg width="56" height="56" fill="none" xmlns="http://www.w3.org/2000/svg"><path d="M15.324 14.879c0-.302.245-.547.547-.547h6.453a.547.547 0 110 1.094H15.87a.547.547 0 01-.547-.547zm.547-2.131h12.905a.547.547 0 100-1.094H15.871a.547.547 0 100 1.094zm0 12.102h6.453a.547.547 0 100-1.094H15.87a.547.547 0 100 1.094zm0-2.678h12.905a.547.547 0 100-1.094H15.871a.547.547 0 100 1.094zm-8.192 3.625h2.653c.775 0 1.434-.605 1.5-1.377a.547.547 0 10-1.09-.094.415.415 0 01-.41.377H7.679a.413.413 0 01-.412-.412v-2.653c0-.228.184-.413.412-.413h2.653l.027.001a.547.547 0 00.076-1.091 1.53 1.53 0 00-.103-.003H7.679c-.83 0-1.506.675-1.506 1.506v2.653c0 .83.675 1.506 1.506 1.506zm3.655 7.456a.547.547 0 00-.591.498.415.415 0 01-.411.377H7.679a.413.413 0 01-.412-.413v-2.653c0-.227.184-.412.412-.412h2.683a.547.547 0 10.07-1.091 1.513 1.513 0 00-.1-.003H7.679c-.83 0-1.506.676-1.506 1.506v2.653c0 .83.676 1.506 1.506 1.506h2.653c.775 0 1.434-.604 1.5-1.376a.547.547 0 00-.498-.592zM7.68 16.373h2.653c.775 0 1.434-.605 1.5-1.378a.547.547 0 10-1.09-.093.415.415 0 01-.41.377H7.679a.413.413 0 01-.412-.413v-2.653c0-.227.184-.412.412-.412h2.679a.548.548 0 00.077-1.09 1.527 1.527 0 00-.103-.004H7.679c-.83 0-1.506.676-1.506 1.506v2.653c0 .83.675 1.506 1.506 1.506zm4.608 13.832l-2.924 2.159-.815-1.178a.547.547 0 00-.9.622l1.137 1.642a.547.547 0 00.774.128l3.378-2.493a.547.547 0 10-.65-.88zm0-18.849l-2.924 2.159-.815-1.178a.547.547 0 00-.9.622l1.137 1.642a.548.548 0 00.774.128l3.378-2.493a.547.547 0 10-.65-.88zm0 9.425l-2.924 2.158-.815-1.177a.547.547 0 00-.9.622l1.137 1.641a.548.548 0 00.774.129l3.378-2.494a.547.547 0 10-.65-.88zm13.225 9.722h-9.64a.547.547 0 100 1.094h9.64a.547.547 0 100-1.094zm-3.188 2.678H15.87a.547.547 0 100 1.094h6.453a.547.547 0 100-1.094zm32.473-4.524v5.96c0 3.958-.62 7.45-1.845 10.376-1.01 2.413-2.432 4.46-4.23 6.082-3.143 2.836-6.497 3.547-7.45 3.698a1.887 1.887 0 01-.594 0c-.953-.15-4.307-.862-7.45-3.698a15.799 15.799 0 01-1.725-1.83H8.418a2.698 2.698 0 01-2.695-2.696v-1.824H3.897a2.698 2.698 0 01-2.695-2.695V9.077c0-.145.058-.284.16-.386L8.69 1.363a.546.546 0 01.386-.16h22.52a2.698 2.698 0 012.696 2.695v1.825h1.824a2.698 2.698 0 012.695 2.695V22.07l1.367-.629a1.85 1.85 0 011.592 0l11.918 5.485a1.886 1.886 0 011.108 1.73zM34.293 6.817V24.15l3.425-1.576V8.418c0-.883-.718-1.602-1.601-1.602h-1.824zM3.07 8.53h3.86c.883 0 1.601-.718 1.601-1.601V3.07L3.07 8.53zm.828 35.102h24.59c-.886-2.63-1.335-5.653-1.335-9.016v-5.959c0-.753.424-1.415 1.108-1.73l4.938-2.273V3.898c0-.883-.718-1.601-1.601-1.601H9.624v4.632A2.698 2.698 0 016.93 9.624H2.297V42.03c0 .883.718 1.602 1.601 1.602zm26.797 4.519a18.046 18.046 0 01-1.698-3.158c-.037-.088-.071-.178-.107-.268H6.816v1.825c0 .883.719 1.601 1.602 1.601h22.277zm23.008-19.494a.783.783 0 00-.472-.736l-11.917-5.485a.805.805 0 00-.34-.079.804.804 0 00-.338.079L28.718 27.92a.783.783 0 00-.472.736v5.96c0 6.96 1.923 12.225 5.715 15.646 2.919 2.634 6.01 3.29 6.888 3.43.09.014.161.014.252 0 .878-.14 3.969-.796 6.888-3.43 3.792-3.421 5.714-8.686 5.714-15.646v-5.96zm-1.806.988v4.972c0 6.428-1.722 11.24-5.118 14.305-1.608 1.45-3.792 2.577-5.702 2.941a.535.535 0 01-.205 0c-1.91-.364-4.094-1.49-5.701-2.94-3.396-3.065-5.118-7.878-5.118-14.306v-4.972c0-.213.124-.407.318-.497l10.375-4.774a.546.546 0 01.457 0l10.375 4.774a.55.55 0 01.319.497zm-1.094.35l-9.828-4.523-9.828 4.523v4.622c0 6.105 1.6 10.645 4.757 13.493 1.438 1.297 3.371 2.31 5.07 2.659 1.7-.35 3.634-1.361 5.072-2.659 3.156-2.848 4.757-7.388 4.757-13.493v-4.621zm-11.896 7.907l6.219-4.544a2.177 2.177 0 011.628-.398 2.176 2.176 0 011.433.87c.346.472.487 1.05.398 1.628a2.177 2.177 0 01-.87 1.433l-8.138 5.948a2.227 2.227 0 01-1.732.378 2.162 2.162 0 01-1.432-1.005l-2.753-4.485a2.177 2.177 0 01-.26-1.657 2.193 2.193 0 013.998-.625l1.51 2.457zm.167 1.233a.546.546 0 01-.79-.155l-1.818-2.964a1.098 1.098 0 00-2.002.311 1.08 1.08 0 00.129.828l2.752 4.486c.162.265.416.443.716.504.307.061.617-.006.873-.191l8.135-5.945a1.098 1.098 0 00-1.297-1.769l-6.698 4.895z" fill="#1397DE"/></svg>