<svg width="56" height="56" fill="none" xmlns="http://www.w3.org/2000/svg"><g clip-path="url(#clip0_383_80)" fill="#1397DE"><path d="M37.303 23.385a5.076 5.076 0 001.512-3.617 5.098 5.098 0 00-5.093-5.091 5.1 5.1 0 00-4.797 3.381 5.09 5.09 0 00-1.85 0 5.1 5.1 0 00-4.798-3.381 5.098 5.098 0 00-5.092 5.091 5.08 5.08 0 001.512 3.617 7.302 7.302 0 00-3.679 6.316.82.82 0 101.64 0 5.646 5.646 0 013.617-5.251 5.064 5.064 0 002.929.324c.26.726.678 1.375 1.215 1.907a7.247 7.247 0 00-3.678 6.316.82.82 0 101.64 0 5.611 5.611 0 013.432-5.178.823.823 0 00.155-.086 5.07 5.07 0 004.035.013 5.65 5.65 0 013.615 5.25.82.82 0 101.641 0 7.306 7.306 0 00-3.679-6.314 5.105 5.105 0 001.216-1.908 5.064 5.064 0 002.93-.325 5.646 5.646 0 013.615 5.252.82.82 0 101.64 0 7.302 7.302 0 00-3.678-6.316zm-14.395-.32l.002.096a3.456 3.456 0 01-4.085-3.393 3.455 3.455 0 013.452-3.45c1.469 0 2.77.93 3.254 2.295a5.095 5.095 0 00-2.623 4.452zm1.64 0A3.455 3.455 0 0128 19.613a3.455 3.455 0 013.452 3.452A3.455 3.455 0 0128 26.516a3.455 3.455 0 01-3.451-3.451zm8.542.096l.002-.096a5.095 5.095 0 00-2.623-4.452 3.457 3.457 0 013.253-2.296 3.455 3.455 0 013.452 3.451 3.456 3.456 0 01-4.084 3.393z"/><path d="M49.244 35.453V20.542a4.424 4.424 0 003.597-4.34 4.422 4.422 0 00-4.418-4.417c-1.338 0-2.539.6-3.35 1.543L32.17 5.876A4.422 4.422 0 0028 0a4.422 4.422 0 00-4.417 4.417c0 .512.088 1.002.248 1.46l-12.904 7.45a4.408 4.408 0 00-3.35-1.542 4.422 4.422 0 00-4.418 4.417 4.424 4.424 0 003.597 4.34v14.91a4.424 4.424 0 00-3.597 4.34 4.422 4.422 0 004.418 4.418 4.408 4.408 0 003.346-1.539l12.908 7.453A4.422 4.422 0 0028 56a4.422 4.422 0 004.417-4.417c0-.511-.088-1.002-.248-1.46l12.908-7.452a4.41 4.41 0 003.346 1.539 4.422 4.422 0 004.418-4.418 4.424 4.424 0 00-3.597-4.34zm-.82-22.028a2.78 2.78 0 012.776 2.777 2.78 2.78 0 01-2.777 2.777 2.78 2.78 0 01-2.776-2.777 2.78 2.78 0 012.776-2.777zM28 1.641a2.78 2.78 0 012.777 2.776 2.78 2.78 0 01-2.773 2.777h-.008a2.78 2.78 0 01-2.773-2.777A2.78 2.78 0 0128 1.641zM4.8 16.202a2.78 2.78 0 012.777-2.777 2.78 2.78 0 012.776 2.777 2.78 2.78 0 01-2.776 2.777A2.78 2.78 0 014.8 16.202zM7.577 42.57A2.78 2.78 0 014.8 39.792a2.78 2.78 0 012.777-2.776 2.78 2.78 0 012.776 2.776 2.78 2.78 0 01-2.776 2.777zM28 54.359a2.78 2.78 0 01-2.777-2.776A2.78 2.78 0 0128 48.806a2.78 2.78 0 012.777 2.777A2.78 2.78 0 0128 54.359zm3.346-5.655a4.416 4.416 0 00-2.526-1.461v-3.16a.82.82 0 10-1.64 0v3.16a4.417 4.417 0 00-2.526 1.461l-12.909-7.452a4.397 4.397 0 000-2.92l2.737-1.581a.82.82 0 00-.82-1.421l-2.74 1.582a4.417 4.417 0 00-2.526-1.46v-14.91a4.416 4.416 0 002.526-1.46l2.744 1.584a.82.82 0 10.82-1.42l-2.741-1.584a4.397 4.397 0 00.002-2.914l12.907-7.452a4.417 4.417 0 002.525 1.46v3.162a.82.82 0 101.64 0V8.757a4.417 4.417 0 002.527-1.46l12.906 7.451a4.396 4.396 0 00.002 2.914l-2.741 1.583a.82.82 0 00.82 1.421l2.744-1.585a4.417 4.417 0 002.526 1.461v14.91a4.417 4.417 0 00-2.526 1.46l-2.74-1.582a.82.82 0 00-.82 1.42l2.738 1.582a4.396 4.396 0 000 2.92l-12.909 7.452zm17.077-6.135a2.78 2.78 0 01-2.776-2.777 2.78 2.78 0 012.776-2.776 2.78 2.78 0 012.777 2.776 2.78 2.78 0 01-2.777 2.777z"/><path d="M34.87 36.476h-2.44a.82.82 0 100 1.64h2.44a.82.82 0 100-1.64zm0 3.213H21.13a.82.82 0 100 1.64h13.74a.82.82 0 100-1.64zm-13.74-1.573h.01a.82.82 0 100-1.64h-.01a.82.82 0 100 1.64zm2.852 0a.82.82 0 100-1.64h-.011a.82.82 0 100 1.64h.011zm2.841 0a.82.82 0 100-1.64h-.011a.82.82 0 100 1.64h.011z"/></g><defs><clipPath id="clip0_383_80"><path fill="#fff" d="M0 0h56v56H0z"/></clipPath></defs></svg>