<svg width="56" height="56" fill="none" xmlns="http://www.w3.org/2000/svg"><path fill-rule="evenodd" clip-rule="evenodd" d="M45.189 52.245H10.81a.661.661 0 01-.442-.17l-.292-.267c-.461-.352-1.075-.835-1.053-1.772.009-.989.852-1.834 2.259-2.269.478-.187 1.093-.278 1.88-.278.39 0 .764.024 1.018.039h27.64c.254-.015.628-.038 1.016-.038.788 0 1.404.09 1.88.277 1.439.444 2.302 1.343 2.258 2.354-.024.886-.584 1.329-1.045 1.681l-.3.273a.65.65 0 01-.44.17zm-34.125-1.312h33.871l.133-.12.042-.037c.503-.384.547-.484.553-.693v-.015c.015-.306-.403-.765-1.353-1.053a.446.446 0 01-.055-.02c-.318-.127-.795-.193-1.419-.193-.358 0-.704.02-.957.037l-.04.001H14.12a14.78 14.78 0 00-.957-.038c-.624 0-1.1.066-1.419.194l-.054.02c-.929.28-1.353.732-1.354 1.033v.014c-.007.213.038.323.558.719.016.01.03.024.044.036l.126.115zm41.805-7.229H3.13a3.125 3.125 0 01-3.12-3.121V6.876c0-1.721 1.4-3.121 3.121-3.121h49.74c1.721 0 3.121 1.4 3.121 3.121v33.707c0 1.721-1.4 3.121-3.122 3.121zM3.13 5.067c-.997 0-1.81.812-1.81 1.81v33.706c0 .997.813 1.81 1.81 1.81h49.74c.997 0 1.81-.813 1.81-1.81V6.876c0-.997-.813-1.809-1.81-1.809H3.13z" fill="#1397DE"/><path fill-rule="evenodd" clip-rule="evenodd" d="M35.544 26.368a.657.657 0 01-.656-.656v-3.718a.657.657 0 011.312 0v3.718a.657.657 0 01-.656.656zm0 3.414a.656.656 0 01-.656-.657v-.673a.656.656 0 011.312 0v.673a.656.656 0 01-.656.657z" fill="#1397DE"/><path fill-rule="evenodd" clip-rule="evenodd" d="M43.979 32.59c-.232 0-.448-.02-.6-.036H27.71c-.153.016-.37.035-.6.035-.52 0-.936-.1-1.27-.307-.841-.43-1.363-1.234-1.366-2.106-.012-.731.26-1.141.593-1.557l8.137-12.06a2.58 2.58 0 011.012-.87c.407-.2.864-.304 1.326-.304.957 0 1.855.45 2.344 1.175l8.142 12.066c.317.397.577.788.587 1.49.026.89-.496 1.722-1.365 2.166-.334.207-.75.308-1.27.308zm-16.302-1.348h15.735a.69.69 0 01.065.003c.135.013.318.032.502.032.338 0 .505-.062.585-.115a.667.667 0 01.07-.04c.423-.21.68-.584.668-.977-.004-.3-.067-.41-.316-.72-.01-.014-.022-.028-.031-.044l-8.159-12.089c-.248-.367-.73-.596-1.255-.596-.26 0-.518.058-.74.169a1.27 1.27 0 00-.51.427l-8.153 12.084a.436.436 0 01-.033.045c-.26.321-.324.436-.32.741.002.393.259.757.67.96a.55.55 0 01.069.04c.08.053.247.115.585.115.184 0 .367-.019.503-.032a.62.62 0 01.065-.003zm3.007-15.89h-11.24a.656.656 0 010-1.312h11.24a.657.657 0 010 1.312zm-6.247 2.182h-4.993a.656.656 0 010-1.313h4.993a.657.657 0 010 1.313z" fill="#1397DE"/><path fill-rule="evenodd" clip-rule="evenodd" d="M31.836 20.415H10.81c-.786 0-1.424-.64-1.424-1.425v-6.406c0-.786.639-1.424 1.424-1.424h21.962c.786 0 1.424.638 1.424 1.424v4.65a.656.656 0 01-1.312 0v-4.65a.115.115 0 00-.112-.113H10.81a.115.115 0 00-.112.113v6.406c0 .06.053.113.112.113h21.026a.656.656 0 110 1.312z" fill="#1397DE"/><path fill-rule="evenodd" clip-rule="evenodd" d="M14.607 18.336a2.551 2.551 0 01-2.548-2.549 2.552 2.552 0 012.548-2.55 2.552 2.552 0 012.549 2.55 2.551 2.551 0 01-2.549 2.549zm0-3.786a1.238 1.238 0 101.237 1.237 1.24 1.24 0 00-1.237-1.237zm15.286 8.745H19.444a.656.656 0 010-1.313h10.449a.657.657 0 010 1.313zm-5.456 2.182h-4.993a.655.655 0 110-1.311h4.993a.656.656 0 110 1.31z" fill="#1397DE"/><path fill-rule="evenodd" clip-rule="evenodd" d="M26.477 28.358H10.81a1.426 1.426 0 01-1.424-1.425v-6.406c0-.786.639-1.425 1.424-1.425h21.026a.657.657 0 010 1.313H10.81a.114.114 0 00-.112.112v6.406c0 .06.053.112.112.112h15.667a.657.657 0 010 1.313z" fill="#1397DE"/><path fill-rule="evenodd" clip-rule="evenodd" d="M14.607 26.279a2.551 2.551 0 01-2.548-2.549 2.552 2.552 0 012.548-2.55 2.552 2.552 0 012.549 2.55 2.551 2.551 0 01-2.549 2.549zm0-3.786a1.238 1.238 0 101.237 1.237 1.24 1.24 0 00-1.237-1.237zm10.579 8.745h-5.742a.656.656 0 010-1.313h5.742a.656.656 0 010 1.313zm-.749 2.182h-4.993a.655.655 0 010-1.313h4.993a.657.657 0 010 1.313z" fill="#1397DE"/><path fill-rule="evenodd" clip-rule="evenodd" d="M32.772 36.3H10.81a1.426 1.426 0 01-1.424-1.423v-6.408c0-.785.639-1.424 1.424-1.424h15.667a.657.657 0 010 1.313H10.81a.113.113 0 00-.112.111v6.408c0 .06.052.111.112.111h21.962c.06 0 .112-.051.112-.111v-2.979a.657.657 0 011.312 0v2.979c0 .785-.638 1.424-1.424 1.424z" fill="#1397DE"/><path fill-rule="evenodd" clip-rule="evenodd" d="M14.607 34.221a2.551 2.551 0 01-2.548-2.548 2.551 2.551 0 012.548-2.548 2.551 2.551 0 012.549 2.548 2.551 2.551 0 01-2.549 2.548zm0-3.785a1.238 1.238 0 000 2.474 1.24 1.24 0 001.237-1.237c0-.683-.556-1.237-1.237-1.237z" fill="#1397DE"/><path fill-rule="evenodd" clip-rule="evenodd" d="M51.629 39.334H4.372a.657.657 0 01-.656-.657V8.782c0-.362.294-.655.656-.655H51.63c.362 0 .656.293.656.655v29.895a.657.657 0 01-.656.657zm-46.6-1.313h45.943V9.438H5.028v28.583zM35.29 48.802H20.71a.656.656 0 01-.656-.656v-5.097c0-.363.294-.656.656-.656h14.582c.362 0 .656.293.656.656v5.097a.656.656 0 01-.656.656zM21.366 47.49h13.27v-3.786h-13.27v3.786z" fill="#1397DE"/></svg>