<svg width="56" height="56" fill="none" xmlns="http://www.w3.org/2000/svg"><path d="M14.875 22.013a.875.875 0 01-.875-.875V17.97a.87.87 0 01.347-.697 3.474 3.474 0 001.403-2.784v-2.625c0-1.93-1.57-3.5-3.5-3.5s-3.5 1.57-3.5 3.5v2.625c0 1.094.511 2.109 1.403 2.785a.873.873 0 01.347.698v3.169a.875.875 0 11-1.75-.002v-2.756A5.19 5.19 0 017 14.488v-2.625a5.256 5.256 0 015.25-5.25 5.256 5.256 0 015.25 5.25v2.625a5.194 5.194 0 01-1.75 3.894v2.756a.875.875 0 01-.875.875z" fill="#1397DE"/><path d="M13.13 19.65a.874.874 0 01-.173-1.73 3.517 3.517 0 002.793-3.432.875.875 0 011.75 0 5.27 5.27 0 01-4.193 5.143.865.865 0 01-.177.02zm5.024 3.735a.858.858 0 01-.345-.072l-3.28-1.408a.875.875 0 01.69-1.608l3.28 1.408a.875.875 0 01-.345 1.68zM7 33.978a.863.863 0 01-.362-.079l-3.35-1.522a2.635 2.635 0 01-1.538-2.39V27.56a6.094 6.094 0 013.7-5.618l3.827-1.66a.874.874 0 11.696 1.604l-3.83 1.663A4.354 4.354 0 003.5 27.56v2.426a.88.88 0 00.513.798l3.35 1.523A.876.876 0 017 33.977zm8.643-20.522c-1.743 0-3.409-.6-4.818-1.736a.876.876 0 01-.132-1.229.876.876 0 011.23-.131c1.123.905 2.457 1.393 3.823 1.346a3.505 3.505 0 00-3.496-3.343c-1.93 0-3.5 1.57-3.5 3.5v.648a.875.875 0 01-1.75 0v-.648a5.256 5.256 0 015.25-5.25 5.256 5.256 0 015.25 5.25v.613c0 .43-.313.796-.737.864-.404.065-.754.116-1.12.116zm30.732 8.557a.875.875 0 01-.875-.875V17.97a.87.87 0 01.346-.697 3.474 3.474 0 001.404-2.784v-2.625c0-1.93-1.57-3.5-3.5-3.5s-3.5 1.57-3.5 3.5v2.625c0 1.094.511 2.109 1.404 2.785a.873.873 0 01.346.698v3.169a.875.875 0 01-1.75 0v-2.756a5.19 5.19 0 01-1.75-3.894v-2.625a5.256 5.256 0 015.25-5.25 5.256 5.256 0 015.25 5.25v2.625a5.194 5.194 0 01-1.75 3.894v2.756a.875.875 0 01-.875.873z" fill="#1397DE"/><path d="M44.63 19.65a.874.874 0 01-.173-1.73 3.517 3.517 0 002.793-3.432.875.875 0 011.75 0 5.27 5.27 0 01-4.193 5.143.865.865 0 01-.177.02zm-6.527 3.625a.875.875 0 01-.345-1.68l3.023-1.299a.876.876 0 01.69 1.609l-3.023 1.298a.852.852 0 01-.345.072zM49 33.978a.876.876 0 01-.362-1.671l3.35-1.523a.878.878 0 00.512-.798v-2.425a4.35 4.35 0 00-2.637-4.008l-3.836-1.666a.877.877 0 01-.455-1.151.87.87 0 011.151-.454l3.83 1.663a6.093 6.093 0 013.697 5.616v2.425a2.635 2.635 0 01-1.538 2.39l-3.35 1.523a.89.89 0 01-.362.079zM30.293 10.841c-2.489 0-5.079-.876-6.507-2.16a.873.873 0 111.17-1.301c1.725 1.55 5.858 2.36 8.226 1.09a.875.875 0 11.828 1.542c-1.08.576-2.384.83-3.717.83zm-2.305 15.897c-2.903 0-4.417-2.264-4.813-3.463a.875.875 0 011.66-.553c.036.105.811 2.264 3.153 2.264 2.36 0 3.192-2.226 3.229-2.32a.879.879 0 011.116-.529.873.873 0 01.534 1.112c-.05.143-1.26 3.49-4.879 3.49z" fill="#1397DE"/><path d="M44.625 33.738a.875.875 0 01-.875-.875v-.488a6.118 6.118 0 00-4.07-5.771l-7.3-2.59a2.62 2.62 0 01-1.755-2.471V19.39a.875.875 0 011.75 0v2.153c0 .367.236.696.586.819l7.301 2.591c3.133 1.101 5.238 4.085 5.238 7.422v.49a.874.874 0 01-.875.873zm-33.25 0a.875.875 0 01-.875-.875v-.472a8 8 0 01.171-1.635 7.956 7.956 0 015.083-5.805l7.283-2.555a.873.873 0 00.588-.82v-2.188a.875.875 0 011.75 0v2.188c0 1.11-.705 2.103-1.759 2.472l-7.278 2.554a6.189 6.189 0 00-3.955 4.516 6.14 6.14 0 00-.133 1.273v.472a.874.874 0 01-.875.875z" fill="#1397DE"/><path d="M28 21.488a.875.875 0 010-1.75c1.817 0 5.25-1.645 5.25-7.875V9.238A5.256 5.256 0 0028 3.988a5.256 5.256 0 00-5.25 5.25v2.625c0 3.017.807 5.326 2.331 6.675a.873.873 0 11-1.159 1.31C22.59 18.67 21 16.329 21 11.864V9.238c0-3.86 3.14-7 7-7s7 3.14 7 7v2.625c0 7.614-4.578 9.625-7 9.625zm13.332 28a.876.876 0 01-.387-1.659l4.328-2.143a.875.875 0 01.775 0l2.828 1.401-.46-3.122a.874.874 0 01.242-.738l2.21-2.26-3.115-.53a.88.88 0 01-.628-.456l-1.463-2.797-1.465 2.797a.88.88 0 01-.628.456l-3.114.53 2.209 2.26a.876.876 0 01-1.251 1.223l-3.376-3.453a.873.873 0 01.48-1.473l4.332-.739 2.04-3.892a.877.877 0 011.55 0l2.037 3.892 4.334.739a.874.874 0 01.48 1.474l-3.075 3.14.64 4.348a.88.88 0 01-.351.834.867.867 0 01-.903.076l-3.938-1.952-3.939 1.952a.86.86 0 01-.392.092zM22.883 54.25a.876.876 0 01-.866-1.003l.767-5.22-3.69-3.773a.873.873 0 01.48-1.473l5.204-.886 2.447-4.674c.304-.578 1.248-.578 1.552 0l2.447 4.674 5.204.886a.877.877 0 01.48 1.473l-3.691 3.773.768 5.22a.88.88 0 01-.352.835.867.867 0 01-.903.075L28 51.814l-4.728 2.343a.868.868 0 01-.389.093zm-1.37-10.026l2.824 2.89c.191.196.28.469.242.738l-.588 3.995 3.62-1.794a.864.864 0 01.776 0l3.619 1.794-.588-3.995a.874.874 0 01.242-.738l2.826-2.89-3.985-.679a.88.88 0 01-.628-.456L28 39.509l-1.872 3.58a.88.88 0 01-.628.456l-3.987.68zm-6.703 5.264a.884.884 0 01-.388-.09l-3.938-1.952-3.939 1.953a.876.876 0 01-1.255-.912l.64-4.347L2.857 41a.873.873 0 01.48-1.474l4.334-.738 2.04-3.892a.877.877 0 011.55 0l2.037 3.892 4.333.739A.874.874 0 0118.11 41l-3.377 3.45a.875.875 0 01-1.251-1.223l2.209-2.26-3.114-.53a.877.877 0 01-.628-.456l-1.463-2.797-1.465 2.797a.88.88 0 01-.628.456l-3.115.53 2.21 2.26c.191.196.28.469.242.738l-.46 3.122 2.83-1.402a.875.875 0 01.775 0L15.2 47.83c.434.215.61.739.397 1.173a.887.887 0 01-.788.486z" fill="#1397DE"/></svg>