<svg width="56" height="56" fill="none" xmlns="http://www.w3.org/2000/svg"><g clip-path="url(#clip0_852_4894)"><path d="M9.943 13.078a3.522 3.522 0 003.457-4.17l5.872-2.757a3.509 3.509 0 002.71 1.279 3.52 3.52 0 003.064-1.793l5.456 1.455-.002.033a3.522 3.522 0 003.518 3.517 3.522 3.522 0 003.517-3.517v-.032l5.457-1.456a3.518 3.518 0 003.064 1.793 3.522 3.522 0 003.517-3.518A3.522 3.522 0 0046.057.394a3.522 3.522 0 00-3.518 3.517l.001.032-5.457 1.456a3.518 3.518 0 00-3.064-1.793A3.52 3.52 0 0030.955 5.4L25.5 3.944v-.033A3.522 3.522 0 0021.984.394a3.522 3.522 0 00-3.456 4.17l-5.872 2.757a3.509 3.509 0 00-2.71-1.28 3.522 3.522 0 00-3.52 3.519 3.522 3.522 0 003.516 3.519zM46.057 2.146c.973 0 1.765.792 1.765 1.765 0 .974-.792 1.766-1.765 1.766A1.767 1.767 0 0144.29 3.91c0-.973.792-1.765 1.766-1.765zm-12.04 3.212c.974 0 1.766.792 1.766 1.766 0 .973-.792 1.765-1.765 1.765a1.767 1.767 0 01-1.765-1.765c0-.974.791-1.766 1.765-1.766zM21.983 2.146c.974 0 1.766.792 1.766 1.765 0 .974-.792 1.766-1.766 1.766a1.767 1.767 0 01-1.765-1.766c0-.973.792-1.765 1.765-1.765zm-12.04 5.65c.974 0 1.766.791 1.766 1.765 0 .973-.792 1.765-1.766 1.765A1.767 1.767 0 018.178 9.56c0-.974.792-1.766 1.765-1.766zm39.665 29.123v-24.65c0-.684-.559-1.24-1.244-1.24H43.75c-.687 0-1.245.556-1.245 1.24v18.498A27.613 27.613 0 0037.57 28.4V15.482c0-.687-.559-1.245-1.244-1.245H31.71c-.687 0-1.244.56-1.244 1.245v11.355a28.403 28.403 0 00-4.937 0V12.27c0-.685-.556-1.242-1.241-1.242h-4.613c-.687 0-1.245.557-1.245 1.242V28.4a27.688 27.688 0 00-4.936 2.367V17.92c0-.687-.56-1.245-1.245-1.245H7.637c-.687 0-1.245.56-1.245 1.245v19C2.252 41.922-.001 48.151-.001 54.73c0 .484.392.876.876.876h9.741a.876.876 0 00.876-.876c0-9.102 7.406-16.508 16.508-16.508 1.305 0 2.593.152 3.844.452l-.09.135-5.052 7.521a4.738 4.738 0 00-3.43 4.547 4.735 4.735 0 004.73 4.73 4.735 4.735 0 004.45-6.33l3.154-8.494.219-.589c5.304 2.865 8.684 8.468 8.684 14.536 0 .484.392.876.876.876h9.74a.876.876 0 00.876-.876c0-6.578-2.253-12.808-6.393-17.811zM44.257 12.78h3.6v22.207c-.02-.02-.038-.04-.058-.058a28.286 28.286 0 00-3.542-3.005V12.78zm-12.038 3.21h3.6v11.842a27.694 27.694 0 00-3.6-.788V15.99zm-16.49 25.23l-5.65-5.65a26.17 26.17 0 0117.046-7.073v7.994a18.19 18.19 0 00-11.396 4.73zm4.453-28.44h3.596v14.264a27.83 27.83 0 00-3.596.788V12.78zM8.144 18.428h3.6v13.498a28.376 28.376 0 00-3.6 3.063V18.427zm1.617 35.427H1.765c.217-6.578 2.866-12.55 7.075-17.046l5.651 5.651a18.184 18.184 0 00-4.73 11.395zm19.115-17.362v-7.995a26.852 26.852 0 012.41.188c2.163.271 4.245.807 6.212 1.574l-4.618 6.87a18.173 18.173 0 00-4.003-.64zm5.08 2.18a.511.511 0 00.033-.048l1.23-1.832-3.96 10.661a4.722 4.722 0 00-2.382-1.223l5.079-7.557zM28 53.855a2.982 2.982 0 01-2.978-2.978A2.981 2.981 0 0128 47.898a2.981 2.981 0 012.978 2.978A2.982 2.982 0 0128 53.854zM39.236 31.01a26.346 26.346 0 016.686 4.56l-5.646 5.646a18.278 18.278 0 00-3.837-2.679l2.797-7.527zm7.004 22.844a18.165 18.165 0 00-4.726-11.399l5.647-5.647c4.208 4.496 6.857 10.47 7.075 17.046H46.24z" fill="#1397DE"/></g><defs><clipPath id="clip0_852_4894"><path fill="#fff" d="M0 0h56v56H0z"/></clipPath></defs></svg>