<svg width="56" height="56" fill="none" xmlns="http://www.w3.org/2000/svg"><g clip-path="url(#clip0_852_4966)"><mask id="a" style="mask-type:luminance" maskUnits="userSpaceOnUse" x="0" y="0" width="56" height="56"><path d="M0 0h56v56H0V0z" fill="#fff"/></mask><g mask="url(#a)"><mask id="b" style="mask-type:luminance" maskUnits="userSpaceOnUse" x="0" y="0" width="56" height="56"><path d="M56 0H0v56h56V0z" fill="#fff"/></mask><g mask="url(#b)" stroke="#1397DE" stroke-width="2" stroke-linecap="round" stroke-linejoin="round"><path d="M43.557 10.171A26.853 26.853 0 0028 5.226 26.834 26.834 0 008.966 13.11a26.877 26.877 0 00-7.642 15.526 26.845 26.845 0 003.375 16.952 3.795 3.795 0 106.58-3.782A19.3 19.3 0 018.858 29.62a19.265 19.265 0 015.498-11.12A19.235 19.235 0 0128 12.85c4.938 0 9.877 1.883 13.644 5.65a19.265 19.265 0 015.498 11.12 19.3 19.3 0 01-2.421 12.188 3.795 3.795 0 106.58 3.781 26.846 26.846 0 003.375-16.952 26.919 26.919 0 00-5.623-13.265m-2.02-2.26a.288.288 0 00-.01-.012M23.246 35.103a5.596 5.596 0 10-.84-3.143m25.087.184h7.23m-9.855-9.739l6.29-3.631m-13.455-3.437l3.705-6.418M28 12.679V5.395m-9.734 9.888l-3.644-6.31M11.17 22.427l-6.365-3.675m3.767 13.392H1.214" stroke-miterlimit="22.926"/><path d="M34.563 47.493H21.438v-3.5h13.125v3.5zM7.14 37.735l21.418-3.5c1.174-.192 1.838-1.5 1.53-2.65h0c-.308-1.148-1.537-1.95-2.65-1.529L7.14 37.735z" stroke-miterlimit="22.926"/><path d="M44.166 32.144h-.026m-8.059-13.999l-.013.022m-16.153-.021l.013.023m-8.094 13.979h.025m19.943 18.626h.026m-7.656 0h4.488" stroke-miterlimit="2.613"/></g></g></g><defs><clipPath id="clip0_852_4966"><path fill="#fff" transform="matrix(-1 0 0 1 56 0)" d="M0 0h56v56H0z"/></clipPath></defs></svg>