<svg width="56" height="56" fill="none" xmlns="http://www.w3.org/2000/svg"><path d="M25.436 7.464h6.125v1.75h-6.125v-1.75zm0 17.517h6.125v1.75h-6.125v-1.75zm7.429-17.517h2.004v1.75h-2.004v-1.75zM20.204 52.5h32.839L36.619 19.66 20.204 52.5zm2.835-1.75l13.58-27.125L50.208 50.75H23.039z" fill="#1397DE"/><path d="M36.103 28l-5.005 13.23h4.375v8.199l1.697.306 5.005-13.265H37.8v-8.199L36.103 28zm3.5 10.264l-2.407 6.361V39.48h-3.57l2.424-6.422v5.162l3.553.044zM7.438 13.335H14V7.464H7.437v5.871zm1.75-4.121h3.062v2.371H9.187V9.214zm6.642 4.121h6.527V7.464h-6.528v5.871zm1.75-4.121h3.027v2.371h-3.028V9.214zM14 30.852v-5.87H7.437v5.87H14zm-4.813-4.12h3.063v2.37H9.187v-2.37zm13.17 4.12v-5.87h-6.528v5.87h6.528zm-4.778-4.12h3.028v2.37h-3.028v-2.37z" fill="#1397DE"/><path d="M17.71 50.75H5.25V40.451h18.48v-1.75H12.25v-3.885h14.297v-1.75H5.25V22.75h27.326V21H12.25v-3.701h31.5V21h-3.08v1.75h10.08v10.316h-4.051v1.75H52.5V21h-7v-3.701h7V3.5h-49v13.799h7V21h-7v13.816h7v3.885h-7V52.5h14.21v-1.75zM5.25 5.25h45.5v10.299H5.25V5.25zM52.5 43.794V38.7h-2.983v1.75h1.233v3.343h1.75z" fill="#1397DE"/><path d="M14 48.536v-5.871H7.437v5.871H14zm-4.813-4.121h3.063v2.371H9.187v-2.371zm12.295 0v-.332h.875v-1.418h-6.528v5.871h3.859v-1.75h-2.109v-2.371h3.903z" fill="#1397DE"/></svg>