<svg width="56" height="56" fill="none" xmlns="http://www.w3.org/2000/svg"><g clip-path="url(#clip0_423_74)" stroke="#1397DE" stroke-width="2" stroke-miterlimit="10" stroke-linecap="round" stroke-linejoin="round"><path d="M15.04 53.922h24.718m1.026-43.287a4.758 4.758 0 00-8.682-3.694 4.755 4.755 0 00-8.204 0 4.755 4.755 0 00-4.92-2.276m-3.191 2.128a4.733 4.733 0 00-.571 3.842M42 2.078v.11m-28-.11v.11m34.563 9.936v.11m-41.125-.11v.11M28 20.016v8.859M11.345 47.991H8.404c-.308 0-.601-.13-.808-.357l-1.593-1.746a1.64 1.64 0 00-1.212-.535H1.914c-.604 0-1.094.49-1.094 1.094v6.928c0 .302.245.547.547.547h16.11l-4.92-5.396a1.64 1.64 0 00-1.213-.535zm38.533 5.931h4.755a.547.547 0 00.547-.547v-6.928c0-.604-.49-1.094-1.094-1.094h-2.877a1.64 1.64 0 00-1.212.535l-1.593 1.746c-.207.227-.5.357-.808.357h-2.94a1.64 1.64 0 00-1.213.535l-4.92 5.396h7.527"/><path d="M22.695 40.469v13.453h10.61V21.74a2.742 2.742 0 011.37-2.373 2.782 2.782 0 013.037-.012 4.758 4.758 0 007.347-4.175c-.095-2.488-2.14-4.506-4.63-4.57a4.754 4.754 0 00-4.226 2.346 4.755 4.755 0 00-8.203 0 4.755 4.755 0 00-8.203 0 4.754 4.754 0 00-4.227-2.346c-2.49.064-4.534 2.082-4.629 4.57a4.758 4.758 0 007.347 4.175 2.782 2.782 0 013.037.011l.07.045c.806.5 1.3 1.38 1.3 2.329v14.9M46.813 8.75a1.969 1.969 0 100-3.937 1.969 1.969 0 000 3.937zm-37.625 0a1.969 1.969 0 100-3.937 1.969 1.969 0 000 3.937z"/><path d="M16.551 24.281c-5.432.948-9.004 2.552-9.004 4.37 0 2.913 9.157 5.274 20.453 5.274s20.453-2.36 20.453-5.274c0-1.819-3.572-3.422-9.004-4.37M18.674 37.625c-4.425.772-7.335 2.078-7.335 3.56 0 2.372 7.46 4.296 16.661 4.296s16.66-1.924 16.66-4.296c0-1.482-2.91-2.788-7.334-3.56"/></g><defs><clipPath id="clip0_423_74"><path fill="#fff" d="M0 0h56v56H0z"/></clipPath></defs></svg>