<svg width="56" height="56" fill="none" xmlns="http://www.w3.org/2000/svg"><path d="M45.835 24.81a.876.876 0 01-.876.876h-7.785a.876.876 0 110-1.752h7.785c.484 0 .876.392.876.876zm-.876-4.19h-7.785a.876.876 0 100 1.751h7.785a.876.876 0 100-1.752zm0 11.148h-7.785a.876.876 0 100 1.752h7.785a.876.876 0 100-1.752zm0-3.314h-7.785a.876.876 0 100 1.752h7.785a.876.876 0 100-1.752zm-10.903-6.698v2.793c0 .99-.805 1.797-1.796 1.797h-2.794a1.8 1.8 0 01-1.8-1.797v-2.793a1.8 1.8 0 011.8-1.797h2.794a1.8 1.8 0 011.797 1.797zm-1.751 0c0-.022-.023-.045-.045-.045h-2.794c-.026 0-.048.024-.048.045v2.793c0 .024.023.045.048.045h2.794c.02 0 .045-.02.045-.045v-2.793zm1.752 7.834v2.794a1.8 1.8 0 01-1.797 1.797h-2.794a1.8 1.8 0 01-1.8-1.797V29.59a1.8 1.8 0 011.8-1.796h2.794a1.8 1.8 0 011.797 1.796zm-1.752 0c0-.021-.024-.044-.045-.044h-2.794c-.026 0-.048.024-.048.044v2.794c0 .024.023.045.048.045h2.794c.02 0 .045-.02.045-.045V29.59zm1.752 7.835v2.794c0 .99-.806 1.796-1.797 1.796h-2.794a1.8 1.8 0 01-1.8-1.796v-2.794a1.8 1.8 0 011.8-1.797h2.794a1.8 1.8 0 011.797 1.797zm-1.752 0c0-.022-.023-.045-.045-.045h-2.794c-.026 0-.048.025-.048.045v2.794c0 .023.023.044.048.044h2.794c.02 0 .045-.02.045-.044v-2.794zm4.444-25.423a.744.744 0 000 1.488.745.745 0 100-1.488zm18.378 31.897v2.303a.876.876 0 01-.562.818l-.995.383a8.2 8.2 0 01-.63 1.52l.431.974a.876.876 0 01-.18.973l-1.628 1.631a.876.876 0 01-.976.181l-.974-.433c-.484.26-.992.47-1.519.63l-.383.995a.876.876 0 01-.817.561H44.59a.876.876 0 01-.817-.561l-.383-.996a8.206 8.206 0 01-1.52-.629l-.977.434a.875.875 0 01-.975-.182l-1.628-1.63a.876.876 0 01-.18-.976l.432-.972a8.029 8.029 0 01-.318-.663H9.67a.876.876 0 01-.875-.876v-2.59c0-1.91 1.846-3.464 4.115-3.464h4.907v-4.285H5.55a4.68 4.68 0 01-4.677-4.673V6.242A4.682 4.682 0 015.55 1.563h41.812a4.682 4.682 0 014.677 4.677v31.836l1.151 1.154a.876.876 0 01.181.973l-.43.974c.26.485.47.993.628 1.52l.996.383c.339.13.562.455.562.818zm-4.84-28.651c0-.43-.351-.78-.783-.78h-5.501v.552h4.853c.484 0 .876.392.876.876V37.8l.555-.247V15.248zm-3.393 20.418c.362 0 .687.223.817.561l.27.7V16.772h-3.978v.125a.876.876 0 01-.876.876H30.375a.876.876 0 01-.876-.876v-.125H25.52V44.2h10.836v-.302c0-.363.223-.688.561-.818l.995-.382c.138-.464.32-.913.54-1.344h-1.28a.876.876 0 010-1.752h.899a.873.873 0 01.218-.372l1.188-1.19h-2.304a.876.876 0 010-1.752h6.575l.023-.062a.876.876 0 01.818-.561h2.304zM21.463 15.248c0-.14.011-.276.033-.41a3.11 3.11 0 00-4.325 2.856 3.105 3.105 0 004.29 2.873v-5.319zm2.534-2.531h1.997l-.75-.75-.82.364a.876.876 0 01-.815-.055 6.298 6.298 0 00-1.851-.768.876.876 0 01-.615-.536l-.323-.838h-1.082l-.32.836a.876.876 0 01-.616.539 6.253 6.253 0 00-1.85.766.875.875 0 01-.816.056l-.821-.364-.765.763.364.82a.876.876 0 01-.053.813 6.382 6.382 0 00-.77 1.853.876.876 0 01-.537.615l-.838.323v1.082l.837.321c.27.104.471.334.538.616a6.33 6.33 0 00.769 1.852c.15.245.17.55.054.813l-.364.821.765.766.821-.364a.876.876 0 01.814.054c.571.35 1.195.61 1.855.77.28.067.51.268.613.537l.32.836h1.082l.323-.838a.875.875 0 01.32-.405v-1.609a4.867 4.867 0 01-1.183.149c-2.68 0-4.86-2.18-4.86-4.86a4.864 4.864 0 016.95-4.385 2.522 2.522 0 011.627-.594zm3.909 0h1.593v-.126c0-.484.392-.876.876-.876h3.019a3.676 3.676 0 013.355-2.155 3.68 3.68 0 013.359 2.155h3.019c.484 0 .876.392.876.876v.126h3.106V6.494H5.803v22.404h15.66v-1.892l-.042.003h-2.285a.876.876 0 01-.818-.562l-.377-.983a8.156 8.156 0 01-1.5-.622l-.965.427a.876.876 0 01-.975-.181l-1.615-1.615a.876.876 0 01-.181-.975l.427-.964a8.077 8.077 0 01-.623-1.501l-.982-.377a.876.876 0 01-.562-.818v-2.285c0-.362.222-.687.56-.817l.984-.38a8.127 8.127 0 01.624-1.501l-.428-.965a.876.876 0 01.182-.975l1.615-1.612a.876.876 0 01.974-.18l.963.426c.477-.258.98-.466 1.502-.622l.377-.983a.876.876 0 01.818-.562h2.285c.362 0 .686.223.817.56l.38.984a8.07 8.07 0 011.502.624l.964-.428a.876.876 0 01.974.182l1.613 1.612a.874.874 0 01.235.8zm11.58.75a.876.876 0 01-.85-.671 1.933 1.933 0 00-1.887-1.484c-.898 0-1.673.61-1.883 1.484a.876.876 0 01-.852.67H31.25v2.556h11v-2.555h-2.763zM5.55 35.294h15.913v-4.645H4.927a.876.876 0 01-.876-.876V6.145c0-.773.63-1.403 1.403-1.403h42.004c.774 0 1.403.63 1.403 1.403v6.572h.643c.274 0 .537.043.783.124v-6.6a2.929 2.929 0 00-2.925-2.925H5.55a2.929 2.929 0 00-2.925 2.925v26.13a2.927 2.927 0 002.925 2.923zm14.018 6.036h1.895v-4.285h-1.895v4.285zm-9.022 5.178h11.041a2.522 2.522 0 01-.124-.783v-2.643H12.91c-1.281 0-2.364.784-2.364 1.713v1.713zm25.868 0a.871.871 0 01-.057-.306v-.25H24.645a.876.876 0 01-.876-.875V15.896c0-.484.393-.876.876-.876H29.5v-.552h-5.502a.782.782 0 00-.783.78v30.477c0 .431.352.783.783.783h12.417zM53.375 44.5l-.85-.326a.876.876 0 01-.536-.614 6.46 6.46 0 00-.776-1.873.876.876 0 01-.054-.812l.368-.831-.779-.78-.829.369a.876.876 0 01-.812-.053 6.502 6.502 0 00-1.875-.776.876.876 0 01-.613-.537l-.327-.85h-1.1l-.327.85a.876.876 0 01-.614.537 6.457 6.457 0 00-1.873.775.876.876 0 01-.813.054l-.832-.37-.778.78.37.83a.876.876 0 01-.056.817 6.284 6.284 0 00-.773 1.867.876.876 0 01-.538.617l-.85.326v1.1l.85.327c.27.104.471.335.538.617.155.66.416 1.289.773 1.867a.875.875 0 01.055.817l-.37.83.779.78.832-.37a.876.876 0 01.813.054 6.46 6.46 0 001.873.775c.28.067.51.268.614.537l.326.85h1.101l.327-.85a.876.876 0 01.613-.537 6.456 6.456 0 001.873-.775.876.876 0 01.814-.054l.83.37.777-.78-.367-.832a.876.876 0 01.054-.812c.356-.58.616-1.21.775-1.873a.876.876 0 01.538-.613l.849-.327v-1.1zm-2.74.549a4.9 4.9 0 01-4.895 4.894 4.898 4.898 0 01-4.89-4.894 4.896 4.896 0 014.89-4.89 4.898 4.898 0 014.894 4.89zm-1.752 0c0-1.731-1.41-3.14-3.143-3.14a3.143 3.143 0 00-3.139 3.14 3.144 3.144 0 003.14 3.142 3.146 3.146 0 003.142-3.142z" fill="#1397DE"/></svg>