<svg width="56" height="56" fill="none" xmlns="http://www.w3.org/2000/svg"><g clip-path="url(#clip0_852_4890)" fill="#1397DE"><path d="M4.728 24.828h28.038a.819.819 0 100-1.638H4.728a.82.82 0 000 1.638zm0 3.172H19.16a.82.82 0 000-1.639H4.728a.82.82 0 000 1.639z"/><path d="M51.708 13.837h-1.836v-1.188a5.085 5.085 0 002.285-4.244V3.481A3.046 3.046 0 0049.115.438h-4.088a3.046 3.046 0 00-3.043 3.043v4.924c0 1.727.864 3.254 2.183 4.174v1.258h-6.674V3.722A3.289 3.289 0 0034.208.438H8.52a.82.82 0 000 1.638h25.687c.907 0 1.646.739 1.646 1.646v10.115H28.43a2.303 2.303 0 00.025-2.387l2.935-3.64a2.323 2.323 0 003.058-2.198c0-1.28-1.04-2.32-2.32-2.32a2.322 2.322 0 00-2.32 2.32c0 .422.116.818.314 1.16L27.18 10.42a2.309 2.309 0 00-1.622.064l-1.565-1.652c.15-.306.235-.648.235-1.01 0-1.28-1.041-2.32-2.32-2.32-1.28 0-2.32 1.04-2.32 2.32 0 .423.115.818.314 1.16l-1.918 2.35a2.302 2.302 0 00-2.26.451l-2.154-1.157A2.323 2.323 0 0011.27 8a2.323 2.323 0 00-2.145 3.204l-2.33 2.18a2.303 2.303 0 00-1.025-.242 2.322 2.322 0 00-2.32 2.32c0 1.28 1.04 2.32 2.32 2.32a2.323 2.323 0 002.145-3.202l2.33-2.181a2.3 2.3 0 002.547-.331l2.155 1.157c-.014.1-.023.201-.023.304 0 1.28 1.041 2.32 2.32 2.32 1.28 0 2.32-1.04 2.32-2.32 0-.423-.115-.819-.314-1.16l1.918-2.35a2.305 2.305 0 001.636-.06l1.564 1.653a2.3 2.3 0 00-.234 1.01c0 .923.543 1.72 1.325 2.094v2.034a2.86 2.86 0 002.858 2.857H40.86v11.02a4.144 4.144 0 00-2.759 3.888v4.358c0 1.836.906 3.512 2.394 4.488v1.39h-.612a5.745 5.745 0 00-4.926 2.794 5.744 5.744 0 00-4.925-2.794h-.612v-1.396a5.392 5.392 0 002.394-4.482v-4.358c0-.931-.311-1.79-.834-2.481h3.228a3.288 3.288 0 003.284-3.285v-5.853a.819.819 0 10-1.638 0v5.853c0 .907-.739 1.646-1.646 1.646H3.285a1.648 1.648 0 01-1.647-1.646V3.722c0-.907.74-1.646 1.647-1.646h1.739a.82.82 0 100-1.639h-1.74A3.288 3.288 0 000 3.723V28.75a3.289 3.289 0 003.285 3.286h1.51a4.1 4.1 0 00-.833 2.482v4.356a5.39 5.39 0 002.395 4.483v1.396h-.613A5.75 5.75 0 000 50.496v3.12c0 1.115.907 2.022 2.023 2.022h14.661c.452 0 .867-.15 1.204-.4.337.25.752.4 1.203.4h14.662c.452 0 .868-.15 1.205-.402.336.251.753.402 1.204.402h14.662a2.024 2.024 0 002.022-2.023v-3.12a5.751 5.751 0 00-1.148-3.444v-8.816a.819.819 0 00-1.638 0v7.336a5.733 5.733 0 00-2.957-.82h-.612v-1.397l.106-.07a5.404 5.404 0 002.288-4.41v-4.358a4.1 4.1 0 00-.847-2.5h2.022v2.395a.82.82 0 101.638 0v-2.394h.112c2.31 0 4.19-1.88 4.19-4.19v-9.7a4.297 4.297 0 00-4.292-4.291zM43.622 3.48c0-.775.63-1.405 1.405-1.405h4.088c.774 0 1.404.63 1.404 1.405v1.287a3.026 3.026 0 00-1.404-.344H46.66v-.062a.819.819 0 10-1.638 0v.062c-.505 0-.98.125-1.4.344V3.48zm0 3.986c0-.775.63-1.405 1.405-1.405h4.088c.774 0 1.404.63 1.404 1.405v.938a3.453 3.453 0 01-3.448 3.449 3.452 3.452 0 01-3.449-3.449v-.938zm3.449 6.025c.4 0 .788-.047 1.162-.135v1.287a1.217 1.217 0 01-1.214 1.195c-.66 0-1.203-.536-1.212-1.194l-.001-.03v-1.282c.404.104.828.16 1.265.16zM32.127 4.93a.683.683 0 010 1.363.679.679 0 01-.429-.153l-.009-.008-.003-.002a.68.68 0 01.441-1.2zm-5.25 7.158l.005.005.008.005a.68.68 0 01-.435 1.206.682.682 0 11.422-1.216zM5.77 16.145a.683.683 0 11.002-1.365.683.683 0 01-.002 1.365zm5.5-5.142a.683.683 0 010-1.363.682.682 0 010 1.363zm5.975 3.209a.683.683 0 010-1.363.682.682 0 010 1.363zm3.979-6.39a.682.682 0 111.364 0 .682.682 0 01-1.364 0zm18.514 26.694a2.492 2.492 0 012.482-2.482h2.542a2.485 2.485 0 012.484 2.482v.945a3.758 3.758 0 01-3.754 3.75 3.758 3.758 0 01-3.754-3.754v-.941zM22.812 44.752a5.745 5.745 0 00-4.924 2.791 5.745 5.745 0 00-4.925-2.791h-.611v-1.396a5.392 5.392 0 002.394-4.482v-4.358a4.1 4.1 0 00-.834-2.482h7.952a4.11 4.11 0 00-.834 2.482v4.358c0 1.81.906 3.486 2.395 4.482v1.396h-.614zM7.994 42.899v-.014a.819.819 0 00-.428-.71 3.757 3.757 0 01-1.935-2.822 5.372 5.372 0 003.722 1.496c1.443 0 2.754-.57 3.722-1.497a3.756 3.756 0 01-1.934 2.824.82.82 0 00-.429.723v2.672c0 .246-.2.447-.446.447H8.442a.448.448 0 01-.447-.447V42.9zM5.6 34.516a2.485 2.485 0 012.482-2.482h2.542a2.484 2.484 0 012.483 2.482v.94a3.758 3.758 0 01-3.754 3.754A3.757 3.757 0 015.6 35.473v-.957zm17.068 0c0-.256.039-.504.111-.737l.025-.072.015-.043a2.496 2.496 0 011.478-1.48c.014-.004.029-.008.044-.014l.071-.024a2.46 2.46 0 01.738-.111h2.543a2.468 2.468 0 01.559.064l.06.014a2.486 2.486 0 011.863 2.404v.94a3.758 3.758 0 01-3.754 3.753 3.757 3.757 0 01-3.753-3.749v-.945zm2.394 8.383v-.006a.818.818 0 00-.428-.717 3.757 3.757 0 01-1.935-2.823 5.372 5.372 0 003.722 1.496 5.37 5.37 0 003.722-1.496 3.755 3.755 0 01-1.935 2.823.818.818 0 00-.428.716v2.68c0 .247-.2.447-.447.447H25.51a.447.447 0 01-.447-.447V42.9zM16.684 54h-2.527v-1.816a.819.819 0 10-1.638 0V54h-6.27v-1.816a.819.819 0 10-1.639 0V54H2.023a.384.384 0 01-.385-.383v-3.12a4.11 4.11 0 014.106-4.105h.78a2.088 2.088 0 001.918 1.266h1.824c.86 0 1.599-.522 1.918-1.266h.78a4.11 4.11 0 014.105 4.105v3.12a.385.385 0 01-.385.383zm17.452-.384a.384.384 0 01-.383.384h-2.528v-1.816a.82.82 0 10-1.638 0V54h-6.27v-1.816a.82.82 0 10-1.639 0V54h-2.587a.384.384 0 01-.384-.384v-3.12a4.11 4.11 0 014.104-4.104h.782a2.089 2.089 0 001.917 1.266h1.824c.86 0 1.598-.523 1.917-1.266h.781a4.11 4.11 0 014.104 4.105v3.12zm16.115-5.755a4.11 4.11 0 01.957 2.636v3.12a.384.384 0 01-.384.383h-2.528v-1.816a.82.82 0 10-1.638 0V54h-6.27v-1.816a.82.82 0 00-1.64 0V54h-2.586a.384.384 0 01-.384-.384v-3.12a4.11 4.11 0 014.105-4.105h.781a2.086 2.086 0 001.916 1.266h1.825c.86 0 1.598-.522 1.917-1.266h.781c1.218 0 2.365.536 3.148 1.47zm-4.597-5.917a3.917 3.917 0 01-.33.209.942.942 0 00-.445.577c-.018.02-.027.063-.027.136v2.706c0 .246-.2.447-.447.447h-1.824a.446.446 0 01-.414-.28.827.827 0 00-.033-.446v-2.4l-.001-.03a.684.684 0 00-.004-.054c0-.009-.002-.018-.003-.026l-.004-.02a.816.816 0 00-.426-.592 3.62 3.62 0 01-1.927-2.82 5.372 5.372 0 003.724 1.499 5.37 5.37 0 003.722-1.496 3.763 3.763 0 01-1.56 2.59zm8.707-14.116a2.555 2.555 0 01-2.551 2.552h-.112v-9.552a.82.82 0 10-1.639 0v9.552H42.5V19.106c0-.627-.51-1.137-1.136-1.137H28.318a1.22 1.22 0 01-1.219-1.218v-1.276h17.2a2.865 2.865 0 002.72 2.003c1.27 0 2.357-.846 2.721-2.003h1.968a2.656 2.656 0 012.654 2.654v9.698z"/></g><defs><clipPath id="clip0_852_4890"><path fill="#fff" d="M0 0h56v56H0z"/></clipPath></defs></svg>