<svg width="56" height="56" fill="none" xmlns="http://www.w3.org/2000/svg"><path d="M49 30.538v-1.75a.875.875 0 00.875-.875v-5.25a.875.875 0 00-.875-.875h-4.725l-.17-.658a16.17 16.17 0 00-1.785-4.275l-.35-.585 3.355-3.361a.867.867 0 000-1.225l-3.716-3.722a.888.888 0 00-1.225 0l-3.361 3.361-.585-.35a16.204 16.204 0 00-4.281-1.786l-.657-.17v-4.73a.875.875 0 00-.875-.875h-5.25a.875.875 0 00-.875.875v4.725l-.657.17a16.203 16.203 0 00-4.276 1.784l-.586.35-3.36-3.354a.888.888 0 00-1.229 0l-3.717 3.716a.87.87 0 000 1.231l3.36 3.36-.35.586a16.169 16.169 0 00-1.784 4.275l-.172.658H7a.875.875 0 00-.875.875v5.25c0 .483.392.875.875.875v1.75a2.625 2.625 0 01-2.625-2.625v-5.25A2.625 2.625 0 017 20.038h3.386c.36-1.21.849-2.379 1.456-3.486l-2.407-2.406a2.617 2.617 0 010-3.705l3.72-3.718a2.68 2.68 0 013.705 0l2.405 2.405a17.873 17.873 0 013.485-1.454V4.287a2.625 2.625 0 012.625-2.625h5.25a2.625 2.625 0 012.625 2.625v3.387c1.21.36 2.378.848 3.485 1.455l2.406-2.406a2.68 2.68 0 013.706 0l3.718 3.718a2.617 2.617 0 010 3.704l-2.406 2.407a17.935 17.935 0 011.456 3.486H49a2.625 2.625 0 012.625 2.625v5.25A2.625 2.625 0 0149 30.538z" fill="#1397DE"/><path d="M40.25 25.288H38.5c0-5.8-4.701-10.5-10.5-10.5s-10.5 4.7-10.5 10.5h-1.75c0-6.766 5.485-12.25 12.25-12.25s12.25 5.484 12.25 12.25z" fill="#1397DE"/><path d="M28 32.288a5.25 5.25 0 110-10.501 5.25 5.25 0 010 10.5zm0-8.75a3.5 3.5 0 100 7 3.5 3.5 0 000-7zm14.875 12.25a5.25 5.25 0 110-10.501 5.25 5.25 0 010 10.5zm0-8.75a3.5 3.5 0 100 7 3.5 3.5 0 000-7zm-29.75 8.75a5.25 5.25 0 110-10.501 5.25 5.25 0 010 10.5zm0-8.75a3.5 3.5 0 100 7 3.5 3.5 0 000-7z" fill="#1397DE"/><path d="M50.807 38.032a7.788 7.788 0 00-4.432-1.37h-7a7.85 7.85 0 00-1.27.116 7.851 7.851 0 00-2.142-2.224 3.399 3.399 0 00-.404-.262 7.814 7.814 0 00-4.059-1.13h-7a7.787 7.787 0 00-6.603 3.616 7.868 7.868 0 00-1.272-.115h-7a7.788 7.788 0 00-4.43 1.368 7.875 7.875 0 00-3.445 6.507v3.5a6.13 6.13 0 003.563 5.56 5.94 5.94 0 002.562.565h8.75v-1.75H8.75v-9.625H7v9.537a4.108 4.108 0 01-.953-.317 4.382 4.382 0 01-2.547-3.97v-3.5a6.131 6.131 0 012.683-5.063 6.053 6.053 0 013.442-1.063h7c.154 0 .303.017.453.027a7.876 7.876 0 00-.453 2.599v8.75A4.38 4.38 0 0021 54.163h2.625v-14h-1.75v12.25H21a2.625 2.625 0 01-2.625-2.625v-8.75a6.125 6.125 0 016.125-6.125h7c1.126 0 2.23.312 3.19.9a6.199 6.199 0 012.217 2.35c.47.885.718 1.872.718 2.875v8.75A2.625 2.625 0 0135 52.413h-.875v-12.25h-1.75v14H35a4.38 4.38 0 004.375-4.375v-8.75a7.894 7.894 0 00-.453-2.599c.151-.01.3-.026.453-.026h7a6.056 6.056 0 013.445 1.063 6.133 6.133 0 012.68 5.062v3.5a4.381 4.381 0 01-2.562 3.977 4.025 4.025 0 01-.938.31v-9.538h-1.75v9.626h-7.875v1.75h8.75a5.93 5.93 0 002.547-.559 6.133 6.133 0 003.578-5.566v-3.5a7.875 7.875 0 00-3.443-6.506z" fill="#1397DE"/><path d="M24.5 52.413h7v1.75h-7v-1.75z" fill="#1397DE"/></svg>