<svg width="40" height="40" fill="none" xmlns="http://www.w3.org/2000/svg"><path d="M6.667 16.977h8.666a.667.667 0 100-1.334H6.667a.667.667 0 100 1.334zM24 19.643H6.667a.667.667 0 100 1.334H24a.667.667 0 100-1.334zm0 4H6.667a.667.667 0 100 1.334H24a.667.667 0 100-1.334z" fill="#1397DE"/><path d="M36.048 1.69l-22.761-.047a3.958 3.958 0 00-3.954 3.954v3.416l-5.38.011A3.958 3.958 0 000 12.977v14.094a3.957 3.957 0 003.953 3.953H8v6.667a.667.667 0 001.16.448l6.47-7.116 11.083-.046a3.958 3.958 0 003.954-3.952v-.076l3.506 3.858a.668.668 0 001.16-.449v-6.667h.714A3.957 3.957 0 0040 19.74V5.643a3.958 3.958 0 00-3.952-3.953zm-6.715 25.334a2.623 2.623 0 01-2.622 2.62l-11.38.046a.667.667 0 00-.491.218l-5.507 6.058v-5.61a.667.667 0 00-.666-.666H3.953a2.623 2.623 0 01-2.62-2.62V12.978a2.623 2.623 0 012.622-2.62L10 10.344h.001l16.712-.035a2.623 2.623 0 012.62 2.62v14.095zm9.334-7.287a2.622 2.622 0 01-2.62 2.62h-1.38a.666.666 0 00-.667.666v5.61l-3.333-3.667V12.93a3.958 3.958 0 00-3.955-3.953l-16.045.032V5.596a2.623 2.623 0 012.618-2.62l22.761.047h.001a2.623 2.623 0 012.62 2.62v14.094z" fill="#1397DE"/></svg>