<svg width="40" height="40" fill="none" xmlns="http://www.w3.org/2000/svg"><g clip-path="url(#clip0_839_1328)"><mask id="a" style="mask-type:luminance" maskUnits="userSpaceOnUse" x="0" y="0" width="40" height="40"><path d="M0 0h40v40H0V0z" fill="#fff"/></mask><g mask="url(#a)" stroke="#1397DE" stroke-width="1.5" stroke-miterlimit="10" stroke-linecap="round" stroke-linejoin="round"><path d="M6.966 7.724a18.675 18.675 0 012.155-2.098M2.843 15.792a18.557 18.557 0 012.329-5.644m3.833 24.13a18.611 18.611 0 01-6.627-14.929m27.489 16.937a18.37 18.37 0 01-8.976 2.328c-3.246 0-6.296-.839-8.95-2.312m24.656-26.174A18.594 18.594 0 0139.414 20a18.61 18.61 0 01-6.62 14.263m-.298-28.772c.685.554 1.33 1.157 1.93 1.802M12.058 3.635a18.37 18.37 0 018.833-2.249c3.116 0 6.053.773 8.63 2.14m-7.079 4.367a26.08 26.08 0 016.854-3M14.852 15.07a26.367 26.367 0 014.714-5.103M10.22 33.501a26.36 26.36 0 012.768-15.364M19.34 7.893a26.089 26.089 0 00-7.106-3.068m17.241 14.728a26.448 26.448 0 00-7.26-9.586m9.261 16.463a26.385 26.385 0 00-.77-3.52m.844 10.68a26.59 26.59 0 00.205-3.723M12.177 16.23a35.87 35.87 0 00-8.084.884m24.512 3.219a35.84 35.84 0 00-12.878-3.906m22.192 10.911a36.108 36.108 0 00-6.242-5.196m-.628-2.486a36.018 36.018 0 004.058-9.185m-22.93 24.264a36.113 36.113 0 0016.846-12.151"/><path d="M20.89 10.562a1.788 1.788 0 01-1.78-1.79c0-.988.798-1.79 1.78-1.79.983 0 1.782.802 1.782 1.79 0 .987-.799 1.79-1.781 1.79zm-6.931 7.865a1.788 1.788 0 01-1.782-1.79c0-.988.8-1.79 1.782-1.79s1.78.803 1.78 1.79c0 .986-.798 1.79-1.78 1.79zm16.201 4.569a1.788 1.788 0 01-1.782-1.79c0-.987.799-1.79 1.781-1.79.983 0 1.782.803 1.782 1.79s-.8 1.79-1.782 1.79zM10.486 37.061a1.788 1.788 0 01-1.78-1.79c0-.987.798-1.79 1.78-1.79.983 0 1.782.803 1.782 1.79s-.8 1.79-1.782 1.79zm20.912.102a1.788 1.788 0 01-1.782-1.79c0-.987.8-1.79 1.782-1.79s1.78.803 1.78 1.79-.798 1.79-1.78 1.79zM35.55 10.47a1.788 1.788 0 01-1.78-1.79c0-.986.799-1.79 1.78-1.79.983 0 1.782.804 1.782 1.79 0 .988-.799 1.79-1.781 1.79zm-4.521-4.203a1.788 1.788 0 01-1.781-1.79c0-.987.799-1.79 1.78-1.79.983 0 1.782.803 1.782 1.79s-.799 1.79-1.781 1.79zm-20.543 0a1.788 1.788 0 01-1.78-1.79c0-.987.798-1.79 1.78-1.79.983 0 1.782.803 1.782 1.79s-.8 1.79-1.782 1.79zM2.367 19.349a1.788 1.788 0 01-1.781-1.79c0-.987.799-1.79 1.781-1.79.983 0 1.782.803 1.782 1.79s-.8 1.79-1.782 1.79z"/></g></g><defs><clipPath id="clip0_839_1328"><path fill="#fff" d="M0 0h40v40H0z"/></clipPath></defs></svg>