<svg width="40" height="40" fill="none" xmlns="http://www.w3.org/2000/svg"><g clip-path="url(#clip0_839_1296)" fill="#1397DE"><path d="M37.5 17.5a.834.834 0 01-.834-.833 18.21 18.21 0 00-5.37-12.964.834.834 0 011.179-1.178 19.861 19.861 0 015.858 14.142c0 .46-.373.833-.833.833zm-35 0a.834.834 0 01-.833-.833c0-5.344 2.08-10.365 5.858-14.142a.834.834 0 011.178 1.178 18.21 18.21 0 00-5.37 12.964c0 .46-.373.833-.833.833zm20-10.533a.834.834 0 01-.834-.834v-2.8A1.67 1.67 0 0020 1.667a1.67 1.67 0 00-1.667 1.666v2.8a.834.834 0 01-1.666 0v-2.8A3.337 3.337 0 0120 0a3.337 3.337 0 013.333 3.333v2.8a.833.833 0 01-.833.834zM20 40a5.84 5.84 0 01-5.834-5.833.834.834 0 011.667 0A4.172 4.172 0 0020 38.333a4.172 4.172 0 004.166-4.166.834.834 0 011.667 0A5.84 5.84 0 0120 40z"/><path d="M34.167 35H5.833a2.503 2.503 0 01-2.5-2.5 2.5 2.5 0 01.875-1.9 11.587 11.587 0 004.126-8.87v-5.063C8.334 10.233 13.567 5 20 5c6.433 0 11.667 5.233 11.667 11.667v5.063c0 3.422 1.498 6.65 4.111 8.858.57.489.889 1.18.889 1.912 0 1.378-1.12 2.5-2.5 2.5zM20 6.667c-5.515 0-10 4.485-10 10v5.063a13.24 13.24 0 01-4.702 10.132.834.834 0 00.535 1.472h28.334a.834.834 0 00.541-1.467A13.251 13.251 0 0130 21.73v-5.063c0-5.515-4.485-10-10-10z"/></g><defs><clipPath id="clip0_839_1296"><path fill="#fff" d="M0 0h40v40H0z"/></clipPath></defs></svg>