<svg width="40" height="40" fill="none" xmlns="http://www.w3.org/2000/svg"><path d="M10.571 15.747a.671.671 0 00.204.482.696.696 0 00.492.2h4.073a.708.708 0 00.493-.2.68.68 0 00.203-.482v-3.37a3.964 3.964 0 002.33-1.325 3.82 3.82 0 00.92-2.48 3.82 3.82 0 00-.92-2.482 3.964 3.964 0 00-2.33-1.325V1.396a.67.67 0 00-.203-.482.697.697 0 00-.493-.2H3.063a3.104 3.104 0 00-2.165.88A2.974 2.974 0 000 3.715v12.032a.67.67 0 00.204.482.696.696 0 00.492.2h4.073a.708.708 0 00.492-.2.68.68 0 00.204-.482c.007-.66.28-1.288.758-1.752a2.58 2.58 0 011.795-.723c.673 0 1.318.26 1.796.723.478.464.75 1.093.757 1.752zm-6.436-.682H1.392V3.715c0-.434.177-.85.49-1.157a1.69 1.69 0 011.18-.48h11.583v3.31a.67.67 0 00.203.482.696.696 0 00.492.2 2.58 2.58 0 011.787.742c.473.468.738 1.1.738 1.76 0 .658-.265 1.29-.738 1.758a2.578 2.578 0 01-1.787.743.708.708 0 00-.492.2.683.683 0 00-.204.482v3.31h-2.742a3.857 3.857 0 00-1.36-2.266 4.001 4.001 0 00-2.524-.893 4 4 0 00-2.523.893 3.857 3.857 0 00-1.36 2.266z" fill="#1397DE"/><path d="M35.505 7.857h-12.29a.702.702 0 00-.645.426.686.686 0 00-.053.265v4.04a.685.685 0 00.43.639.702.702 0 00.267.052 2.568 2.568 0 011.79.752 2.522 2.522 0 010 3.563 2.567 2.567 0 01-1.79.751.703.703 0 00-.643.427.686.686 0 00-.054.264v2.91h-2.745a3.907 3.907 0 00-1.354-2.311 3.971 3.971 0 00-2.534-.912 3.97 3.97 0 00-2.534.912 3.907 3.907 0 00-1.354 2.311H8.554a.702.702 0 00-.644.426.685.685 0 00-.053.265v12.182c0 .805.324 1.578.899 2.147.575.57 1.354.89 2.167.891h24.582c.813 0 1.592-.321 2.167-.89.575-.57.898-1.343.9-2.148V10.896a3.034 3.034 0 00-.9-2.148 3.083 3.083 0 00-2.167-.89zm-8.342 7.956a3.9 3.9 0 00-.921-2.511 3.963 3.963 0 00-2.331-1.343v-2.72h11.594c.444 0 .869.174 1.182.485.314.31.49.732.49 1.172v11.05h-3.38a.703.703 0 00-.644.426.684.684 0 00-.053.265 2.522 2.522 0 01-.758 1.773 2.568 2.568 0 01-3.595 0 2.522 2.522 0 01-.759-1.773.686.686 0 00-.43-.638.704.704 0 00-.266-.053H23.91v-2.28a3.963 3.963 0 002.33-1.343 3.9 3.9 0 00.922-2.51zM9.25 34.819V23.327h3.381a.7.7 0 00.644-.426.686.686 0 00.053-.264 2.523 2.523 0 01.75-1.789 2.568 2.568 0 011.806-.74 2.57 2.57 0 011.806.74c.479.474.749 1.118.75 1.789a.686.686 0 00.43.638.7.7 0 00.266.052h3.381v2.722a3.958 3.958 0 00-2.332 1.34 3.894 3.894 0 00-.92 2.513c0 .918.325 1.808.92 2.512a3.958 3.958 0 002.332 1.341v2.721H10.923a1.68 1.68 0 01-1.182-.486 1.652 1.652 0 01-.49-1.171zm26.255 1.657H23.911v-3.35a.684.684 0 00-.43-.639.702.702 0 00-.267-.052 2.568 2.568 0 01-1.807-.742 2.522 2.522 0 01-.749-1.791c0-.672.27-1.316.749-1.791a2.568 2.568 0 011.807-.742.7.7 0 00.644-.426.684.684 0 00.053-.265v-2.91h2.746a3.907 3.907 0 001.353 2.311 3.974 3.974 0 005.069 0 3.907 3.907 0 001.353-2.312h2.746V34.82c0 .44-.177.86-.49 1.171-.314.31-.74.486-1.183.486z" fill="#1397DE"/></svg>