<svg width="16" height="56" fill="none" xmlns="http://www.w3.org/2000/svg"><path d="M9.95 55.432c-.38.757-1.61.757-1.988 0-3.219-5.87-6.153-11.833-7.857-18.27-.19-.947.852-1.893 1.704-1.325 1.893 1.325 3.502 2.934 4.922 4.828-.379-13.253-2.177-26.98.947-40.043.189-.946 1.798-.757 1.703.19-1.703 13.537-.378 26.979-.189 40.516 1.61-1.42 3.219-2.84 4.733-4.26.663-.663 2.083-.284 1.988.852-.757 6.247-2.84 12.116-5.964 17.512zM8.907 44.167c-.568.852-2.177.663-2.177-.663v-.189c-1.136-1.136-2.177-2.272-3.408-3.408 1.515 4.355 3.408 8.425 5.585 12.496 1.893-3.692 3.313-7.478 4.07-11.549-1.04.947-2.177 1.893-3.218 2.934-.19.38-.568.474-.852.38z" fill="#0072AF"/></svg>