<svg width="58" height="90" fill="none" xmlns="http://www.w3.org/2000/svg"><path d="M3.669 8.78a.923.923 0 01-.254-1.811 42.722 42.722 0 011.83-.464.923.923 0 11.413 1.798 40.4 40.4 0 00-1.75.445c-.08.02-.16.031-.24.032z" fill="#4E5960"/><path d="M4.55 7.61a.918.918 0 01.692-1.1.933.933 0 011.113.691.933.933 0 01-.692 1.101c-.073.013-.135.026-.209.027a.93.93 0 01-.904-.718zm10.46 82.089a43.25 43.25 0 01-2.841-.074.911.911 0 01-.87-.927v-.05a.924.924 0 01.977-.869c1.206.076 2.411.09 3.616.055h.037a.933.933 0 01.93.89.924.924 0 01-.901.954c-.295.015-.603.018-.947.02zm4.635-.3a.919.919 0 01-.917-.815c-.013-.037-.013-.062-.013-.099a.92.92 0 01.804-.93 41.022 41.022 0 003.574-.596s.012 0 .012-.013a.943.943 0 011.101.716c.013.062.013.123.014.185a.91.91 0 01-.73.904c-1.228.27-2.48.49-3.734.636-.037 0-.074.013-.11.013zm-11.108-.16c-.05 0-.099 0-.148-.011h-.037c-.012-.012-.025-.012-.037-.012a.922.922 0 01-.606-.364.965.965 0 01-.166-.687.922.922 0 011.051-.772h.037c.013.012.025.012.037.012h.013a.91.91 0 01.758.903l.001.148a.925.925 0 01-.903.783zM26.9 87.836a.923.923 0 01-.89-.644.934.934 0 01.617-1.162 40.496 40.496 0 003.408-1.223c.466-.189 1.021.04 1.21.494a.97.97 0 01.065.368.906.906 0 01-.571.841 45.628 45.628 0 01-3.568 1.286.958.958 0 01-.27.04zm6.864-2.828a.912.912 0 01-.829-.497.848.848 0 01-.101-.393.908.908 0 01.496-.84 43.795 43.795 0 003.146-1.824.927.927 0 011.27.272c.087.147.137.306.15.478a.928.928 0 01-.423.791 39.583 39.583 0 01-3.292 1.91.808.808 0 01-.417.103zm6.25-4.015a.898.898 0 01-.74-.35.883.883 0 01-.19-.553.881.881 0 01.35-.74c.94-.735 1.869-1.53 2.76-2.362.353-.335.968-.316 1.304.05.16.159.249.38.251.613a.93.93 0 01-.29.68 40.345 40.345 0 01-2.893 2.472.908.908 0 01-.552.19zm5.405-5.066a.908.908 0 01-.617-.241.897.897 0 01-.073-1.29 40.715 40.715 0 002.276-2.813l.012-.013a.946.946 0 011.29-.195.95.95 0 01.375.747.873.873 0 01-.18.543 39.197 39.197 0 01-2.397 2.948.904.904 0 01-.686.314zm4.425-5.968a.874.874 0 01-.493-.13.929.929 0 01-.306-1.265 40.234 40.234 0 001.755-3.19c.218-.444.782-.633 1.24-.416a.917.917 0 01.51.832.897.897 0 01-.094.407 47.745 47.745 0 01-1.828 3.325.928.928 0 01-.784.437zm3.288-6.646a.824.824 0 01-.345-.071.906.906 0 01-.586-.831.871.871 0 01.059-.358 37.677 37.677 0 001.15-3.442.956.956 0 011.151-.637.912.912 0 01.66.868c0 .086-.011.184-.035.27a41.246 41.246 0 01-1.21 3.603.903.903 0 01-.844.598zm2.04-7.14a.95.95 0 01-.184-.023.91.91 0 01-.746-.892c0-.061-.001-.123.01-.184.224-1.17.398-2.39.523-3.596a.906.906 0 011.001-.821.92.92 0 01.845.903c0 .037-.012.074-.012.098a39.523 39.523 0 01-.545 3.757.931.931 0 01-.891.758zm.723-7.387a.927.927 0 01-.93-.939l-.006-.615a40.801 40.801 0 00-.137-3.012v-.099a.918.918 0 01.84-.893.904.904 0 01.991.828c.013 0 .013.012.013.012v.062c.083 1.02.129 2.053.138 3.086l.005.64a.93.93 0 01-.914.93zm-.63-7.4a.922.922 0 01-.905-.766 44.617 44.617 0 00-.794-3.548.719.719 0 01-.026-.234.896.896 0 01.68-.891.92.92 0 011.126.642c.33 1.24.612 2.48.82 3.708.012.049.012.098.013.135a.909.909 0 01-.755.941c-.049 0-.11.013-.16.014zm-1.933-7.166a.925.925 0 01-.866-.607 38.423 38.423 0 00-1.407-3.346.965.965 0 01-.09-.405.908.908 0 01.522-.829.942.942 0 011.234.445 41.121 41.121 0 011.47 3.492c.037.11.05.209.052.32a.918.918 0 01-.596.866.921.921 0 01-.319.064zm-3.17-6.713a.914.914 0 01-.804-.448 43.176 43.176 0 00-1.983-3.045.869.869 0 01-.176-.515.9.9 0 01.374-.766c.404-.287 1.007-.194 1.294.21a42.62 42.62 0 012.082 3.18.9.9 0 01.127.478.928.928 0 01-.46.78.845.845 0 01-.455.126zm-4.334-6.026a.943.943 0 01-.716-.313 35.604 35.604 0 00-2.495-2.623.99.99 0 01-.29-.65.973.973 0 01.266-.666.952.952 0 011.303-.024 42.356 42.356 0 012.608 2.757.85.85 0 01.226.576.91.91 0 01-.313.729.935.935 0 01-.589.214zM40.47 16.35a.902.902 0 01-.58-.205 41.335 41.335 0 00-2.921-2.139h-.013a.93.93 0 01-.412-.771.822.822 0 01.155-.506c.267-.408.869-.536 1.277-.27a45.714 45.714 0 013.07 2.25c.211.17.336.427.339.698a.91.91 0 01-.204.592.892.892 0 01-.71.35zm-6.186-4.104a.92.92 0 01-.444-.119c-1.05-.569-2.15-1.1-3.273-1.583a.907.907 0 01-.549-.856.927.927 0 01.07-.357c.194-.445.758-.671 1.214-.478a41.53 41.53 0 013.41 1.655.907.907 0 01.487.808.91.91 0 01-.107.443.931.931 0 01-.808.487zM27.47 9.305c-.099 0-.197-.011-.296-.035a36.736 36.736 0 00-3.502-.978.92.92 0 01-.709-.88c0-.073-.001-.147.023-.233.106-.48.608-.793 1.1-.686 1.233.284 2.466.63 3.663 1.013a.927.927 0 01.635.893.641.641 0 01-.047.27.912.912 0 01-.867.636zm-7.235-1.66c-.05.001-.086.002-.136-.01a39.118 39.118 0 00-3.619-.325.929.929 0 01-.881-.915v-.05a.938.938 0 01.963-.881 44.39 44.39 0 013.792.348.913.913 0 01.784 1.039.926.926 0 01-.903.795zm-11.12.012a.908.908 0 01-.917-.804.915.915 0 01.778-1.04c1.24-.17 2.507-.28 3.786-.34h.036a.922.922 0 01.93.877l.001.049a.906.906 0 01-.865.905c0 .013-.012.013-.012.013h-.062c-1.18.06-2.385.169-3.552.327a.481.481 0 01-.123.013z" fill="#4E5960"/><path d="M8.462 89.228c-.05 0-.1-.002-.15-.01a42.269 42.269 0 01-1.856-.328.922.922 0 11.362-1.81c.589.118 1.18.222 1.775.314a.92.92 0 01.772 1.051.924.924 0 01-.903.783zm1.031-76.32a.914.914 0 01-.405-.09L1.485 9.184A.922.922 0 011.13 7.82l4.727-6.735a.922.922 0 111.51 1.06l-4.1 5.844 6.62 3.166a.922.922 0 01-.393 1.753z" fill="#4E5960"/></svg>