<svg width="51" height="76" fill="none" xmlns="http://www.w3.org/2000/svg"><path d="M7.739 7.454a.74.74 0 01-.067-1.465c.498-.09.997-.167 1.494-.234a.74.74 0 11.196 1.467c-.477.064-.953.14-1.43.224a.814.814 0 01-.193.008z" fill="#4E5960"/><path d="M8.53 6.586a.736.736 0 01.634-.827c.4-.055.773.224.837.635a.748.748 0 01-.634.827c-.06.005-.11.01-.169.006a.745.745 0 01-.668-.64zM10.764 72.9a34.919 34.919 0 01-2.264-.27.73.73 0 01-.625-.806l.004-.039a.74.74 0 01.844-.621c.957.15 1.919.25 2.883.313l.03.002c.393.033.7.386.676.78a.74.74 0 01-.79.695 16.96 16.96 0 01-.758-.054zm3.722.107a.737.737 0 01-.672-.72.218.218 0 01-.003-.08.738.738 0 01.711-.682 32.905 32.905 0 002.898-.21s.01 0 .01-.01c.4-.045.78.255.826.654.006.05.002.1-.002.149a.73.73 0 01-.65.667c-1 .124-2.017.206-3.029.23-.03-.003-.06.004-.089.002zm-8.857-.957c-.039-.003-.078-.006-.117-.02l-.03-.002c-.008-.01-.018-.012-.028-.012a.739.739 0 01-.456-.336.774.774 0 01-.082-.561.74.74 0 01.897-.538l.03.003c.008.01.018.011.028.012h.01a.73.73 0 01.538.779l-.01.118a.741.741 0 01-.78.557zm14.766.249a.74.74 0 01-.663-.581.749.749 0 01.58-.881 32.3 32.3 0 002.811-.723.758.758 0 01.93.485c.03.101.032.2.024.299a.727.727 0 01-.519.629c-.965.294-1.956.547-2.944.76a.765.765 0 01-.219.012zm5.69-1.746a.732.732 0 01-.624-.459.728.728 0 01.407-.955c.902-.37 1.799-.788 2.647-1.221a.743.743 0 01.993.311.877.877 0 01.086.393.744.744 0 01-.397.6c-.891.47-1.828.895-2.77 1.28a.65.65 0 01-.342.05zm5.29-2.74a.72.72 0 01-.566-.335.708.708 0 01-.11-.455.707.707 0 01.335-.565 32.993 32.993 0 002.379-1.68.755.755 0 011.037.137c.117.139.17.322.155.508a.746.746 0 01-.281.52 32.354 32.354 0 01-2.495 1.76.728.728 0 01-.454.11zm4.692-3.642a.729.729 0 01-.475-.238.72.72 0 01.038-1.036 32.646 32.646 0 002.026-2.075l.011-.01a.758.758 0 011.044-.06.761.761 0 01.245.625.7.7 0 01-.184.42 31.42 31.42 0 01-2.134 2.175.725.725 0 01-.571.2zm3.977-4.434a.701.701 0 01-.384-.142.744.744 0 01-.15-1.032 32.256 32.256 0 001.64-2.415.754.754 0 011.02-.24c.244.15.37.417.346.702a.72.72 0 01-.106.318 38.326 38.326 0 01-1.708 2.518.744.744 0 01-.658.29zm3.12-5.061a.662.662 0 01-.27-.083.727.727 0 01-.405-.707.7.7 0 01.073-.28c.43-.865.832-1.761 1.175-2.663a.767.767 0 01.966-.423.73.73 0 01.462.742.82.82 0 01-.048.214 33.092 33.092 0 01-1.235 2.785.724.724 0 01-.718.415zm2.161-5.548a.763.763 0 01-.145-.032.73.73 0 01-.53-.767c.005-.05.009-.099.023-.147.266-.918.495-1.878.685-2.832a.726.726 0 01.86-.58c.38.07.639.41.607.783-.002.03-.015.058-.016.078a31.656 31.656 0 01-.715 2.958.747.747 0 01-.769.539zm1.128-5.843a.743.743 0 01-.673-.82l.041-.49c.068-.806.107-1.615.115-2.416l.007-.078a.736.736 0 01.738-.65.725.725 0 01.73.734c.01 0 .008.01.008.01l-.004.05c-.01.82-.05 1.648-.12 2.474l-.043.51a.745.745 0 01-.8.676zm.048-5.954a.74.74 0 01-.665-.68 35.8 35.8 0 00-.37-2.892.561.561 0 01-.003-.188.718.718 0 01.61-.661.738.738 0 01.85.596c.172 1.014.304 2.025.378 3.021.007.04.003.08 0 .11a.728.728 0 01-.672.694c-.039-.003-.089.003-.128 0zm-1.009-5.866a.741.741 0 01-.646-.55 30.787 30.787 0 00-.874-2.775.775.775 0 01-.042-.33.728.728 0 01.479-.623.756.756 0 01.952.447c.345.95.658 1.926.913 2.898.022.09.025.17.017.258a.737.737 0 01-.54.648.74.74 0 01-.259.027zm-2.031-5.595a.733.733 0 01-.608-.418 34.62 34.62 0 00-1.356-2.579.697.697 0 01-.102-.424.722.722 0 01.356-.584.761.761 0 011.017.264c.519.885.997 1.787 1.425 2.694.06.114.077.254.066.392a.744.744 0 01-.426.587.676.676 0 01-.372.068zm-3.01-5.134a.757.757 0 01-.549-.304 28.537 28.537 0 00-1.797-2.28.793.793 0 01-.181-.54.78.78 0 01.26-.512.763.763 0 011.043.078 33.962 33.962 0 011.876 2.396c.107.137.152.31.138.476a.73.73 0 01-.305.559.75.75 0 01-.485.127zm-3.896-4.496a.723.723 0 01-.448-.206 33.144 33.144 0 00-2.173-1.926h-.01a.745.745 0 01-.272-.647.659.659 0 01.162-.392.763.763 0 011.04-.12 36.43 36.43 0 012.283 2.024.73.73 0 01.218.582.73.73 0 01-.207.458.715.715 0 01-.593.227zm-4.633-3.737a.738.738 0 01-.345-.128 32.169 32.169 0 00-2.496-1.508.727.727 0 01-.374-.724.745.745 0 01.083-.28.763.763 0 011.004-.291 33.296 33.296 0 012.599 1.575c.235.149.35.416.328.681a.73.73 0 01-.118.346.747.747 0 01-.68.329zM26.7 9.647a.972.972 0 01-.233-.05 29.467 29.467 0 00-2.723-1.042.738.738 0 01-.5-.755.642.642 0 01.035-.185.746.746 0 01.93-.465c.963.319 1.922.687 2.848 1.082a.743.743 0 01.383.972.731.731 0 01-.74.443zm-5.652-1.864a.404.404 0 01-.107-.019 31.367 31.367 0 00-2.865-.529.745.745 0 01-.636-.796l.003-.04a.752.752 0 01.836-.631c.997.143 2.001.327 3 .56.35.08.6.407.569.77a.742.742 0 01-.8.685zm-8.878-.82a.728.728 0 01-.672-.71.734.734 0 01.698-.772 34.086 34.086 0 013.048.01l.03.003a.74.74 0 01.677.77l-.004.039a.726.726 0 01-.758.658c-.001.01-.01.01-.01.01l-.03-.003-.02-.002a34.335 34.335 0 00-2.86-.004.374.374 0 01-.1.001z" fill="#4E5960"/><path d="M5.57 72.036a.694.694 0 01-.118-.02 32.65 32.65 0 01-1.458-.399.74.74 0 11.424-1.418c.462.138.926.265 1.394.383a.738.738 0 01-.242 1.454zm6.511-60.852a.733.733 0 01-.317-.102l-5.798-3.47A.739.739 0 015.783 6.5l4.276-5.025a.74.74 0 111.126.958l-3.709 4.36 5.049 3.021a.74.74 0 01-.444 1.371z" fill="#4E5960"/></svg>