<svg width="24" height="22" fill="none" xmlns="http://www.w3.org/2000/svg"><path d="M6.563 4.719V2.63c0-.83.68-1.51 1.51-1.51h7.854c.83 0 1.51.68 1.51 1.51v2.09m4.923 6.749v8.004a1.41 1.41 0 01-1.407 1.406H3.047a1.41 1.41 0 01-1.406-1.406v-7.957" stroke="#4E5960" stroke-width="1.5" stroke-miterlimit="22.926" stroke-linecap="round" stroke-linejoin="round"/><path d="M10.125 13.836C5.166 13.552.703 12.134.703 9.582V6.254c0-.775.632-1.406 1.406-1.406h19.782a1.41 1.41 0 011.406 1.406v3.328c0 2.568-4.52 3.988-9.516 4.26" stroke="#4E5960" stroke-width="1.5" stroke-miterlimit="22.926" stroke-linecap="round" stroke-linejoin="round"/><path clip-rule="evenodd" d="M10.266 12.441h3.468v1.618c0 .889-.727 1.617-1.617 1.617h-.234c-.89 0-1.617-.728-1.617-1.617V12.44z" stroke="#4E5960" stroke-width="1.5" stroke-miterlimit="22.926" stroke-linecap="round" stroke-linejoin="round"/></svg>