<svg width="56" height="56" fill="none" xmlns="http://www.w3.org/2000/svg"><g clip-path="url(#clip0_841_1497)" fill="#1397DE"><path d="M7 31.027H2.45A2.45 2.45 0 000 33.477V53.55A2.45 2.45 0 002.45 56H7a2.45 2.45 0 002.45-2.45v-.096h26.723a14.875 14.875 0 0013.02-7.709l6.702-12.25a.813.813 0 00.105-.402 3.72 3.72 0 00-6.825-2.048l-6.037 9.205a6.248 6.248 0 01-2.625 2.231 4.016 4.016 0 00-.875-4.725 4.077 4.077 0 00-3.063-1.05c-5.014.403-10.78.359-15.619-3.045a8.75 8.75 0 00-10.377.394L9.406 35v-1.523A2.459 2.459 0 007 31.027zm.753 5.644V53.55a.752.752 0 01-.753.753H2.45a.743.743 0 01-.753-.753V33.478a.752.752 0 01.753-.753H7a.761.761 0 01.753.752v3.194zm3.928-1.286a7.192 7.192 0 018.427-.315c5.25 3.701 11.672 3.71 16.625 3.307a2.285 2.285 0 011.75.613 2.31 2.31 0 01.065 3.353 2.336 2.336 0 01-1.65.68h-15.25a.873.873 0 00-1 1.233.873.873 0 001 .465h15.277c.236-.01.47-.042.7-.096a.78.78 0 00.315.061 7.876 7.876 0 006.606-3.552l6.038-9.188a2.021 2.021 0 013.701.875l-6.58 12.102a13.125 13.125 0 01-11.532 6.833H9.405V37.091l2.275-1.706z"/><path d="M10.43 29.453a.875.875 0 00.875.875h33.416a.874.874 0 000-1.698h-.096V12.32a.875.875 0 00-.875-.875h-5.189a.875.875 0 00-.875.875v16.284h-1.872V20.3a.875.875 0 00-.875-.875h-5.163a.875.875 0 00-.875.875v8.304h-1.855V18.043a.875.875 0 00-.875-.875h-5.17a.875.875 0 00-.876.875v10.56h-1.837v-4.856a.875.875 0 00-.875-.875H12.25a.875.875 0 00-.875.875v4.857h-.14a.875.875 0 00-.805.849zm28.945-16.284h3.5v15.435h-3.5V13.169zm-8.75 7.98h3.5v7.455h-3.5v-7.455zm-8.75-2.258h3.5v9.713h-3.5V18.89zm-8.75 5.705h3.5v4.008h-3.5v-4.008z"/><path d="M14.158 12.049a3.326 3.326 0 102.747 1.452l4.585-5.25c.472.25.997.381 1.531.385a3.28 3.28 0 001.951-.647l3.658 2.992a3.325 3.325 0 105.976-.149l4.918-4.707a3.369 3.369 0 10-1.173-1.234l-4.873 4.646a3.307 3.307 0 00-3.78.105l-3.65-2.983c.194-.43.295-.894.298-1.365a3.325 3.325 0 10-6.125 1.802L15.61 12.4a3.247 3.247 0 00-1.452-.35zM41.282 1.697a1.628 1.628 0 11-.027 0h.026zm-9.626 8.995a1.627 1.627 0 110 3.254 1.627 1.627 0 010-3.253zm-8.636-7a1.628 1.628 0 11-1.627 1.628 1.628 1.628 0 011.627-1.654v.026zm-8.864 13.31a1.627 1.627 0 111.593-1.628A1.636 1.636 0 0114.158 17z"/></g><defs><clipPath id="clip0_841_1497"><path fill="#fff" d="M0 0h56v56H0z"/></clipPath></defs></svg>