<svg width="56" height="56" fill="none" xmlns="http://www.w3.org/2000/svg"><g clip-path="url(#clip0_837_310)" fill="#1397DE"><path d="M46.638 35.752c-1.663-.516-3.518-1.25-5.513-2.187a76.628 76.628 0 01-6.221-3.316c1.645-1.776 2.957-4.165 3.745-7.009 1.662-.77 2.896-3.482 3.281-5.381.385-1.943-.044-3.107-.472-3.745a2.882 2.882 0 00-1.365-1.103l.078-2.196c.07-1.54-.166-2.975-.682-4.296V6.5l-.009-.009a9.738 9.738 0 00-1.995-3.132C35.403 1.199 32.42 0 29.076 0h-2.143c-3.343 0-6.327 1.199-8.4 3.369-1.55 1.618-2.442 3.64-2.643 5.897 0 .018-.009.027-.009.044 0 .018.01.026 0 .035-.043.481-.06.962-.035 1.461l.08 2.205a2.902 2.902 0 00-1.366 1.103c-.429.638-.857 1.802-.472 3.745.428 2.17 1.75 4.646 3.272 5.372.779 2.844 2.1 5.241 3.745 7.009a77.63 77.63 0 01-6.212 3.308c-1.995.936-3.85 1.68-5.513 2.187C.228 38.509.123 50.864.123 51.389c0 .376.253.717.62.813C9.784 54.733 18.884 56 27.992 56c9.11 0 18.218-1.269 27.265-3.797a.85.85 0 00.622-.814c0-.525-.105-12.88-9.24-15.637zm-14.7 9.18L31 39.934a.829.829 0 00.455-.604l.648-3.824a.834.834 0 00-.193-.69.827.827 0 00-.647-.298h-6.545a.856.856 0 00-.648.297.898.898 0 00-.192.691l.647 3.824c.044.271.228.49.455.604l-.892 4.769-7.551-10.054a81.797 81.797 0 005.845-3.185c1.68 1.348 3.605 2.109 5.617 2.109 2.013 0 3.938-.761 5.618-2.109a83.639 83.639 0 005.888 3.211L31.937 44.93zm-2.03-6.59h-3.815l-.36-2.126h4.542l-.367 2.127zm-3.203 1.698h2.59l1.269 6.764-2.415 3.281-2.66-3.544 1.216-6.501zM19.758 4.541c1.75-1.837 4.296-2.844 7.175-2.844h2.143c2.87 0 5.417 1.015 7.175 2.844a7.882 7.882 0 011.357 1.934c-10.264 4.76-14.954-.429-15.155-.656a.827.827 0 00-.648-.298.84.84 0 00-.647.298c-1.374 1.61-2.415 2.415-3.448 2.651a7.898 7.898 0 012.048-3.929zm-1.55 17.22c-.682-.122-2.012-1.951-2.458-4.217-.21-1.068-.14-1.943.219-2.468a1.31 1.31 0 01.884-.56.794.794 0 00.14-.026.847.847 0 00.656-.857l-.105-2.888c-.009-.175 0-.35 0-.525 1.715-.175 3.097-1.286 4.322-2.625 1.803 1.514 7.105 4.725 16.345.481.22.84.307 1.742.263 2.678l-.105 2.879a.854.854 0 00.656.857c.044.009.088.018.14.026.385.07.683.263.884.56.35.516.429 1.392.219 2.459-.455 2.275-1.794 4.095-2.468 4.218a.846.846 0 00-.674.63c-1.426 5.678-5.092 9.493-9.117 9.493-4.025 0-7.691-3.815-9.118-9.494a.869.869 0 00-.682-.62zM1.847 50.75c.15-2.468 1.155-11.305 8.024-13.37 1.558-.481 3.281-1.155 5.11-1.986l12.504 16.625c.157.21.411.341.674.341a.854.854 0 00.682-.35l3.325-4.515.009-.009 8.899-12.075c1.81.823 3.526 1.496 5.075 1.978 6.842 2.056 7.866 10.902 8.015 13.37-17.378 4.725-34.974 4.725-52.317-.009z"/><path d="M24.771 15.242a.844.844 0 00-.849-.848h-1.548a.844.844 0 00-.85.848c0 .473.377.85.85.85h1.548a.855.855 0 00.85-.85zm7.307.849h1.548a.844.844 0 00.85-.849.844.844 0 00-.85-.848h-1.548a.844.844 0 00-.849.848c0 .464.385.85.849.85zm-8.575 6.537a.845.845 0 00-.377 1.137A5.427 5.427 0 0028 26.784a5.417 5.417 0 004.874-3.019.845.845 0 00-.376-1.137.845.845 0 00-1.138.376A3.746 3.746 0 0128 25.086a3.746 3.746 0 01-3.36-2.082.845.845 0 00-1.137-.377z"/></g><defs><clipPath id="clip0_837_310"><path fill="#fff" d="M0 0h56v56H0z"/></clipPath></defs></svg>