<svg width="56" height="56" fill="none" xmlns="http://www.w3.org/2000/svg"><g clip-path="url(#clip0_837_303)" fill="#1397DE"><path d="M27.902 7.116c.609 0 1.102-.493 1.102-1.102V1.102a1.102 1.102 0 00-2.203 0v4.912c0 .609.493 1.102 1.101 1.102zm26.925 30.726l-1.945-1.94a3.65 3.65 0 00-2.598-1.072c-.629 0-1.232.156-1.767.449l-3.667-3.663.179-.178a3.823 3.823 0 000-5.398 3.78 3.78 0 00-1.918-1.037c.1-.344.152-.704.152-1.072a3.783 3.783 0 00-1.117-2.699 3.781 3.781 0 00-1.918-1.037c.1-.343.152-.703.152-1.071a3.784 3.784 0 00-1.118-2.7 3.798 3.798 0 00-1.916-1.035 3.83 3.83 0 00-.964-3.775 3.824 3.824 0 00-3.11-1.09L26.006 9.15c-1.108-.21-2.492-.35-3.366.447-.055.05-.111.108-.166.173a3.83 3.83 0 00-4.02.884 3.79 3.79 0 00-1.115 2.7c0 .368.052.728.151 1.072a3.776 3.776 0 00-1.914 1.034 3.784 3.784 0 00-1.12 2.698c0 .369.053.73.153 1.074a3.784 3.784 0 00-1.917 1.034 3.793 3.793 0 00-1.118 2.702c0 .783.234 1.529.667 2.159a3.797 3.797 0 00-1.467.913 3.824 3.824 0 00.001 5.401l.178.177-3.667 3.661A3.683 3.683 0 003.119 36l-1.947 1.942A3.647 3.647 0 00.098 40.54c0 .983.381 1.906 1.074 2.598l2.43 2.427a1.101 1.101 0 001.556-1.558l-2.43-2.428a1.458 1.458 0 01-.427-1.04c0-.394.152-.763.427-1.038l1.947-1.942a1.475 1.475 0 011.797-.22 1.11 1.11 0 00.455.39l11.166 11.15a1.099 1.099 0 00.531.536c.236.267.367.608.367.972 0 .395-.152.764-.428 1.04l-1.945 1.943a1.48 1.48 0 01-2.083.001l-2.43-2.43a1.101 1.101 0 10-1.558 1.558l2.432 2.432A3.667 3.667 0 0015.575 56c.94 0 1.882-.357 2.599-1.07l1.946-1.944a3.647 3.647 0 001.074-2.599c0-.702-.195-1.372-.558-1.95l4.127-4.123.013-.013c.473-.489 1.789-.397 3.062-.31.904.064 1.912.134 2.897.02l4.52 4.515a3.657 3.657 0 00-.449 1.764c0 .983.382 1.905 1.074 2.596l1.947 1.945a3.65 3.65 0 002.597 1.072 3.65 3.65 0 002.598-1.072l11.806-11.792a3.646 3.646 0 001.074-2.598c0-.984-.381-1.907-1.075-2.599zM25.596 11.313l4.778.905-2.86 2.859c-.442-.213-1.049-.61-1.714-1.246-.91-.871-1.562-1.877-1.621-2.504v-.001a.99.99 0 01-.005-.109c.144-.035.527-.074 1.422.096zm-5.585.898a1.625 1.625 0 012.056-.194c.357 1.498 1.635 2.856 2.21 3.406.426.408 1.794 1.63 3.174 1.966.186.268.288.587.288.923a1.603 1.603 0 01-1.614 1.613c-.435 0-.841-.166-1.145-.471l-.001-.001-4.968-4.959a1.601 1.601 0 01-.47-1.141c0-.434.168-.84.47-1.142zm-2.878 4.807c.303-.303.709-.47 1.143-.47.434 0 .84.167 1.146.472l4 3.992c.63.63.63 1.657.002 2.286-.305.303-.712.47-1.147.47-.436 0-.843-.167-1.146-.469l-3.035-3.034-.015-.014-.95-.949a1.603 1.603 0 01-.471-1.144c0-.432.167-.836.473-1.14zm-2.884 4.806c.303-.303.71-.47 1.145-.47.432 0 .835.164 1.137.462l3.044 3.043c.303.302.47.707.47 1.14a1.606 1.606 0 01-1.616 1.611c-.434 0-.842-.167-1.145-.47l-1.104-1.102-1.93-1.928a1.604 1.604 0 01-.473-1.143c0-.433.168-.84.472-1.143zm-1.918 5.773a1.61 1.61 0 011.146-.472c.434 0 .841.168 1.146.472l1.105 1.104c.304.302.47.707.47 1.14a1.6 1.6 0 01-.472 1.143c-.303.303-.71.47-1.144.47a1.61 1.61 0 01-1.146-.472l-.138-.138-.005-.006-.007-.006-.954-.95a1.618 1.618 0 01-.001-2.285zm22.447 12.519a1.101 1.101 0 00-1.557-.001l-.98.979c-.932.931-2.619.814-4.25.7-1.773-.123-3.605-.25-4.79.968l-4.058 4.052L8.997 36.683l3.59-3.584a3.802 3.802 0 001.995.559 3.79 3.79 0 002.7-1.115 3.786 3.786 0 001.12-2.702v-.028h.028a3.794 3.794 0 002.7-1.112 3.786 3.786 0 001.119-2.702l-.001-.028h.029a3.805 3.805 0 003.819-3.843h.03a3.791 3.791 0 002.7-1.115 3.79 3.79 0 001.116-2.7 3.8 3.8 0 00-.557-1.992l3.147-3.146a1.615 1.615 0 01.925-.455 1.62 1.62 0 011.368.453c.63.631.63 1.658.003 2.286l-.959.955-.01.01-1.104 1.101a1.101 1.101 0 101.557 1.559l.963-.961.146-.146a1.622 1.622 0 012.286.006c.303.302.47.707.47 1.14a1.6 1.6 0 01-.473 1.143l-.964.966-1.104 1.1a1.102 1.102 0 001.555 1.56l1.108-1.104c.304-.303.71-.47 1.144-.47.435 0 .84.167 1.146.473.304.302.47.707.47 1.14 0 .433-.166.838-.472 1.142l-1.921 1.923a1.101 1.101 0 101.558 1.557l.942-.942.016-.015c.303-.304.71-.47 1.144-.47.434 0 .84.166 1.144.47.63.63.63 1.654 0 2.284l-.957.957h-.001l-.001.002-1.52 1.518a1.102 1.102 0 001.557 1.559l.743-.743 3.563 3.559L36.71 46.865l-3.635-3.63c.254-.164.496-.355.724-.583l.98-.978c.43-.43.43-1.128 0-1.558zm18.493 1.364L41.465 53.272a1.462 1.462 0 01-1.04.428c-.396 0-.765-.152-1.042-.428l-1.946-1.944a1.456 1.456 0 01-.428-1.038c0-.394.152-.763.428-1.038L49.243 37.46a1.462 1.462 0 011.04-.428c.396 0 .765.152 1.042.429l1.946 1.94c.276.276.428.645.428 1.04s-.152.764-.428 1.04zM13.276 6.187a1.098 1.098 0 001.557-.001c.43-.43.43-1.128-.001-1.558L10.818.622a1.101 1.101 0 10-1.556 1.56l4.014 4.005zm28.474.323c.282 0 .564-.108.78-.323l4.01-4.006A1.101 1.101 0 0044.983.622l-4.01 4.006a1.101 1.101 0 00.778 1.881z"/><path d="M6.87 47.382a1.101 1.101 0 00.014 1.557l.003.004a1.1 1.1 0 001.556-.015 1.104 1.104 0 00-1.572-1.546zm30.602-8.852a1.102 1.102 0 10-.494-2.086l-.007.003a1.102 1.102 0 00.501 2.083z"/></g><defs><clipPath id="clip0_837_303"><path fill="#fff" d="M0 0h56v56H0z"/></clipPath></defs></svg>