<svg width="56" height="56" fill="none" xmlns="http://www.w3.org/2000/svg"><mask id="a" style="mask-type:luminance" maskUnits="userSpaceOnUse" x="0" y="0" width="56" height="56"><path d="M56 56H0V0h56v56z" fill="#fff"/></mask><g mask="url(#a)"><path d="M28 15.969a1.094 1.094 0 110-2.189 1.094 1.094 0 010 2.189z" fill="#1397DE"/><path d="M23.625 14.875H8.312a2.187 2.187 0 110-4.375h39.376a2.187 2.187 0 110 4.375H32.374m-2.844 24.44A3.28 3.28 0 0128 45.5a3.281 3.281 0 111.53-6.185zM6.494 33.153a3.281 3.281 0 11-4.237 5.008 3.281 3.281 0 014.237-5.008zm44.667-.744a3.28 3.28 0 11.928 6.494 3.28 3.28 0 01-.928-6.494zM8.003 14.853L4.839 32.408m19.502 2.859l2.13 4.048M6.495 33.151l10.567-11.714 7.278 13.83" stroke="#1397DE" stroke-width="2" stroke-miterlimit="10" stroke-linecap="round" stroke-linejoin="round"/><path d="M31.66 35.267l7.278-13.83 10.567 11.714M29.53 39.315l2.129-4.048m19.502-2.859l-3.164-17.555" stroke="#1397DE" stroke-width="2" stroke-miterlimit="10" stroke-linecap="round" stroke-linejoin="round"/><path d="M44.962 28.116c-1.429 4.377-5.544 7.54-10.4 7.54-1.005 0-1.977-.135-2.902-.39m-7.319.001a10.97 10.97 0 01-2.904.39c-4.855 0-8.97-3.164-10.399-7.541m13.869-4.491L28 20.532l3.093 3.093L28 26.718l-3.093-3.093z" stroke="#1397DE" stroke-width="2" stroke-miterlimit="10" stroke-linecap="round" stroke-linejoin="round"/></g></svg>