<svg width="40" height="40" fill="none" xmlns="http://www.w3.org/2000/svg"><g clip-path="url(#clip0_841_1471)" fill="#0072AF"><path d="M36.287 9.447H3.725C1.681 9.447 0 11.075 0 13.117V29.72c0 2.044 1.681 3.68 3.725 3.68h3.52a.8.8 0 00.818-.812v-7.375c0-.59.501-1.062 1.094-1.062h21.697c.592 0 1.083.47 1.083 1.063v7.374c0 .462.366.812.829.812h3.52C38.33 33.4 40 31.763 40 29.72V13.116c0-2.043-1.67-3.67-3.713-3.67zM38.34 29.72c0 1.12-.933 2.019-2.053 2.019h-2.69v-6.528a2.723 2.723 0 00-2.742-2.721H9.158c-1.516 0-2.755 1.205-2.755 2.721v6.528H3.725c-1.121 0-2.065-.9-2.065-2.02V13.116c0-1.119.945-2.01 2.065-2.01h32.562c1.121 0 2.053.89 2.053 2.01V29.72z"/><path d="M29 25.573H11.01a2.238 2.238 0 00-2.235 2.256v7.264a2.24 2.24 0 002.236 2.259H29c1.247 0 2.225-1.01 2.225-2.26V27.83c0-1.245-.978-2.256-2.225-2.256zm-17.99 1.66H29c.323 0 .565.274.565.596v2.803h-19.13V27.83c0-.323.252-.596.576-.596zM29 35.692H11.01a.588.588 0 01-.575-.6v-2.8h19.13v2.8c0 .326-.242.6-.565.6zM13.418 7.945h13.174a.836.836 0 00.839-.834V3.449c0-.462-.376-.8-.84-.8H13.419c-.461 0-.849.338-.849.8v3.66c0 .463.386.836.85.836zm.811-3.637h11.542v1.977H14.229V4.308zm18.981 8.009a3.166 3.166 0 00-3.161 3.162 3.166 3.166 0 003.162 3.16 3.165 3.165 0 003.162-3.16 3.166 3.166 0 00-3.162-3.162zm0 4.649a1.49 1.49 0 01-1.486-1.487 1.49 1.49 0 011.487-1.488c.82 0 1.488.67 1.488 1.488a1.49 1.49 0 01-1.488 1.487z"/></g><defs><clipPath id="clip0_841_1471"><path fill="#fff" d="M0 0h40v40H0z"/></clipPath></defs></svg>