<svg width="40" height="40" fill="none" xmlns="http://www.w3.org/2000/svg"><g clip-path="url(#clip0_841_1477)" fill="#0072AF"><path d="M17.5 5.634H5a.616.616 0 100 1.232h12.5a.616.616 0 100-1.232zm15.624 2.49a1.874 1.874 0 100-3.749 1.874 1.874 0 000 3.749z"/><path d="M37.5 0h-35A2.5 2.5 0 000 2.5V10a2.5 2.5 0 002.5 2.5h35A2.5 2.5 0 0040 10V2.5A2.5 2.5 0 0037.5 0zm1.25 10c0 .69-.56 1.25-1.25 1.25h-35c-.69 0-1.25-.56-1.25-1.25V2.5c0-.69.56-1.25 1.25-1.25h35c.69 0 1.25.56 1.25 1.25V10zM17.5 19.384H5a.616.616 0 100 1.232h12.5a.616.616 0 100-1.232zm15.624 2.49a1.874 1.874 0 100-3.749 1.874 1.874 0 000 3.749z"/><path d="M37.5 13.75h-35a2.5 2.5 0 00-2.5 2.5v7.5a2.5 2.5 0 002.5 2.5h35a2.5 2.5 0 002.5-2.5v-7.5a2.5 2.5 0 00-2.5-2.5zm1.25 10c0 .69-.56 1.25-1.25 1.25h-35c-.69 0-1.25-.56-1.25-1.25v-7.5c0-.69.56-1.25 1.25-1.25h35c.69 0 1.25.56 1.25 1.25v7.5zM17.5 33.133H5a.616.616 0 100 1.233h12.5a.616.616 0 100-1.233zm15.624 2.491a1.874 1.874 0 100-3.749 1.874 1.874 0 000 3.749z"/><path d="M37.5 27.5h-35A2.5 2.5 0 000 30v7.5A2.5 2.5 0 002.5 40h35a2.5 2.5 0 002.5-2.5V30a2.5 2.5 0 00-2.5-2.5zm1.25 10c0 .69-.56 1.25-1.25 1.25h-35c-.69 0-1.25-.56-1.25-1.25V30c0-.69.56-1.25 1.25-1.25h35c.69 0 1.25.56 1.25 1.25v7.5z"/></g><defs><clipPath id="clip0_841_1477"><path fill="#fff" d="M0 0h40v40H0z"/></clipPath></defs></svg>