<svg width="40" height="40" fill="none" xmlns="http://www.w3.org/2000/svg"><g clip-path="url(#clip0_841_1488)" fill="#0072AF"><path d="M14.41 28.976c.888 0 1.637-.749 1.637-1.638 0-.889-.749-1.637-1.638-1.637-.889 0-1.637.748-1.637 1.637s.748 1.637 1.637 1.637z"/><path d="M37.754 34.262h-.889v-6.503c0-4.912-3.602-9.123-8.467-9.871 4.21-2.76 5.38-8.468 2.62-12.679C28.258 1 22.502-.17 18.291 2.636c-4.21 2.807-5.427 8.468-2.62 12.679.702 1.029 1.544 1.918 2.62 2.62a9.738 9.738 0 00-2.807.841H4.07c-1.31 0-2.386 1.123-2.246 2.48l1.123 12.35c.047.235.094.469.187.656h-.842C1.03 34.309 0 35.338 0 36.602a2.36 2.36 0 002.292 2.292h35.416C38.97 38.847 40 37.818 40 36.554c0-1.263-1.03-2.292-2.246-2.292zm-2.526-6.503v6.456h-3.275a3.5 3.5 0 00.234-.748l.28-1.638c.094-.514-.327-.936-.794-.936h-5.1l-.936-10.105a2.325 2.325 0 00-.655-1.403h1.872c4.631.046 8.327 3.79 8.374 8.374zm-4.585 4.819l-.093.655a1.201 1.201 0 01-1.17.982H26.9l-.14-1.637h3.883zm-14.83-22.27c0-4.163 3.321-7.531 7.485-7.531s7.532 3.321 7.532 7.485-3.321 7.532-7.485 7.532h-.047a7.477 7.477 0 01-7.485-7.485zM4.07 20.415h19.322c.327 0 .561.234.608.561l1.216 13.287H5.52a.957.957 0 01-.935-.842L3.462 21.069c-.047-.374.327-.655.608-.655zm33.684 16.842H2.292c-.374 0-.654-.327-.654-.702a.64.64 0 01.654-.654h35.416c.374 0 .655.327.655.701 0 .328-.281.608-.609.655z"/></g><defs><clipPath id="clip0_841_1488"><path fill="#fff" d="M0 0h40v40H0z"/></clipPath></defs></svg>