<svg width="767" height="767" fill="none" xmlns="http://www.w3.org/2000/svg"><path fill-rule="evenodd" clip-rule="evenodd" d="M383.271 102.272c4.358 0 8.692.099 13 .295v12.498c0 11.046 8.971 19.912 19.977 20.85a235.207 235.207 0 01199.68 150.253c3.949 10.315 14.953 16.48 25.566 13.42l9.26-2.669c8.776 27.207 13.517 56.227 13.517 86.353 0 155.192-125.808 281-281 281-31.839 0-62.442-5.296-90.976-15.054l1.428-4.537c3.317-10.536-2.578-21.686-12.796-25.88a236.606 236.606 0 01-94.67-70.774c-6.914-8.614-19.277-11.113-28.444-4.951l-3.88 2.608c-32.536-45.86-51.662-101.902-51.662-162.412 0-155.192 125.809-281 281-281z" fill="#fff"/><path d="M272.057 97.912a306.264 306.264 0 00-148.089 122.386l2.564 1.612a303.23 303.23 0 01146.625-121.176l-1.1-2.822z" fill="#7A7B7A"/><path d="M621.103 245.581a274.81 274.81 0 00-181.555-131.299l-.557 2.659a272.104 272.104 0 01179.76 130.001l2.352-1.361z" fill="#4E5960"/><path d="M621.375 246.051a274.806 274.806 0 00-47.774-61.014l-2.854 2.973a270.706 270.706 0 0147.057 60.099l3.571-2.058z" fill="#181716"/><path d="M175.263 583.268c-3.981 3.828-4.117 10.171-.158 14.022a298.573 298.573 0 0058.873 44.533c4.783 2.761 10.85.904 13.45-3.968l.542-1.016c2.6-4.873.747-10.914-4.029-13.688a277.378 277.378 0 01-53.58-40.53c-3.969-3.84-10.287-3.979-14.268-.151l-.83.798z" fill="#fff"/><path d="M542.464 270.655a194.994 194.994 0 00-194.28-79.2A194.993 194.993 0 00194.52 334.302l5.522 1.433A189.299 189.299 0 01349.21 197.066a189.299 189.299 0 01188.598 76.883l4.656-3.294z" fill="#E3E3E3"/><path d="M573.638 454.861A204.64 204.64 0 00311.226 192.31l3.005 8.222a195.893 195.893 0 01205.785 45.51 195.886 195.886 0 0145.401 205.81l8.221 3.009z" fill="#E3E3E3"/><circle cx="381.467" cy="384.518" r="179.154" transform="rotate(55.381 381.467 384.518)" fill="#E3E3E3"/><path d="M286.413 165.341a15.077 15.077 0 01-15.236 9.859 15.088 15.088 0 01-13.682-11.924 15.083 15.083 0 0117.124-18.013 15.084 15.084 0 018.485 4.422l-10.853 10.472 14.162 5.184zm42-16.906a15.078 15.078 0 01-26.692 3.211l12.53-8.395 14.162 5.184zm46-8a15.073 15.073 0 01-10.604 9.472 15.085 15.085 0 01-17.795-9.678 15.087 15.087 0 012.189-14.05 15.082 15.082 0 015.699-4.608l6.349 13.68 14.162 5.184z" fill="#181716"/><circle cx="314.251" cy="143.251" r="14.582" transform="rotate(55.381 314.251 143.251)" stroke="#CCC"/><circle cx="200.088" cy="604.75" r="2" transform="rotate(55.381 200.088 604.75)" stroke="#333"/><circle cx="211.749" cy="614.75" r="2" transform="rotate(55.381 211.749 614.75)" stroke="#333"/><circle cx="225.749" cy="624.75" r="2.5" transform="rotate(55.381 225.749 624.75)" fill="#333"/><circle cx="626.251" cy="351.251" r="14.582" transform="rotate(55.381 626.251 351.251)" stroke="#CCC"/><circle cx="627.288" cy="342.31" r="3.078" transform="rotate(55.381 627.288 342.31)" fill="#333"/><circle cx="625.251" cy="407.041" r="14.582" transform="rotate(114.537 625.251 407.041)" stroke="#CCC"/><circle cx="633.459" cy="403.346" r="3.078" transform="rotate(114.537 633.459 403.346)" fill="#333"/><circle cx="611.768" cy="458.014" r="14.582" transform="rotate(-5.78 611.768 458.014)" stroke="#CCC"/><circle cx="604.436" cy="452.793" r="3.078" transform="rotate(-5.78 604.436 452.793)" fill="#333"/><circle cx="360.251" cy="135.251" r="14.582" transform="rotate(55.381 360.251 135.251)" stroke="#CCC"/><path d="M449.924 580.286a207.388 207.388 0 00111.632-92.912l-3.142-1.794a203.774 203.774 0 01-109.684 91.29l1.194 3.416zM181.916 471.467a217.666 217.666 0 00196.403 130.7l.031-2.122A215.548 215.548 0 01183.861 470.62l-1.945.847z" fill="#E3E3E3"/><path d="M142.76 381.428A238.727 238.727 0 00533.115 568.89l-.849-1.033a237.386 237.386 0 01-352.547-58.234 237.392 237.392 0 01-35.622-128.177l-1.337-.018z" fill="#E3E3E3"/><path d="M142.76 381.428a238.732 238.732 0 0021.641 102.452l1.216-.557a237.402 237.402 0 01-21.52-101.877l-1.337-.018zm110.438-167.737a214.58 214.58 0 00-16.231 13.406l.809.888a213.45 213.45 0 0116.14-13.331l-.718-.963zm-25.039 20.914a214.248 214.248 0 00-13.962 15.756l.937.751a213.36 213.36 0 0113.884-15.667l-.859-.84zm-21.957 26.384a214.487 214.487 0 00-11.269 17.781l1.045.593a213.218 213.218 0 0111.206-17.682l-.982-.692zm1.637 287.37a238.681 238.681 0 0043.171 36.087l.731-1.12a237.377 237.377 0 01-42.929-35.885l-.973.918z" fill="#4E5960"/><mask id="a" fill="#fff"><path d="M533.5 588.907a254.711 254.711 0 0055.195-56.249l-1.161-.83a253.29 253.29 0 01-54.886 55.934l.852 1.145z"/></mask><path d="M533.5 588.907a254.711 254.711 0 0055.195-56.249l-1.161-.83a253.29 253.29 0 01-54.886 55.934l.852 1.145z" stroke="#333" stroke-width="2" stroke-linecap="round" stroke-linejoin="round" stroke-dasharray="10 10" mask="url(#a)"/><path d="M140.646 241.519a280.996 280.996 0 00-38.29 134.886l25.594.625a255.398 255.398 0 0134.802-122.596l-22.106-12.915z" fill="#181716"/><path d="M142.451 258.881a270.881 270.881 0 00-11.469 25.307l3.198 1.256a267.574 267.574 0 0111.324-24.986l-3.053-1.577zm-15.992 37.701a271.205 271.205 0 00-5.333 17.787l3.324.874a267.587 267.587 0 015.265-17.562l-3.256-1.099z" fill="#7A7B7A"/><path d="M116.889 333.193a271.271 271.271 0 00-2.804 18.357l3.413.402a267.643 267.643 0 012.768-18.124l-3.377-.635z" fill="#B1B2B3"/><path d="M439.186 658.653a281.014 281.014 0 0087.693-33.848l-3.577-6.015a274.027 274.027 0 01-85.509 33.005l1.393 6.858z" fill="#181716"/></svg>