<svg width="224" height="73" fill="none" xmlns="http://www.w3.org/2000/svg"><g clip-path="url(#clip0_75_11335)"><path d="M32.184 66.737c-.823-.827-1.26-1.689-1.249-2.516v-1.192s.54-.285.852-.588c1.3-1.26 3.559-.473 4.365-1.26.8-.782 1.14-2.927-.358-4.393-1.487-1.454-3.706-1.426-4.609-.559-.908.867-.045 3.103-1.283 4.296-1.243 1.197-3.252.644-4.461-.57l-5.387-5.414v-1.244s6.584-4.9 7.617-5.864c1.232-1.152 1.811-3.012.653-4.13-1.152-1.113-3.389-.291-4.234-1.113-.346-.336-.545-.878-.556-1.494v-1.318s.72-.918 1.226-1.38c1.475-1.352 3.564-1.05 4.313-.337.75.713-.05 2.755 1.158 3.913 1.215 1.164 2.742.907 4.155-.416l5.58-5.225 6.54 4.831v1.238c-2.283 0-3.486.103-4.604 1.175-1.448 1.38-2.27 4.65.55 7.336 2.714 2.59 6.045 2.128 7.748.45 1.72-1.693 1.317-4.278 1.317-4.278l.063.046 6.618 4.906.011 1.244-19.9 20-6.114-6.139-.011-.005z" fill="#0072AF"/><path d="M14.514 21.825c-.613.536-1.13.428-1.288 1.124-.017.61-.012 1.18-.006 1.358.006.473.176.924.556 1.289 1.085 1.038 3.264.274 4.07 1.038.806.77.755 2.692-.72 4.005-1.488 1.312-3.543 1.026-4.258.325-.715-.69.142-2.647-.993-3.742-1.13-1.09-2.617-.856-4.053.387L.006 33.154v1.238l18.3 18.397 8.52-7.935-.011-1.243s-3.338 1.14-4.496.005c-1.652-1.614-2.004-4.683.693-7.125 2.798-2.538 6.13-1.785 7.537-.45 1.096 1.038 1.192 2.156 1.164 4.284l6.488-6.03.011-1.232s-5.84-4.187-6.976-5.242c-1.34-1.244-1.578-2.585-.369-3.668 1.204-1.078 3.293-.405 4.036-1.078.37-.337.636-.959.636-1.65 0-.159-.011-.815 0-1.385-.102-.56-.42-.24-.954-.72-1.373-1.248-3.422-1.22-4.262-.478-.84.747-.046 2.658-1.192 3.68-1.153 1.026-3.009.553-4.127-.491-1.113-1.033-5.154-4.81-5.154-4.81l-5.336 4.616v-.012z" fill="#7A7B7A"/><path d="M49.826 11.204c-1.141-.987-2.963-1.438-4.047-.462-1.085.975-.245 2.818-1.05 3.548-.812.73-2.844.753-4.23-.468-1.373-1.22-1.078-2.972-.357-3.61.715-.634 2.759 0 3.894-1.016.437-.388.664-.81.704-1.244.017-.182.057-1.335.005-1.523-.13-.525-.567-.103-1.163-.616l-5.279-4.57L21.479 14.57v1.232l6.005 5.54s-.357-2.402 1.323-3.88c1.64-1.443 4.74-1.836 7.214.394 2.628 2.367 1.834 5.322.437 6.589-.942.855-4.433-.149-4.433-.149s-.017.799-.017 1.232l7.828 7.234s4.08-3.794 5.426-5.043c1.34-1.25 2.804-1.483 4.024-.393 1.227 1.095.523 3.051 1.295 3.747.772.696 2.85.987 4.228-.33.704-.668 1.022-1.5 1.045-2.26.005-.222.04-1.357 0-1.563-.091-.456-.346.075-.642-.188-.868-.77-2.985 0-4.155-1.038-1.157-1.033-.68-2.733.438-3.776 1.112-1.033 5.17-4.792 5.17-4.792V15.88l-6.845-4.683.006.006z" fill="#7A7B7A"/><path d="M65.026 46.018c.653-.656 1.073-1.546 1.085-2.39 0-.188.034-1.278 0-1.455-.097-.428-.37.075-.744-.262-1.237-1.107-3.4-.291-4.308-1.107-.903-.816-1.022-2.83.358-4.181 1.373-1.34 3.473-1.044 4.274-.337.8.713.159 2.739 1.447 3.89 1.3 1.159 2.798.908 4.11-.41l5.358-5.385v-1.25L58.414 18.638l-5.983 4.375v1.25s2.668-.383 4.393 1.14c1.709 1.506 2.294 4.421-.181 6.8-2.623 2.521-5.994 1.763-7.453.44-1.124-1.022-1.255-2.106-1.294-4.148l-6.284 4.655v1.232s4.2 3.885 5.614 5.185c1.425 1.318 1.72 2.75.51 3.92-1.214 1.175-3.416.439-4.183 1.175-.22.21-.516-.046-.63.33-.05.6-.005 1.136-.005 1.45 0 .792.29 1.682 1.056 2.406 1.498 1.421 3.689 1.392 4.552.548.863-.844-.063-2.983 1.101-4.113 1.158-1.123 3.122-.604 4.36.537a5183.42 5183.42 0 015.857 5.43l5.194-5.22-.011-.01z" fill="#424647"/><path d="M32.184 65.499c-1.453-1.46-1.708-3.03-.409-4.302 1.3-1.26 3.56-.473 4.365-1.26.8-.782 1.141-2.927-.357-4.393-1.487-1.454-3.707-1.426-4.61-.559-.907.867-.045 3.103-1.282 4.296-1.243 1.197-3.252.644-4.462-.57l-5.386-5.414s6.38-5.956 7.617-7.114c1.232-1.152 1.81-3.012.653-4.13-1.152-1.112-3.389-.29-4.235-1.112-.845-.822-.805-2.841.682-4.199 1.475-1.352 3.564-1.05 4.314-.336.749.713-.052 2.755 1.157 3.913 1.215 1.164 2.742.907 4.155-.416l5.58-5.226 6.533 6.075c-2.276 0-3.479.103-4.597 1.176-1.448 1.38-2.27 4.649.55 7.336 2.714 2.59 6.046 2.127 7.748.45 1.72-1.694 1.204-4.386 1.204-4.386l6.805 6.309-19.9 20-6.113-6.138h-.012z" fill="#0095DB"/><path d="M14.514 20.588c-1.203 1.038-1.816 2.738-.738 3.776 1.084 1.038 3.264.274 4.07 1.038.806.77.755 2.693-.72 4.005-1.488 1.312-3.543 1.026-4.258.325-.715-.69.142-2.647-.993-3.742-1.13-1.09-2.617-.856-4.053.388L0 33.148l18.306 18.398 8.52-7.935s-2.816.416-4.502-1.238c-1.651-1.614-2.003-4.683.693-7.125 2.798-2.538 6.13-1.785 7.538-.45 1.096 1.038 1.192 2.156 1.164 4.283l6.487-6.03-6.964-6.474c-1.34-1.243-1.578-2.584-.37-3.668 1.204-1.078 3.293-.405 4.037-1.078.743-.673 1.061-2.504-.318-3.76-1.374-1.248-3.423-1.22-4.263-.478-.84.747-.046 2.658-1.192 3.68-1.152 1.026-3.008.552-4.127-.491-1.112-1.033-5.154-4.81-5.154-4.81l-5.335 4.616h-.006z" fill="#B1B2B3"/><path d="M49.826 9.966c-1.141-.987-2.963-1.438-4.047-.462-1.085.975-.245 2.818-1.05 3.548-.812.73-2.844.753-4.23-.468-1.373-1.22-1.078-2.972-.357-3.61.715-.634 2.759 0 3.894-1.016 1.135-1.01.863-2.248-.449-3.383L38.31 0 21.484 14.558l6.011 5.539s-.357-2.402 1.323-3.88c1.64-1.442 4.74-1.836 7.214.394 2.629 2.368 1.834 5.323.438 6.589-1.09.987-2.254 1.09-4.45 1.09l7.827 7.233 5.426-5.043c1.34-1.25 2.804-1.483 4.025-.393 1.226 1.095.522 3.051 1.294 3.747.772.696 2.85.987 4.229-.33 1.373-1.307 1.271-3.235.403-4.005-.869-.77-2.986 0-4.155-1.038-1.158-1.033-.681-2.733.437-3.777 1.112-1.032 5.17-4.791 5.17-4.791l-6.845-5.927h-.005z" fill="#FD0"/><path d="M65.026 44.78c1.141-1.147 1.579-2.995.335-4.107-1.237-1.107-3.4-.291-4.308-1.107-.902-.816-1.021-2.83.358-4.181 1.373-1.34 3.474-1.044 4.274-.337.8.713.159 2.738 1.447 3.89 1.3 1.158 2.799.907 4.11-.41l5.358-5.385-18.192-15.745-5.988 5.625s2.667-.382 4.399 1.14c1.708 1.507 2.293 4.422-.182 6.8-2.622 2.522-5.994 1.763-7.453.44-1.124-1.021-1.254-2.105-1.294-4.147l-6.29 5.887s4.201 3.885 5.62 5.185c1.425 1.318 1.72 2.75.511 3.92-1.215 1.174-3.417.438-4.183 1.174-.767.742-1.073 2.773.414 4.182 1.499 1.42 3.69 1.392 4.552.547.863-.844-.062-2.983 1.102-4.113 1.158-1.123 3.121-.604 4.359.537 1.243 1.146 5.858 5.43 5.858 5.43l5.194-5.22v-.005z" fill="#7A7B7A"/><path fill-rule="evenodd" clip-rule="evenodd" d="M109.261 28.015a12.752 12.752 0 00-.749-2.482c-.335-.81-.744-1.58-1.226-2.299a13.435 13.435 0 00-1.646-2.013 13.629 13.629 0 00-2.004-1.655 13.09 13.09 0 00-2.282-1.226 12.564 12.564 0 00-2.475-.753 13.252 13.252 0 00-2.577-.251H85.228a2.891 2.891 0 00-2.883 2.898 2.883 2.883 0 002.883 2.892h.034c2.339 0 11.04.006 11.04.006h.318c.454.017.903.08 1.34.176.443.103.88.246 1.3.428l.147.063c.375.177.738.382 1.085.616.386.263.749.57 1.084.902a8 8 0 01.931 1.135c.261.388.488.81.669 1.243l.017.046a7.47 7.47 0 01.562 2.864c0 .502-.051.992-.142 1.466a7.584 7.584 0 01-.42 1.397l-.028.063a7.306 7.306 0 01-1.589 2.362 7.748 7.748 0 01-1.13.935 7.91 7.91 0 01-1.203.656l-.085.034a7.551 7.551 0 01-1.391.422 7.497 7.497 0 01-1.442.143h-9.61a2.454 2.454 0 00-2.44 2.288v15.173h5.744v-10.94c0-.309.278-.754.778-.754h6.243c.699-.04 1.374-.13 2.038-.268a13.364 13.364 0 002.361-.747 12.95 12.95 0 002.243-1.22 13.256 13.256 0 001.969-1.627 13.685 13.685 0 001.646-2.013c.477-.72.891-1.49 1.226-2.3.33-.792.579-1.625.75-2.486a13.5 13.5 0 00.255-2.59c0-.884-.085-1.752-.255-2.59l-.012.006zm6-10.685v38.22h5.744V17.33h-5.744z" fill="#181716"/><path d="M151.799 36.605c-2.657-1.7-6.204-2.538-9.718-3.37h-.011l-.364-.087h-.022l-.04-.01h-.006c-.692-.16-1.368-.32-2.009-.48a50.843 50.843 0 01-1.896-.513 21.351 21.351 0 01-1.68-.565c-.511-.2-.988-.41-1.414-.645-.363-.2-.686-.41-.964-.65a3.616 3.616 0 01-.687-.742 2.8 2.8 0 01-.403-.867 3.512 3.512 0 01-.108-1.06c.017-.417.079-.8.176-1.147.108-.366.255-.696.437-1.004.193-.32.426-.61.692-.873.29-.28.613-.53.965-.747a7.992 7.992 0 011.385-.668c.534-.2 1.102-.36 1.68-.485a14.43 14.43 0 011.93-.273 15.97 15.97 0 012.021-.04h.131l.193.01c.363.024.732.052 1.112.092.443.046.874.103 1.289.177.437.074.868.165 1.294.285.403.109 1.169.422 1.567.673.17.109.357.246.55.371.204.131.392.257.545.342.59.337 1.43.565 2.038.668.528.091 1.118.154 1.691.16.693.011 1.374-.058 1.919-.246.516-.177.925-.468 1.135-.907l.011-.017.012-.023.022-.051.029-.063.091-.216-.137-.194-.039-.058a15.322 15.322 0 00-1.306-1.694c-.448-.513-.919-.97-1.407-1.38-.483-.405-.982-.77-1.499-1.096a13.776 13.776 0 00-1.584-.838 15.451 15.451 0 00-1.776-.65 18.778 18.778 0 00-1.839-.428 22.755 22.755 0 00-1.885-.251 37.72 37.72 0 00-1.936-.131h-.056l-.403-.012h-.006a23.021 23.021 0 00-2.566.091c-.828.075-1.657.195-2.469.366-.76.16-1.527.37-2.27.627a13.5 13.5 0 00-2.01.884c-.811.434-1.566.947-2.236 1.546a9.204 9.204 0 00-1.663 1.94 8.93 8.93 0 00-1.05 2.299c-.21.701-.352 1.46-.409 2.264v.131l-.011.223v.217c-.04.964.045 1.837.244 2.64.198.805.505 1.53.908 2.186a8.201 8.201 0 001.464 1.757c.568.519 1.209.97 1.908 1.38.641.377 1.339.713 2.066 1.01.721.297 1.481.565 2.259.804a47.1 47.1 0 002.373.668c.817.21 1.623.405 2.418.593l.045.011h.011c.699.166 1.397.331 2.021.49a46.07 46.07 0 011.97.537 25.2 25.2 0 011.81.61 12.45 12.45 0 011.567.725l.085.045c.386.217.738.463 1.045.72.323.273.601.576.828.906.216.32.381.68.489 1.067.102.377.153.782.136 1.22v.012l-.006.091v.029a6.247 6.247 0 01-.193 1.284c-.113.399-.261.77-.46 1.095a4.376 4.376 0 01-.721.93c-.295.296-.63.553-.999.77-.437.268-.919.49-1.424.673a11.3 11.3 0 01-1.749.473c-.686.131-1.385.217-2.06.263-.783.051-1.555.051-2.253.023-.438-.018-.88-.058-1.329-.126a14.549 14.549 0 01-1.356-.262 16.319 16.319 0 01-1.34-.4c-.42-.148-.914-.33-1.254-.507-.591-.303-1.55-.862-2.356-1.141a10.341 10.341 0 00-2.549-.554 7.26 7.26 0 00-1.05-.017 5.138 5.138 0 00-.931.143c-.312.08-.59.2-.823.348a1.892 1.892 0 00-.59.57 1.43 1.43 0 00-.176.377 1.74 1.74 0 00-.096.479v.143l.102.13.028.04a14.007 14.007 0 001.885 1.94c.357.303.721.588 1.095.85.386.274.778.525 1.186.765.676.393 1.38.747 2.112 1.055.761.32 1.527.587 2.299.804.8.228 1.618.405 2.435.536.834.132 1.669.217 2.486.252a27.88 27.88 0 003.224-.058 21.26 21.26 0 003.009-.439 17.07 17.07 0 002.662-.804c.794-.32 1.555-.702 2.265-1.164.692-.45 1.328-.97 1.89-1.557a9.684 9.684 0 001.402-1.906c.369-.661.67-1.397.885-2.201.193-.72.324-1.5.375-2.345h.006l.005-.148v-.04c.182-4.324-1.589-6.931-4.314-8.671l-.005.011z" fill="#181716"/><path d="M87.368 26.007h-.465a2.646 2.646 0 00-2.64 2.652v3.885a2.646 2.646 0 002.64 2.653h.465a2.646 2.646 0 002.64-2.653V28.66a2.646 2.646 0 00-2.64-2.652z" fill="#0095DB"/><path d="M85.41 72.88h-1.141v-8.682h1.14v8.682zm8.804-7.747h-2.776v7.747h-1.135v-7.747h-2.77v-.935h6.68v.935zm14.184 4.992c-.107.918-.442 1.626-1.01 2.127-.568.502-1.322.748-2.265.748-1.021 0-1.839-.365-2.452-1.101s-.919-1.717-.919-2.95v-.832c0-.805.141-1.518.431-2.128.284-.61.692-1.084 1.22-1.41.528-.324 1.136-.49 1.828-.49.92 0 1.652.257 2.208.776.556.514.874 1.227.965 2.14h-1.146c-.103-.697-.313-1.199-.642-1.507-.329-.308-.795-.467-1.385-.467-.726 0-1.3.268-1.714.81-.414.541-.619 1.312-.619 2.31v.844c0 .941.193 1.694.585 2.248.391.559.936.838 1.646.838.63 0 1.118-.142 1.459-.433.34-.291.562-.793.675-1.506h1.147l-.012-.017zm7.249.485h-3.622l-.811 2.27h-1.175l3.298-8.682h.993l3.304 8.682h-1.17l-.823-2.27h.006zm-3.275-.936h2.934l-1.47-4.062-1.464 4.062zm10.523-.308h-2.032v3.514h-1.146v-8.682h2.861c.97 0 1.719.222 2.242.667.522.445.789 1.095.789 1.945 0 .542-.148 1.01-.437 1.415-.29.4-.699.702-1.215.901l2.032 3.685v.075h-1.22l-1.874-3.514v-.006zm-2.032-.936h1.749c.567 0 1.016-.148 1.351-.439.334-.296.499-.69.499-1.18 0-.537-.159-.948-.477-1.239-.318-.285-.777-.433-1.379-.433h-1.743v3.297-.006zm12.147.434h-3.74v3.075h4.348v.936h-5.489v-8.683h5.426v.936h-4.291v2.795h3.741v.936l.005.005zm13.584.182h-3.628v3.834h-1.14v-8.682h5.352v.935h-4.212v2.972h3.628v.941zm9.519-.227c0 .85-.142 1.591-.426 2.224-.284.633-.687 1.118-1.209 1.455-.522.33-1.13.502-1.828.502-.698 0-1.283-.165-1.811-.502-.528-.337-.936-.816-1.226-1.438-.289-.621-.437-1.34-.448-2.162v-.627c0-.833.142-1.575.431-2.213.29-.64.698-1.13 1.226-1.472.528-.342 1.136-.508 1.811-.508.676 0 1.3.166 1.828.502.528.337.936.822 1.22 1.46.284.64.426 1.38.426 2.225v.548l.006.005zm-1.136-.56c0-1.026-.204-1.82-.618-2.367-.409-.553-.988-.827-1.726-.827s-1.288.274-1.697.827c-.414.548-.624 1.312-.636 2.293v.64c0 .998.21 1.779.625 2.35.42.57.993.855 1.725.855.732 0 1.306-.268 1.709-.81.403-.536.613-1.312.624-2.316v-.644h-.006zm6.937 1.107h-2.032v3.514h-1.147v-8.682h2.861c.97 0 1.72.222 2.242.667.522.445.789 1.095.789 1.945 0 .542-.148 1.01-.437 1.415-.29.4-.698.702-1.215.901l2.032 3.685v.075h-1.22l-1.873-3.514v-.006zm-2.032-.936h1.748c.567 0 1.016-.148 1.351-.439.335-.296.499-.69.499-1.18 0-.537-.159-.948-.476-1.239-.318-.285-.778-.433-1.38-.433h-1.742v3.297-.006zm14.27 1.05v3.4h-1.141v-8.682h3.184c.942 0 1.686.24 2.219.724.54.485.806 1.13.806 1.928 0 .845-.261 1.495-.783 1.946-.522.456-1.277.684-2.253.684h-2.038.006zm0-.935h2.049c.607 0 1.072-.143 1.402-.434.323-.29.488-.707.488-1.25 0-.541-.165-.93-.488-1.243-.324-.308-.772-.473-1.334-.485h-2.112v3.412h-.005zm12.334.319h-3.741v3.075h4.348v.936h-5.489v-8.683h5.427v.936h-4.291v2.795h3.74v.936l.006.005zm9.593-.045c0 .85-.142 1.591-.426 2.224-.284.633-.687 1.118-1.209 1.455-.522.33-1.13.502-1.828.502-.698 0-1.283-.165-1.81-.502-.528-.337-.937-.816-1.226-1.438-.29-.621-.438-1.34-.449-2.162v-.627c0-.833.142-1.575.431-2.213.29-.64.699-1.13 1.227-1.472.527-.342 1.135-.508 1.81-.508.676 0 1.3.166 1.828.502.528.337.937.822 1.22 1.46.284.64.426 1.38.426 2.225v.548l.006.005zm-1.135-.56c0-1.026-.205-1.82-.619-2.367-.409-.553-.988-.827-1.726-.827s-1.288.274-1.697.827c-.414.548-.624 1.312-.636 2.293v.64c0 .998.21 1.779.625 2.35.42.57.993.855 1.725.855.733 0 1.306-.268 1.709-.81.403-.536.613-1.312.624-2.316v-.644h-.005zm4.904 1.221v3.4h-1.141v-8.682h3.184c.943 0 1.686.24 2.22.724.539.485.806 1.13.806 1.928 0 .845-.261 1.495-.784 1.946-.522.456-1.277.684-2.253.684h-2.038.006zm0-.935h2.049c.607 0 1.073-.143 1.402-.434.323-.29.488-.707.488-1.25 0-.541-.165-.93-.488-1.243-.324-.308-.772-.473-1.334-.485h-2.112v3.412h-.005zm8.594 3.399h4.092v.936h-5.239v-8.682h1.147v7.746zm11.199-3.08H215.9v3.075h4.348v.936h-5.489v-8.683h5.427v.936h-4.292v2.795h3.741v.936l.006.005z" fill="#7A7B7A"/><path d="M191.175 27.552v-.285l-.012-.222v-.132h-.006a10.36 10.36 0 00-.408-2.264 9.135 9.135 0 00-1.05-2.3 9.412 9.412 0 00-1.663-1.939 11.404 11.404 0 00-2.237-1.546 14.893 14.893 0 00-2.015-.884 17.609 17.609 0 00-2.27-.627 21.149 21.149 0 00-2.47-.365 21.68 21.68 0 00-2.565-.086h-.006l-.403.011h-.057c-.641.03-1.288.069-1.935.132a22.84 22.84 0 00-1.885.25 17.71 17.71 0 00-1.833.429c-.607.176-1.198.393-1.777.65-.533.24-1.061.519-1.583.838a12.91 12.91 0 00-1.499 1.096c-.482.41-.954.867-1.408 1.38a15.527 15.527 0 00-1.305 1.7l-.04.057-.136.194.091.217.028.063.023.051.011.023.011.017c.216.433.625.73 1.136.907.545.188 1.22.257 1.918.245a12.522 12.522 0 001.692-.16c.607-.102 1.447-.33 2.038-.667.153-.085.334-.211.544-.342.193-.126.381-.257.551-.371.397-.251 1.164-.565 1.567-.673.425-.12.857-.211 1.294-.285.414-.075.851-.132 1.288-.177.381-.04.75-.069 1.113-.091h.193l.13-.012a16.23 16.23 0 013.951.314c.585.125 1.152.285 1.68.485.488.182.96.405 1.385.667.352.217.681.468.965.747.267.257.5.548.693.873.181.308.329.64.437 1.004.091.331.147.696.17 1.09 0 .028.011.051.011.08 0 8.785-23.652 8.785-23.652 25.025v2.887h27.387v-5.779h-21.098c3.508-8.956 23.011-10.314 23.011-22.219l-.005-.006zM224 41.106h-3.831V17.33h-2.873c-12.289 0-22.284 11.905-22.284 26.532v3.017h19.407v8.665h5.744V46.88h3.831v-5.778l.006.005zm-23.079 0c.953-8.956 6.459-16.11 13.498-17.666v17.666h-13.498z" fill="#0095DB"/></g><defs><clipPath id="clip0_75_11335"><path fill="#fff" d="M0 0h224v73H0z"/></clipPath></defs></svg>