<svg width="24" height="18" fill="none" xmlns="http://www.w3.org/2000/svg"><path d="M21.25 18H2.75A2.752 2.752 0 010 15.25V2.75A2.752 2.752 0 012.75 0h18.5A2.752 2.752 0 0124 2.75v12.5A2.752 2.752 0 0121.25 18zM2.75 1.5c-.689 0-1.25.561-1.25 1.25v12.5c0 .689.561 1.25 1.25 1.25h18.5c.689 0 1.25-.561 1.25-1.25V2.75c0-.689-.561-1.25-1.25-1.25H2.75z" fill="#4E5960"/><path d="M7.5 9A2.503 2.503 0 015 6.5C5 5.122 6.122 4 7.5 4S10 5.122 10 6.5 8.878 9 7.5 9zm0-3.5c-.551 0-1 .449-1 1 0 .551.449 1 1 1 .551 0 1-.449 1-1 0-.551-.449-1-1-1zm3.75 8.5a.75.75 0 01-.75-.75v-.5c0-.689-.561-1.25-1.25-1.25h-3.5c-.689 0-1.25.561-1.25 1.25v.5a.75.75 0 01-1.5 0v-.5A2.752 2.752 0 015.75 10h3.5A2.752 2.752 0 0112 12.75v.5a.75.75 0 01-.75.75zm9-8h-5.5a.75.75 0 010-1.5h5.5a.75.75 0 010 1.5zm0 4h-5.5a.75.75 0 010-1.5h5.5a.75.75 0 010 1.5zm0 4h-5.5a.75.75 0 010-1.5h5.5a.75.75 0 010 1.5z" fill="#4E5960"/></svg>