<svg width="25" height="24" fill="none" xmlns="http://www.w3.org/2000/svg"><g clip-path="url(#clip0_1150_86)" fill="#4E5960"><path d="M19.494 14.867c-.505-.512-1.114-.785-1.76-.785-.64 0-1.254.268-1.78.78l-1.645 1.596c-.135-.071-.27-.137-.4-.203a6.686 6.686 0 01-.516-.268c-1.541-.953-2.942-2.194-4.285-3.8-.65-.8-1.088-1.473-1.405-2.157.427-.38.822-.775 1.208-1.155.145-.142.291-.289.437-.43 1.093-1.064 1.093-2.442 0-3.506L7.927 3.556a21.997 21.997 0 01-.485-.481c-.312-.314-.64-.638-.978-.942-.505-.486-1.11-.745-1.744-.745-.636 0-1.25.259-1.77.745l-.01.01L1.17 3.88A3.664 3.664 0 00.04 6.236c-.126 1.479.322 2.857.666 3.758.843 2.214 2.103 4.265 3.982 6.464a24.414 24.414 0 008.158 6.215c1.198.552 2.796 1.205 4.582 1.317.109.005.223.01.328.01 1.202 0 2.212-.42 3.003-1.256.006-.01.016-.015.021-.026.271-.319.583-.607.911-.916a20.3 20.3 0 00.677-.654c.516-.522.786-1.13.786-1.752 0-.629-.276-1.231-.801-1.738l-2.859-2.79zm1.864 5.334c-.005 0-.005.005 0 0-.203.213-.411.405-.635.618-.338.314-.682.643-1.005 1.013-.526.547-1.145.805-1.957.805-.078 0-.162 0-.24-.005-1.546-.096-2.983-.684-4.06-1.185a23.046 23.046 0 01-7.685-5.855c-1.775-2.082-2.962-4.007-3.748-6.074-.484-1.261-.661-2.244-.583-3.17a2.3 2.3 0 01.718-1.505L3.94 3.115c.255-.233.526-.36.791-.36.328 0 .594.193.76.355l.016.016c.317.288.62.587.937.906.161.162.328.324.494.492L8.36 5.906c.552.537.552 1.034 0 1.57-.151.148-.297.295-.448.436-.437.436-.854.841-1.307 1.236-.01.01-.02.016-.026.026-.448.435-.364.86-.27 1.15l.015.045c.37.871.89 1.692 1.682 2.67l.005.005c1.437 1.722 2.952 3.064 4.623 4.092.213.132.432.239.64.34a6.6 6.6 0 01.516.268c.02.01.041.026.062.036.177.086.344.126.515.126.433 0 .703-.263.792-.35l1.78-1.732c.177-.172.458-.38.786-.38.323 0 .589.198.75.37l.01.01 2.869 2.792c.536.516.536 1.048.005 1.585zM13.33 5.71a6.666 6.666 0 013.593 1.812 6.4 6.4 0 011.863 3.496.693.693 0 00.693.567c.041 0 .078-.005.12-.01a.687.687 0 00.577-.79 7.743 7.743 0 00-2.254-4.23 8.107 8.107 0 00-4.347-2.193.705.705 0 00-.812.557c-.068.37.182.73.568.79zm11.308 4.877c-.463-2.644-1.744-5.05-3.712-6.965A13.338 13.338 0 0013.768.01a.699.699 0 00-.807.558.69.69 0 00.578.79c2.426.4 4.638 1.52 6.398 3.226 1.76 1.713 2.905 3.865 3.316 6.226a.693.693 0 00.693.567c.041 0 .078-.005.12-.01.38-.056.64-.41.572-.78z"/></g><defs><clipPath id="clip0_1150_86"><path fill="#fff" d="M0 0h24.667v24H0z"/></clipPath></defs></svg>