<svg width="764" height="807" fill="none" xmlns="http://www.w3.org/2000/svg"><g clip-path="url(#clip0_425_249)"><path d="M622.788 147.477v21.984h-21.98v14.656h21.98v21.984h14.654v-21.984h21.981v-14.656h-21.981v-21.984h-14.654z" fill="#FFD817"/><circle cx="263.769" cy="279.381" transform="rotate(-90 263.769 279.381)" fill="#B1B2B3" r="1.832"/><path d="M268.66 274.49l21.981-21.984" stroke="#B1B2B3" stroke-width="2" stroke-linecap="round" stroke-linejoin="round"/><circle cx="293.077" cy="250.069" transform="rotate(-90 293.077 250.069)" fill="#B1B2B3" r="1.832"/><path d="M410.308 411.286h29.307m-14.653 14.656V396.63" stroke="#B1B2B3" stroke-width="2" stroke-miterlimit="10"/><circle cx="630.115" cy="264.725" transform="rotate(-90 630.115 264.725)" fill="#B1B2B3" r=".916"/><path d="M632.661 267.272l54.788 54.795" stroke="#B1B2B3" stroke-linecap="round" stroke-linejoin="round"/><circle cx="688.731" cy="323.35" transform="rotate(-90 688.731 323.35)" fill="#B1B2B3" r=".916"/><circle cx="483.577" cy="528.535" transform="rotate(-90 483.577 528.535)" fill="#B1B2B3" r=".916"/><path d="M481.031 525.988l-54.787-54.795" stroke="#B1B2B3" stroke-linecap="round" stroke-linejoin="round"/><circle cx="424.962" cy="469.91" transform="rotate(-90 424.962 469.91)" fill="#B1B2B3" r=".916"/><circle cx="718.038" cy="763.032" transform="rotate(-90 718.038 763.032)" fill="#B1B2B3" r=".916"/><path d="M715.437 760.43L602.108 647.084" stroke="#B1B2B3" stroke-linecap="round" stroke-linejoin="round"/><circle cx="600.808" cy="645.783" transform="rotate(-90 600.808 645.783)" fill="#B1B2B3" r=".916"/><path d="M772.99 411.286h-82.428" stroke="#B1B2B3" stroke-linecap="round" stroke-linejoin="round"/><circle cx="688.731" cy="411.286" transform="rotate(-90 688.731 411.286)" fill="#B1B2B3" r=".916"/><circle cx="600.808" cy="528.535" transform="rotate(-90 600.808 528.535)" fill="#B1B2B3" r=".916"/><path d="M604.471 528.535h111.736" stroke="#B1B2B3" stroke-linecap="round" stroke-linejoin="round"/><circle cx="718.038" cy="528.535" transform="rotate(-90 718.038 528.535)" fill="#B1B2B3" r=".916"/><circle cx="718.038" cy="294.037" transform="rotate(-90 718.038 294.037)" fill="#B1B2B3" r=".916"/><path d="M720.585 291.491l54.787-54.795" stroke="#B1B2B3" stroke-linecap="round" stroke-linejoin="round"/><circle cx="512.885" cy="616.471" transform="rotate(-90 512.885 616.471)" fill="#B1B2B3" r=".916"/><path d="M510.302 613.888l-84.04-84.053" stroke="#B1B2B3" stroke-linecap="round" stroke-linejoin="round"/><circle cx="424.962" cy="528.535" transform="rotate(-90 424.962 528.535)" fill="#B1B2B3" r=".916"/><circle cx="395.654" cy="499.222" transform="rotate(-90 395.654 499.222)" fill="#B1B2B3" r=".916"/><path d="M393.108 496.676l-54.787-54.795" stroke="#B1B2B3" stroke-linecap="round" stroke-linejoin="round"/><circle cx="337.038" cy="440.598" transform="rotate(-90 337.038 440.598)" fill="#B1B2B3" r=".916"/><circle cx="337.038" cy="440.598" transform="rotate(-90 337.038 440.598)" fill="#B1B2B3" r=".916"/><path d="M333.375 440.598H163.024" stroke="#B1B2B3" stroke-linecap="round" stroke-linejoin="round"/><circle cx="161.192" cy="440.598" transform="rotate(-90 161.192 440.598)" fill="#B1B2B3" r=".916"/><circle cx="131.885" cy="469.91" transform="rotate(-90 131.885 469.91)" fill="#B1B2B3" r=".916"/><path d="M135.548 469.91h170.351" stroke="#B1B2B3" stroke-linecap="round" stroke-linejoin="round"/><circle cx="307.731" cy="469.91" transform="rotate(-90 307.731 469.91)" fill="#B1B2B3" r=".916"/><circle cx="512.885" cy="675.095" transform="rotate(-90 512.885 675.095)" fill="#B1B2B3" r=".916"/><path d="M510.284 672.494L309.031 471.211" stroke="#B1B2B3" stroke-linecap="round" stroke-linejoin="round"/><circle cx="307.731" cy="469.91" transform="rotate(-90 307.731 469.91)" fill="#B1B2B3" r=".916"/><circle cx="512.885" cy="733.72" transform="rotate(-90 512.885 733.72)" fill="#B1B2B3" r=".916"/><path d="M516.548 733.72h170.351" stroke="#B1B2B3" stroke-linecap="round" stroke-linejoin="round"/><circle cx="688.731" cy="733.72" transform="rotate(-90 688.731 733.72)" fill="#B1B2B3" r=".916"/><circle cx="512.885" cy="411.286" transform="rotate(-90 512.885 411.286)" fill="#B1B2B3" r=".916"/><path d="M510.284 408.685l-113.33-113.347" stroke="#B1B2B3" stroke-linecap="round" stroke-linejoin="round"/><circle cx="395.654" cy="294.037" transform="rotate(-90 395.654 294.037)" fill="#B1B2B3" r=".916"/><circle cx="395.654" cy="206.101" transform="rotate(-90 395.654 206.101)" fill="#B1B2B3" r=".916"/><path d="M398.31 203.445l25.314-25.319" stroke="#B1B2B3" stroke-linecap="round" stroke-linejoin="round"/><circle cx="424.962" cy="176.789" transform="rotate(-90 424.962 176.789)" fill="#B1B2B3" r=".916"/><circle cx="600.808" cy="294.037" transform="rotate(-90 600.808 294.037)" fill="#B1B2B3" r=".916"/><path d="M597.144 294.037h-53.12" stroke="#B1B2B3" stroke-linecap="round" stroke-linejoin="round"/><circle cx="542.192" cy="294.037" transform="rotate(-90 542.192 294.037)" fill="#B1B2B3" r=".916"/><path d="M774.108 174.242l-54.787-54.795" stroke="#B1B2B3" stroke-linecap="round" stroke-linejoin="round"/><circle cx="718.038" cy="118.165" transform="rotate(-90 718.038 118.165)" fill="#B1B2B3" r=".916"/><circle cx="542.192" cy="587.159" transform="rotate(-90 542.192 587.159)" fill="#B1B2B3" r=".916"/><path d="M545.856 587.159h111.735" stroke="#B1B2B3" stroke-linecap="round" stroke-linejoin="round"/><circle cx="659.423" cy="587.159" transform="rotate(-90 659.423 587.159)" fill="#B1B2B3" r=".916"/><path d="M370.01 294.037a3.665 3.665 0 10-7.33.001 3.665 3.665 0 007.33-.001zm87.923 439.683a3.663 3.663 0 10-7.327-.001 3.663 3.663 0 007.327.001zm29.307 29.312a3.663 3.663 0 10-7.326-.002 3.663 3.663 0 007.326.002zm234.462 0a3.663 3.663 0 10-7.327-.001 3.663 3.663 0 007.327.001zm-58.615-644.867a3.664 3.664 0 10-7.328 0 3.664 3.664 0 007.328 0zm58.615 58.624a3.663 3.663 0 10-7.327-.001 3.663 3.663 0 007.327.001zm-87.923 87.936a3.664 3.664 0 10-7.328 0 3.664 3.664 0 007.328 0zm-87.923-87.936a3.663 3.663 0 10-7.327-.001 3.663 3.663 0 007.327.001zm-234.462 0a3.663 3.663 0 10-7.326-.002 3.663 3.663 0 007.326.002zm117.231 0a3.663 3.663 0 10-7.326-.002 3.663 3.663 0 007.326.002zm-58.615 58.624a3.665 3.665 0 10-7.33.001 3.665 3.665 0 007.33-.001zm-117.231 0a3.664 3.664 0 10-7.328 0 3.664 3.664 0 007.328 0zm-29.308 0a3.664 3.664 0 10-7.328 0 3.664 3.664 0 007.328 0zm-14.654-14.656a3.663 3.663 0 10-7.326-.002 3.663 3.663 0 007.326.002zm29.308 0a3.663 3.663 0 10-7.326-.002 3.663 3.663 0 007.326.002zm14.654 73.28a3.664 3.664 0 10-7.328 0 3.664 3.664 0 007.328 0zM135.548 411.286a3.663 3.663 0 10-7.326-.002 3.663 3.663 0 007.326.002zm410.308 293.121a3.664 3.664 0 10-7.328 0 3.664 3.664 0 007.328 0zm-58.616 87.937a3.663 3.663 0 10-7.326-.002 3.663 3.663 0 007.326.002zm234.462 0a3.663 3.663 0 10-7.327-.001 3.663 3.663 0 007.327.001zm-29.308-381.058a3.663 3.663 0 10-7.326-.002 3.663 3.663 0 007.326.002zM370.01 528.535a3.664 3.664 0 10-7.328 0 3.664 3.664 0 007.328 0zm117.23 0a3.663 3.663 0 10-7.326-.002 3.663 3.663 0 007.326.002zm0-117.249a3.663 3.663 0 10-7.326-.002 3.663 3.663 0 007.326.002zm-117.23 0a3.664 3.664 0 10-7.328 0 3.664 3.664 0 007.328 0zm234.461 117.249a3.663 3.663 0 10-7.326-.002 3.663 3.663 0 007.326.002zm-263.769-87.937a3.664 3.664 0 10-7.328 0 3.664 3.664 0 007.328 0zm-29.308 29.312a3.664 3.664 0 10-7.328 0 3.664 3.664 0 007.328 0zm29.308 205.185a3.664 3.664 0 10-7.328 0 3.664 3.664 0 007.328 0zm29.308-29.312a3.665 3.665 0 10-7.33.001 3.665 3.665 0 007.33-.001zm-47.625 146.561h-14.654v-14.656l14.654 14.656z" fill="#B1B2B3"/><circle cx="739.268" cy="792.344" transform="rotate(-90 739.268 792.344)" fill="#B1B2B3" r=".916"/><path d="M742.932 792.344h33.722l174.545-174.572" stroke="#B1B2B3" stroke-linecap="round" stroke-linejoin="round"/><path d="M740.605 796.906l-7.913-4.562 7.913-4.562v9.124z" fill="#B1B2B3"/><path d="M307.731.916l117.231 117.249M307.731 15.572l102.577 102.593M307.731 30.228l87.923 87.937m-87.923-73.281L381 118.165M307.731 59.54l58.615 58.625m-58.615-43.969l43.961 43.969m-43.961-29.313l29.307 29.313m-29.307-14.657l14.654 14.657" stroke="#B1B2B3" stroke-linecap="round" stroke-linejoin="round"/><circle cx="307.731" cy="118.165" transform="rotate(-90 307.731 118.165)" fill="#B1B2B3" r=".916"/><path d="M542.192 103.508L439.615.916m102.577 87.936L454.269.916m87.923 73.28L468.923.916m73.269 58.624L483.577.916m58.615 43.968L498.231.916m43.961 29.312L512.885.916m29.307 14.656L527.538.916" stroke="#B1B2B3" stroke-linecap="round" stroke-linejoin="round"/><circle cx="542.192" cy=".916" transform="rotate(-90 542.192 .916)" fill="#B1B2B3" r=".916"/><path d="M424.962.916l117.23 117.249M410.308.916l117.23 117.249M395.654.916l117.231 117.249M381 .916l117.231 117.249M366.346.916l117.231 117.249M351.692.916l117.231 117.249M337.038.916l117.231 117.249M322.385.916l117.23 117.249" stroke="#B1B2B3" stroke-linecap="round" stroke-linejoin="round"/><path d="M765.663 484.566a3.664 3.664 0 10-7.328 0 3.664 3.664 0 007.328 0zm-43.961-190.529a3.664 3.664 0 10-7.328 0 3.664 3.664 0 007.328 0zm-58.615-58.624a3.665 3.665 0 10-7.33.001 3.665 3.665 0 007.33-.001zm-58.616 58.624a3.664 3.664 0 10-7.328 0 3.664 3.664 0 007.328 0zm58.616 58.625a3.664 3.664 0 10-7.328 0 3.664 3.664 0 007.328 0zM487.24 176.789a3.663 3.663 0 10-7.326-.002 3.663 3.663 0 007.326.002zm58.616 410.37a3.663 3.663 0 10-7.327-.001 3.663 3.663 0 007.327.001zm-58.616 58.624a3.664 3.664 0 10-7.328 0 3.664 3.664 0 007.328 0zm87.923 29.312a3.664 3.664 0 10-7.328 0 3.664 3.664 0 007.328 0zm29.308-29.312a3.664 3.664 0 10-7.328 0 3.664 3.664 0 007.328 0zm-58.615-234.497a3.663 3.663 0 10-7.327-.001 3.663 3.663 0 007.327.001zm-234.462 0a3.663 3.663 0 10-7.326-.002 3.663 3.663 0 007.326.002zm-58.615 0a3.663 3.663 0 10-7.327-.001 3.663 3.663 0 007.327.001zm351.692 58.624a3.664 3.664 0 10-7.328 0 3.664 3.664 0 007.328 0zm58.616-58.624a3.664 3.664 0 10-7.328 0 3.664 3.664 0 007.328 0zm-58.616-58.624a3.663 3.663 0 10-7.326-.002 3.663 3.663 0 007.326.002zm-396.24-144.143c.733-.696 1.392-1.612 1.392-2.986s-.842-2.418-2.143-2.418c-1.392 0-2.326.952-2.326 3.737H204c0-2.491-.953-3.316-2.18-3.316-1.136 0-1.85.77-1.85 2.015 0 .971.495 1.796 1.191 2.492l-.953.806c-.842-.898-1.465-1.979-1.465-3.353 0-2.033 1.08-3.499 2.967-3.499 1.411 0 2.308.861 2.784 2.125h.074c.329-1.41 1.355-2.528 2.967-2.528 2.07 0 3.334 1.704 3.334 3.848 0 1.868-.788 3.059-1.649 3.847l-.989-.77zm1.52-8.592c-3.498-3.517-5.605-5.496-7.491-5.496-1.337 0-2.29.733-2.29 2.217 0 .971.623 1.814 1.41 2.491l-.86.861c-1.063-.971-1.777-2.015-1.777-3.535 0-2.162 1.374-3.5 3.443-3.5 2.198 0 4.378 1.997 7.272 4.764a24.313 24.313 0 01-.11-1.961v-3.389h1.301v7.548h-.898zm-1.19-10.662c0-.586.476-1.081 1.172-1.081.66 0 1.136.495 1.136 1.081s-.476 1.099-1.136 1.099c-.696 0-1.172-.495-1.172-1.099zm-3.792-3.078c-3.92 0-6.026-1.411-6.026-3.756 0-2.345 2.106-3.737 6.026-3.737s6.1 1.411 6.1 3.737c0 2.327-2.18 3.756-6.1 3.756zm0-6.027c-3.425 0-4.817.916-4.817 2.271 0 1.356 1.392 2.29 4.817 2.29 3.425 0 4.891-.916 4.891-2.29s-1.466-2.271-4.891-2.271zm165.827 101.438v-2.675h-8.609v2.126h-.971c-.183-1.063-.476-1.833-.861-2.474v-1.154h10.441v-2.418h1.245v6.595h-1.245zm-1.979-16.25v1.594h3.224v1.429h-3.224v5.258h-.989l-7.473-5.002v-1.685h7.254v-1.594h1.208zm-1.208 3.023h-3.389c-.623 0-1.63-.055-2.253-.092v.074c.568.293 1.081.623 1.648.952l3.994 2.73v-3.664zm2.344-5.826c0-.586.476-1.081 1.172-1.081.66 0 1.136.495 1.136 1.081s-.476 1.099-1.136 1.099c-.696 0-1.172-.494-1.172-1.099zm-3.792-3.078c-3.919 0-6.026-1.41-6.026-3.755 0-2.345 2.107-3.737 6.026-3.737 3.92 0 6.1 1.41 6.1 3.737 0 2.326-2.18 3.755-6.1 3.755zm0-6.027c-3.425 0-4.817.916-4.817 2.272 0 1.355 1.392 2.29 4.817 2.29 3.426 0 4.891-.916 4.891-2.29s-1.465-2.272-4.891-2.272zM662.5 105.927c.733-.696 1.392-1.612 1.392-2.986s-.842-2.419-2.143-2.419c-1.392 0-2.326.953-2.326 3.738h-1.154c0-2.492-.952-3.316-2.18-3.316-1.135 0-1.85.769-1.85 2.015 0 .971.495 1.795 1.191 2.491l-.953.806c-.842-.897-1.465-1.978-1.465-3.352 0-2.034 1.081-3.5 2.967-3.5 1.411 0 2.308.862 2.785 2.126h.073c.33-1.411 1.355-2.528 2.967-2.528 2.07 0 3.334 1.704 3.334 3.847 0 1.869-.788 3.059-1.649 3.847l-.989-.769zm-3.718-10.809h-.073c-.605.861-1.466 1.63-2.693 1.63-1.795 0-3.004-1.429-3.004-3.316 0-2.033 1.301-3.297 3.114-3.297 1.227 0 2.271.897 2.821 1.612h.073c.605-1.044 1.429-2.034 3.004-2.034 1.74 0 3.114 1.503 3.114 3.774 0 2.272-1.355 3.83-3.205 3.83-1.521 0-2.565-1.1-3.151-2.2zm5.239-1.667c0-1.356-.843-2.29-2.052-2.29-1.502 0-2.051 1.484-2.729 3.17.623.933 1.484 1.63 2.546 1.63 1.301 0 2.235-1.081 2.235-2.51zm-7.822-2.015c-1.154 0-2.07.75-2.07 2.033 0 1.08.751 1.887 1.887 1.887 1.392 0 1.978-1.282 2.528-2.693-.696-.788-1.484-1.227-2.345-1.227zm6.631-4.764c0-.586.476-1.08 1.172-1.08.66 0 1.136.494 1.136 1.08 0 .587-.476 1.1-1.136 1.1-.696 0-1.172-.495-1.172-1.1zm.128-4.048c.568-.477.934-1.191.934-1.924 0-1.649-1.282-3.041-5.018-3.096.934.733 1.502 1.777 1.502 2.748 0 2.015-1.209 3.316-3.609 3.316-2.235 0-3.755-1.576-3.755-3.444 0-2.309 1.868-4.03 5.623-4.03 4.69 0 6.503 2.124 6.503 4.451 0 1.246-.531 2.18-1.227 2.821l-.953-.842zm-5.275-4.983c-2.271.201-3.48 1.099-3.48 2.583 0 1.135 1.025 2.033 2.564 2.033 1.539 0 2.473-.714 2.473-2.162 0-.75-.44-1.667-1.557-2.454z" fill="#B1B2B3"/></g><defs><clipPath id="clip0_425_249"><path fill="#fff" transform="matrix(0 -1 1 0 0 807)" d="M0 0h807v1143H0z"/></clipPath></defs></svg>