<svg width="422" height="1143" fill="none" xmlns="http://www.w3.org/2000/svg"><g clip-path="url(#clip0_75_7053)"><path d="M274.523 622.788h-21.984v-21.98h-14.656v21.98h-21.984v14.654h21.984v21.981h14.656v-21.981h21.984v-14.654z" fill="#1397DE"/><circle cx="142.619" cy="263.769" fill="#B1B2B3" r="1.832"/><path d="M147.51 268.66l21.984 21.981" stroke="#B1B2B3" stroke-width="2" stroke-linecap="round" stroke-linejoin="round"/><circle cx="171.931" cy="293.077" fill="#B1B2B3" r="1.832"/><path d="M10.714 410.308v29.307m-14.656-14.653H25.37" stroke="#B1B2B3" stroke-width="2" stroke-miterlimit="10"/><circle cx="157.275" cy="630.115" fill="#B1B2B3" r=".916"/><path d="M154.728 632.662l-54.795 54.787" stroke="#B1B2B3" stroke-linecap="round" stroke-linejoin="round"/><circle cx="98.65" cy="688.731" fill="#B1B2B3" r=".916"/><circle cx="127.963" cy="835.269" fill="#B1B2B3" r=".916"/><path d="M130.509 837.815l54.795 54.787" stroke="#B1B2B3" stroke-linecap="round" stroke-linejoin="round"/><circle cx="186.587" cy="893.885" fill="#B1B2B3" r=".916"/><path d="M-74.64 861.994l84.053-84.04" stroke="#B1B2B3" stroke-linecap="round" stroke-linejoin="round"/><circle cx="10.714" cy="776.654" fill="#B1B2B3" r=".916"/><circle cx="10.714" cy="776.654" fill="#B1B2B3" r=".916"/><path d="M10.714 772.99v-82.428" stroke="#B1B2B3" stroke-linecap="round" stroke-linejoin="round"/><circle cx="10.714" cy="688.731" fill="#B1B2B3" r=".916"/><circle cx="10.714" cy="776.654" fill="#B1B2B3" r=".916"/><path d="M13.297 779.237l84.053 84.039" stroke="#B1B2B3" stroke-linecap="round" stroke-linejoin="round"/><circle cx="98.65" cy="864.577" fill="#B1B2B3" r=".916"/><circle cx="127.963" cy="718.039" fill="#B1B2B3" r=".916"/><path d="M130.509 720.585l54.795 54.787" stroke="#B1B2B3" stroke-linecap="round" stroke-linejoin="round"/><circle cx="186.587" cy="776.654" fill="#B1B2B3" r=".916"/><circle cx="10.714" cy="512.885" fill="#B1B2B3" r=".916"/><path d="M13.315 510.284l113.347-113.33" stroke="#B1B2B3" stroke-linecap="round" stroke-linejoin="round"/><circle cx="127.963" cy="395.654" fill="#B1B2B3" r=".916"/><circle cx="215.899" cy="395.654" fill="#B1B2B3" r=".916"/><path d="M218.555 398.31l25.319 25.314" stroke="#B1B2B3" stroke-linecap="round" stroke-linejoin="round"/><circle cx="245.211" cy="424.962" fill="#B1B2B3" r=".916"/><circle cx="127.963" cy="600.808" fill="#B1B2B3" r=".916"/><path d="M127.963 597.144v-53.12" stroke="#B1B2B3" stroke-linecap="round" stroke-linejoin="round"/><circle cx="127.963" cy="542.192" fill="#B1B2B3" r=".916"/><circle cx="245.211" cy="776.654" fill="#B1B2B3" r=".916"/><path d="M247.758 774.108l54.795-54.787" stroke="#B1B2B3" stroke-linecap="round" stroke-linejoin="round"/><circle cx="303.835" cy="718.038" fill="#B1B2B3" r=".916"/><path d="M127.962 370.01a3.664 3.664 0 100-7.328 3.664 3.664 0 000 7.328zm58.625 527.538a3.664 3.664 0 100-7.328 3.664 3.664 0 000 7.328zm58.624-58.615a3.663 3.663 0 10.001-7.327 3.663 3.663 0 00-.001 7.327zm58.624-175.846a3.664 3.664 0 100-7.328 3.664 3.664 0 000 7.328zm0 117.23a3.663 3.663 0 10.002-7.326 3.663 3.663 0 00-.002 7.326zm-58.624-58.615a3.663 3.663 0 10.001-7.327 3.663 3.663 0 00-.001 7.327zm-87.936-87.923a3.664 3.664 0 100-7.328 3.664 3.664 0 000 7.328zm87.936-87.923a3.663 3.663 0 10.001-7.327 3.663 3.663 0 00-.001 7.327zm0-234.462a3.663 3.663 0 10.002-7.326 3.663 3.663 0 00-.002 7.326zm0 117.231a3.663 3.663 0 10.002-7.326 3.663 3.663 0 00-.002 7.326zm-58.624-58.615a3.665 3.665 0 10-.001-7.33 3.665 3.665 0 00.001 7.33zm0-117.231a3.664 3.664 0 100-7.328 3.664 3.664 0 000 7.328zm0-29.308a3.664 3.664 0 100-7.328 3.664 3.664 0 000 7.328zm14.656-14.654a3.663 3.663 0 10.002-7.326 3.663 3.663 0 00-.002 7.326zm0 29.308a3.663 3.663 0 10.002-7.326 3.663 3.663 0 00-.002 7.326zm-73.281 14.654a3.663 3.663 0 10.001-7.327 3.663 3.663 0 00-.001 7.327zM10.714 135.548a3.664 3.664 0 100-7.327 3.664 3.664 0 000 7.327zm0 732.692a3.664 3.664 0 100-7.327 3.664 3.664 0 000 7.327zm0-175.846a3.664 3.664 0 100-7.327 3.664 3.664 0 000 7.327zm87.936 87.923a3.663 3.663 0 10.001-7.326 3.663 3.663 0 000 7.326zm0 87.923a3.663 3.663 0 10.001-7.326 3.663 3.663 0 000 7.326zm-87.936-381a3.664 3.664 0 100-7.327 3.664 3.664 0 000 7.327zm0-117.23a3.664 3.664 0 100-7.329 3.664 3.664 0 000 7.329zm0 410.307a3.664 3.664 0 100-7.327 3.664 3.664 0 000 7.327z" fill="#B1B2B3"/><path d="M421.084 307.731L303.835 424.962m102.593-117.231L303.835 410.308m87.937-102.577l-87.937 87.923m73.281-87.923L303.835 381m58.625-73.269l-58.625 58.615m43.969-58.615l-43.969 43.961m29.313-43.961l-29.313 29.307m14.657-29.307l-14.657 14.654" stroke="#B1B2B3" stroke-linecap="round" stroke-linejoin="round"/><circle cx="303.835" cy="307.731" fill="#B1B2B3" r=".916"/><path d="M318.491 542.192l102.593-102.577m-87.936 102.577l87.936-87.923m-73.28 87.923l73.28-73.269m-58.624 73.269l58.624-58.615m-43.968 58.615l43.968-43.961m-29.312 43.961l29.312-29.307m-14.656 29.307l14.656-14.654" stroke="#B1B2B3" stroke-linecap="round" stroke-linejoin="round"/><circle cx="421.084" cy="542.192" fill="#B1B2B3" r=".916"/><path d="M421.084 424.962l-117.249 117.23m117.249-131.884l-117.249 117.23m117.249-131.884L303.835 512.885M421.084 381L303.835 498.231m117.249-131.885L303.835 483.577m117.249-131.885L303.835 468.923m117.249-131.885L303.835 454.269m117.249-131.884l-117.249 117.23" stroke="#B1B2B3" stroke-linecap="round" stroke-linejoin="round"/><path d="M127.962 721.702a3.663 3.663 0 10.001-7.327 3.663 3.663 0 00-.001 7.327zm58.625-58.615a3.665 3.665 0 10-.001-7.33 3.665 3.665 0 00.001 7.33zm-58.625-58.616a3.663 3.663 0 10.002-7.326 3.663 3.663 0 00-.002 7.326zm-58.624 58.616a3.664 3.664 0 100-7.329 3.664 3.664 0 000 7.329zM245.211 487.24a3.663 3.663 0 10.002-7.326 3.663 3.663 0 00-.002 7.326zM10.714 545.856a3.664 3.664 0 100-7.328 3.664 3.664 0 000 7.328zm0-234.462a3.664 3.664 0 100-7.327 3.664 3.664 0 000 7.327zm0-58.615a3.664 3.664 0 100-7.328 3.664 3.664 0 000 7.328zm0 410.308a3.664 3.664 0 100-7.329 3.664 3.664 0 000 7.329zm58.624-58.616a3.663 3.663 0 10.001-7.327 3.663 3.663 0 000 7.327zM58.73 776.013v-.074c-.86-.604-1.63-1.465-1.63-2.692 0-1.795 1.43-3.004 3.316-3.004 2.034 0 3.298 1.3 3.298 3.114 0 1.227-.898 2.271-1.612 2.821v.073c1.044.604 2.033 1.429 2.033 3.004 0 1.74-1.502 3.114-3.774 3.114-2.271 0-3.828-1.356-3.828-3.206 0-1.52 1.099-2.564 2.198-3.15zm1.668 5.239c1.356 0 2.29-.843 2.29-2.052 0-1.502-1.484-2.052-3.17-2.729-.934.622-1.63 1.483-1.63 2.546 0 1.3 1.081 2.235 2.51 2.235zm2.015-7.822c0-1.154-.75-2.07-2.033-2.07-1.081 0-1.887.751-1.887 1.887 0 1.392 1.282 1.978 2.693 2.528.788-.696 1.227-1.484 1.227-2.345zm9.783-1.007a2.545 2.545 0 00-1.923-.916c-1.63 0-3.005 1.264-3.078 4.964.733-.898 1.777-1.466 2.73-1.466 2.015 0 3.334 1.209 3.334 3.609 0 2.235-1.576 3.755-3.463 3.755-2.29 0-4.03-1.869-4.03-5.624 0-4.689 2.125-6.502 4.452-6.502 1.264 0 2.161.531 2.82 1.245l-.842.935zm-.366 6.191c0-1.521-.715-2.473-2.162-2.473-.733 0-1.649.44-2.437 1.539.184 2.271 1.081 3.498 2.565 3.498 1.154 0 2.034-1.026 2.034-2.564zm4.452 1.447c.586 0 1.08.476 1.08 1.172 0 .66-.494 1.136-1.08 1.136-.587 0-1.1-.476-1.1-1.136 0-.696.495-1.172 1.1-1.172zm3.718.842h2.675v-8.609H80.55v-.97c1.063-.184 1.832-.477 2.473-.861h1.154v10.44h2.419v1.246H80v-1.246zm133.481-572.672c.696.733 1.612 1.392 2.986 1.392s2.418-.842 2.418-2.143c0-1.392-.952-2.326-3.737-2.326V204c2.491 0 3.316-.953 3.316-2.18 0-1.136-.77-1.85-2.015-1.85-.971 0-1.796.495-2.492 1.191l-.806-.953c.898-.842 1.979-1.465 3.353-1.465 2.033 0 3.499 1.081 3.499 2.967 0 1.411-.861 2.308-2.125 2.784v.074c1.41.329 2.528 1.355 2.528 2.967 0 2.07-1.704 3.334-3.848 3.334-1.868 0-3.059-.788-3.847-1.649l.77-.989zm8.592 1.521c3.517-3.499 5.496-5.606 5.496-7.492 0-1.337-.733-2.29-2.217-2.29-.971 0-1.814.623-2.491 1.41l-.861-.86c.97-1.063 2.015-1.777 3.535-1.777 2.162 0 3.499 1.374 3.499 3.443 0 2.199-1.996 4.378-4.763 7.272a24.303 24.303 0 011.961-.109h3.389v1.3h-7.548v-.897zm10.662-1.191c.586 0 1.081.476 1.081 1.172 0 .66-.495 1.136-1.081 1.136s-1.099-.476-1.099-1.136c0-.696.495-1.172 1.099-1.172zm3.078-3.792c0-3.92 1.411-6.026 3.756-6.026 2.344 0 3.737 2.106 3.737 6.026s-1.411 6.1-3.737 6.1c-2.327 0-3.756-2.18-3.756-6.1zm6.027 0c0-3.425-.916-4.817-2.271-4.817-1.356 0-2.29 1.392-2.29 4.817 0 3.426.916 4.891 2.29 4.891s2.271-1.465 2.271-4.891zM140.402 370.596h2.675v-8.609h-2.126v-.971c1.063-.183 1.832-.476 2.474-.861h1.154v10.441h2.418v1.245h-6.595v-1.245zm16.25-1.978h-1.594v3.223h-1.429v-3.223h-5.258v-.99l5.001-7.473h1.686v7.254h1.594v1.209zm-3.023-1.209v-3.389c0-.623.055-1.63.092-2.253h-.074c-.293.568-.623 1.081-.952 1.648l-2.73 3.994h3.664zm5.826 2.344c.586 0 1.081.476 1.081 1.172 0 .66-.495 1.136-1.081 1.136-.587 0-1.1-.476-1.1-1.136 0-.696.495-1.172 1.1-1.172zm3.077-3.792c0-3.919 1.411-6.026 3.756-6.026 2.345 0 3.737 2.107 3.737 6.026 0 3.92-1.41 6.1-3.737 6.1s-3.756-2.18-3.756-6.1zm6.028 0c0-3.425-.916-4.817-2.272-4.817-1.356 0-2.29 1.392-2.29 4.817 0 3.426.916 4.891 2.29 4.891s2.272-1.465 2.272-4.891zM316.073 662.5c.696.733 1.612 1.393 2.986 1.393s2.419-.843 2.419-2.144c0-1.392-.953-2.326-3.738-2.326v-1.154c2.492 0 3.316-.952 3.316-2.18 0-1.135-.769-1.85-2.015-1.85-.971 0-1.795.495-2.491 1.191l-.807-.953c.898-.842 1.979-1.465 3.353-1.465 2.034 0 3.499 1.081 3.499 2.967 0 1.411-.861 2.308-2.125 2.785v.073c1.411.33 2.528 1.355 2.528 2.967 0 2.07-1.704 3.334-3.847 3.334-1.869 0-3.059-.788-3.847-1.648l.769-.99zm10.809-3.718v-.073c-.861-.605-1.63-1.466-1.63-2.693 0-1.795 1.429-3.004 3.316-3.004 2.033 0 3.297 1.301 3.297 3.114 0 1.227-.897 2.271-1.612 2.821v.073c1.044.605 2.034 1.429 2.034 3.004 0 1.74-1.503 3.114-3.774 3.114-2.272 0-3.829-1.355-3.829-3.205 0-1.521 1.099-2.565 2.198-3.151zm1.667 5.239c1.356 0 2.29-.843 2.29-2.052 0-1.502-1.484-2.051-3.169-2.729-.934.623-1.631 1.484-1.631 2.546 0 1.301 1.081 2.235 2.51 2.235zm2.015-7.822c0-1.154-.751-2.07-2.033-2.07-1.081 0-1.887.751-1.887 1.887 0 1.392 1.282 1.978 2.693 2.528.788-.696 1.227-1.484 1.227-2.345zm4.764 6.631c.586 0 1.08.476 1.08 1.172 0 .66-.494 1.136-1.08 1.136-.587 0-1.1-.476-1.1-1.136 0-.696.495-1.172 1.1-1.172zm4.048.128c.477.568 1.191.935 1.924.935 1.649 0 3.041-1.283 3.096-5.019-.733.934-1.777 1.502-2.748 1.502-2.015 0-3.316-1.209-3.316-3.609 0-2.235 1.576-3.755 3.444-3.755 2.309 0 4.031 1.868 4.031 5.623 0 4.69-2.125 6.503-4.452 6.503a3.737 3.737 0 01-2.821-1.227l.842-.953zm4.983-5.275c-.201-2.271-1.099-3.48-2.583-3.48-1.136 0-2.033 1.025-2.033 2.564 0 1.539.714 2.473 2.162 2.473.751 0 1.667-.44 2.454-1.557z" fill="#B1B2B3"/></g><defs><clipPath id="clip0_75_7053"><path fill="#fff" transform="translate(-385)" d="M0 0h807v1143H0z"/></clipPath></defs></svg>