<svg width="36" height="36" fill="none" xmlns="http://www.w3.org/2000/svg"><path d="M18 0C8.075 0 0 8.075 0 18s8.075 18 18 18 18-8.075 18-18S27.925 0 18 0zm0 33.75C9.315 33.75 2.25 26.685 2.25 18 2.25 9.315 9.315 2.25 18 2.25c8.685 0 15.75 7.065 15.75 15.75 0 8.685-7.065 15.75-15.75 15.75zm7.545-16.545c.44.44.44 1.151 0 1.59L19.92 24.42a1.122 1.122 0 01-1.59 0 1.124 1.124 0 010-1.59l3.704-3.705H11.25a1.125 1.125 0 110-2.25h10.784L18.33 13.17a1.124 1.124 0 111.59-1.59l5.625 5.625z" fill="#1397DE"/></svg>