<svg width="100" height="100" fill="none" xmlns="http://www.w3.org/2000/svg"><mask id="a" style="mask-type:luminance" maskUnits="userSpaceOnUse" x="0" y="0" width="100" height="100"><path d="M0 0h99.18v100H0V0z" fill="#fff"/></mask><g mask="url(#a)" stroke="#0072AF" stroke-width="3" stroke-miterlimit="10" stroke-linecap="round" stroke-linejoin="round"><path d="M33.576 23.047c0 7.335-5.897 13.281-13.172 13.281S7.23 30.382 7.23 23.047c0-7.335 5.898-13.281 13.173-13.281s13.172 5.946 13.172 13.28zm32.028 0c0 7.335 5.897 13.281 13.172 13.281S91.95 30.382 91.95 23.047c0-7.335-5.898-13.281-13.173-13.281s-13.172 5.946-13.172 13.28zM49.59 44.14L22.604 90.235h53.972L49.59 44.141z"/><path d="M40.872 36.328H5.812c-2.14 0-3.875 1.749-3.875 3.906 0 2.158 1.735 3.907 3.874 3.907H93.37c2.14 0 3.874-1.75 3.874-3.907s-1.734-3.906-3.874-3.906H58.306"/></g></svg>