<svg width="99" height="100" fill="none" xmlns="http://www.w3.org/2000/svg"><path d="M49.411 95c-11.876 0-23.042-4.68-31.44-13.174C7.49 71.229 2.93 56.108 5.773 41.379a1.724 1.724 0 012.02-1.376 1.739 1.739 0 011.36 2.043c-2.621 13.59 1.585 27.54 11.252 37.318 7.748 7.836 18.05 12.152 29.006 12.152 10.958 0 21.26-4.316 29.007-12.152 12.78-12.923 15.722-32.465 7.323-48.63a1.75 1.75 0 01.724-2.351 1.71 1.71 0 012.324.732c9.105 17.521 5.916 38.704-7.936 52.711C72.455 90.32 61.29 95 49.411 95zM11.867 31.08c-.279 0-.56-.067-.823-.212a1.753 1.753 0 01-.688-2.363A44.913 44.913 0 0117.97 18.23C31.82 4.22 52.765.994 70.09 10.203a1.75 1.75 0 01.724 2.35 1.71 1.71 0 01-2.325.733c-15.982-8.493-35.305-5.52-48.084 7.405a41.445 41.445 0 00-7.025 9.482 1.72 1.72 0 01-1.513.908z" fill="#0072AF"/><path d="M48.374 86.086c-9.164-.28-17.735-4.027-24.184-10.55-13.908-14.065-13.908-36.952 0-51.017 10.901-11.024 27.47-13.73 41.236-6.738a1.753 1.753 0 01.765 2.339 1.716 1.716 0 01-2.312.774c-12.433-6.319-27.408-3.871-37.254 6.087-12.565 12.708-12.565 33.385 0 46.093 5.828 5.892 13.57 9.277 21.8 9.53.95.029 1.698.832 1.669 1.794a1.73 1.73 0 01-1.72 1.688zm11.727-1.722a1.724 1.724 0 01-1.634-1.195 1.746 1.746 0 011.093-2.2c4.792-1.604 9.045-4.26 12.64-7.895 9.847-9.96 12.266-25.102 6.018-37.678a1.753 1.753 0 01.766-2.339 1.718 1.718 0 012.312.775c6.915 13.921 4.238 30.68-6.662 41.704-3.978 4.023-8.685 6.964-13.992 8.74-.18.059-.362.088-.54.088z" fill="#0072AF"/><path d="M35.933 35.009c-.5 0-.996-.22-1.336-.641a1.755 1.755 0 01.246-2.45c6.949-5.73 16.646-6.855 24.708-2.87a1.75 1.75 0 01.791 2.329 1.718 1.718 0 01-2.303.8 19.5 19.5 0 00-21.019 2.44c-.32.264-.705.392-1.087.392zm13.478 38.353a22.88 22.88 0 01-16.32-6.827c-6.575-6.648-8.566-16.576-5.072-25.292a1.715 1.715 0 012.242-.96 1.747 1.747 0 01.949 2.269c-2.974 7.416-1.278 15.863 4.315 21.52 7.656 7.743 20.115 7.746 27.774 0 5.932-6 7.444-15.15 3.763-22.77a1.751 1.751 0 01.79-2.329 1.715 1.715 0 012.304.8c4.328 8.956 2.55 19.71-4.422 26.762a22.881 22.881 0 01-16.322 6.827z" fill="#0072AF"/><path d="M49.411 61.5c-2.906 0-5.811-1.12-8.023-3.357-4.425-4.475-4.425-11.754 0-16.23 2.408-2.435 5.73-3.644 9.125-3.307a1.736 1.736 0 011.547 1.902 1.742 1.742 0 01-1.88 1.565 7.825 7.825 0 00-6.357 2.303c-3.08 3.117-3.08 8.187 0 11.304a7.85 7.85 0 0011.176 0 8.02 8.02 0 002.278-6.429c-.091-.957.6-1.81 1.547-1.902.932-.09 1.79.609 1.88 1.565.33 3.43-.862 6.793-3.27 9.229a11.25 11.25 0 01-8.023 3.356zm35.942-36.862c-.095 0-.189-.008-.282-.023l-7.817-1.311a1.733 1.733 0 01-1.418-1.434l-1.297-7.907a1.756 1.756 0 01.482-1.515L81.198 6.2a1.708 1.708 0 011.732-.432 1.74 1.74 0 011.18 1.351l1.189 6.614 6.54 1.203a1.729 1.729 0 011.335 1.193 1.755 1.755 0 01-.426 1.751l-6.178 6.248c-.326.33-.764.51-1.217.51zm-6.32-4.567l5.727.962 3.228-3.266-4.479-.823a1.73 1.73 0 01-1.385-1.401l-.814-4.53-3.229 3.264.951 5.794z" fill="#0072AF"/><path d="M49.411 51.77c-.44 0-.88-.17-1.217-.51a1.755 1.755 0 010-2.463l28.123-28.443a1.707 1.707 0 012.435 0c.673.68.673 1.782 0 2.462L50.63 51.26c-.336.34-.776.51-1.218.51z" fill="#0072AF"/><path d="M71.555 29.372a1.73 1.73 0 01-1.704-1.5l-1.115-8.09a1.74 1.74 0 011.468-1.967 1.73 1.73 0 011.944 1.484l1.115 8.09a1.74 1.74 0 01-1.708 1.983z" fill="#0072AF"/><path d="M79.56 30.5c-.08 0-.16-.006-.242-.017l-7.999-1.128a1.74 1.74 0 01-1.468-1.966 1.73 1.73 0 011.945-1.484l7.999 1.127A1.74 1.74 0 0181.262 29a1.73 1.73 0 01-1.703 1.5z" fill="#0072AF"/></svg>