<svg width="100" height="100" fill="none" xmlns="http://www.w3.org/2000/svg"><path d="M4.688 60.938h3.468a6.25 6.25 0 015.766 4.046 6.25 6.25 0 01-1.25 6.875l-2.453 2.438a1.56 1.56 0 000 2.219l1.562 1.562H9.375v3.125h5.594l3.125 3.125H12.5v3.125h8.719l2.218 2.328a1.564 1.564 0 002.22 0l2.468-2.453a6.531 6.531 0 0110.797 3.297H15.625v3.125h23.438v1.563a1.563 1.563 0 001.562 1.562h10.938V93.75h-9.376v-1.906a9.626 9.626 0 00-16.25-6.719l-1.343 1.344L13.53 75.406l1.344-1.344a9.375 9.375 0 001.89-10.374 9.375 9.375 0 00-8.609-5.876H6.25V42.188h1.906a9.375 9.375 0 008.656-5.97 9.375 9.375 0 00-1.937-10.28l-1.344-1.344L24.594 13.53l1.343 1.344a9.375 9.375 0 0010.375 1.89 9.375 9.375 0 005.876-8.609V6.25h3.124V3.125h-4.687a1.563 1.563 0 00-1.563 1.563v3.468a6.25 6.25 0 01-4.046 5.766 6.25 6.25 0 01-6.875-1.25l-2.438-2.453a1.561 1.561 0 00-2.219 0L10.22 23.438a1.563 1.563 0 000 2.218l2.453 2.469a6.25 6.25 0 011.219 6.969 6.25 6.25 0 01-5.735 3.968h-3.47a1.563 1.563 0 00-1.562 1.563v18.75a1.563 1.563 0 001.563 1.563zm90.625-21.875h-3.47a6.5 6.5 0 01-4.515-10.938l2.453-2.438a1.564 1.564 0 000-2.218l-1.562-1.563h2.406V18.75h-5.594l-3.125-3.125H87.5V12.5h-8.719l-2.219-2.281a1.563 1.563 0 00-2.218 0l-2.469 2.453a6.25 6.25 0 01-6.969 1.219 6.328 6.328 0 01-3.828-4.516h23.297V6.25H60.937V4.687a1.563 1.563 0 00-1.562-1.562H48.437V6.25h9.376v1.906a9.375 9.375 0 005.968 8.656 9.375 9.375 0 0010.282-1.937l1.343-1.344L86.47 24.594l-1.344 1.343a9.625 9.625 0 006.719 16.25h1.906v15.626h-1.906a9.626 9.626 0 00-6.719 16.25l1.344 1.343L75.406 86.47l-1.344-1.344a9.625 9.625 0 00-16.25 6.719v1.906h-3.124v3.125h4.687a1.563 1.563 0 001.563-1.563v-3.468a6.5 6.5 0 0110.937-4.516l2.438 2.453a1.564 1.564 0 002.218 0l13.25-13.219a1.564 1.564 0 000-2.218l-2.453-2.469a6.25 6.25 0 01-1.219-6.969 6.25 6.25 0 015.735-3.969h3.469a1.563 1.563 0 001.562-1.562v-18.75a1.563 1.563 0 00-1.563-1.563z" fill="#0072AF"/><path d="M21.875 50a28.125 28.125 0 1056.25 0 28.125 28.125 0 00-56.25 0zm26.563-24.922v6.172h3.124v-6.172A25 25 0 0175 48.438h-6.25v3.124H75A25 25 0 0151.562 75v-6.25h-3.124V75a25 25 0 01-23.36-23.438h6.172v-3.124h-6.172a25 25 0 0123.36-23.36z" fill="#0072AF"/><path d="M50 54.688a4.687 4.687 0 001.563-9.094V34.375h-3.126v11.219a4.686 4.686 0 00-2.843 2.843H34.375v3.126h11.219A4.686 4.686 0 0050 54.687zm0-6.25a1.563 1.563 0 110 3.125 1.563 1.563 0 010-3.126zM3.125 78.125H6.25v3.125H3.125v-3.125zm3.125 6.25h3.125V87.5H6.25v-3.125zm3.125 6.25H12.5v3.125H9.375v-3.125zM93.75 18.75h3.125v3.125H93.75V18.75zm-3.125-6.25h3.125v3.125h-3.125V12.5zM87.5 6.25h3.125v3.125H87.5V6.25z" fill="#0072AF"/></svg>