<svg width="24" height="22" fill="none" xmlns="http://www.w3.org/2000/svg"><path d="M20.145.617H3.832A3.097 3.097 0 00.738 3.711v9.983a3.097 3.097 0 003.083 3.093v4.53l6.51-4.53h9.814a3.097 3.097 0 003.093-3.093V3.71A3.097 3.097 0 0020.145.617zm1.775 13.077c0 .978-.796 1.775-1.775 1.775H9.918l-4.779 3.325V15.47H3.832a1.777 1.777 0 01-1.775-1.775V3.71c0-.98.796-1.775 1.775-1.775h16.313c.979 0 1.775.796 1.775 1.775v9.983z" fill="#4E5960"/><path d="M6.76 5.275h10.456v1.319H6.76V5.275zm0 2.813h10.456v1.318H6.76V8.088zm0 2.812h10.456v1.319H6.76V10.9z" fill="#4E5960"/></svg>