<svg width="221" height="72" fill="none" xmlns="http://www.w3.org/2000/svg"><rect width="220.5" height="72" rx="2" fill="#F6F6F6"/><path d="M17.152 50.605v2.531h.883c.503 0 .899-.098 1.186-.294.294-.203.441-.546.441-1.029 0-.42-.136-.724-.41-.913-.272-.197-.665-.294-1.175-.294h-.925zm0 3.665V57H15.82v-7.518h2.257c.924 0 1.642.182 2.153.546.511.364.767.945.767 1.743 0 .441-.074.819-.221 1.134a2.01 2.01 0 01-.598.777c-.26.203-.571.353-.935.451a4.979 4.979 0 01-1.207.137h-.883zm7.108-1.838c-.364 0-.665.105-.903.316-.231.21-.385.525-.462.945h2.51c.013-.42-.085-.735-.295-.945-.203-.21-.486-.316-.85-.316zm2.268 4.148a2.836 2.836 0 01-.609.305 3.987 3.987 0 01-.588.146 3.873 3.873 0 01-.798.074c-1.001 0-1.75-.248-2.247-.745-.49-.498-.735-1.194-.735-2.09 0-.441.066-.837.2-1.187.132-.35.318-.643.556-.881.238-.245.521-.431.85-.557a2.97 2.97 0 011.103-.2c.406 0 .773.067 1.102.2.33.133.599.332.809.598.217.267.367.599.451.998.084.399.084.861 0 1.386h-3.748c.049.476.21.833.483 1.071.28.238.693.357 1.239.357.224 0 .427-.017.609-.053a3.65 3.65 0 00.483-.136 3.44 3.44 0 00.346-.157c.098-.056.168-.102.21-.137l.284 1.008zm3.785-5.66c-.294 0-.55-.038-.766-.115a1.637 1.637 0 01-.546-.336 1.311 1.311 0 01-.326-.483 1.74 1.74 0 01-.105-.609h1.113c0 .245.056.42.168.525.112.105.266.157.462.157s.35-.052.462-.157c.112-.105.168-.28.168-.525h1.113c0 .217-.038.42-.115.609-.07.182-.179.343-.326.483a1.52 1.52 0 01-.535.336 2.294 2.294 0 01-.767.115zm-2.54.63h1.26v3.77l2.603-3.77h1.25V57h-1.26v-3.759L29.032 57h-1.26v-5.45zm9.02 1.03V57h-1.27v-4.42h-1.607v-1.03h4.515v1.03h-1.638zm2.669-1.03h1.26v3.77l2.604-3.77h1.25V57h-1.26v-3.759L40.721 57h-1.26v-5.45zm10.07 3.171h-2.278V57h-1.27v-5.45h1.27v2.143h2.278V51.55h1.281V57h-1.28v-2.279zm3.946-2.141V57h-1.27v-5.45h3.506v1.03h-2.236zm7.716 4.525a2.97 2.97 0 01-1.07-.189 2.508 2.508 0 01-.862-.546 2.705 2.705 0 01-.567-.892c-.14-.35-.21-.753-.21-1.208 0-.455.07-.858.21-1.208.14-.35.33-.643.567-.881.245-.245.532-.427.861-.546a2.97 2.97 0 011.071-.19c.385 0 .746.063 1.082.19.336.119.626.3.871.546.245.238.438.532.578.882.14.35.21.752.21 1.207 0 .455-.07.857-.21 1.207a2.62 2.62 0 01-.578.893c-.245.238-.535.42-.871.546a3.055 3.055 0 01-1.082.189zm0-1.04c.413 0 .753-.143 1.019-.43.273-.294.41-.749.41-1.365 0-.301-.04-.564-.116-.788a1.557 1.557 0 00-.294-.556 1.15 1.15 0 00-.452-.326 1.392 1.392 0 00-.567-.115 1.29 1.29 0 00-.997.441c-.266.287-.4.735-.4 1.344 0 .616.134 1.071.4 1.365.266.287.598.43.997.43zm6.53-.01c.42 0 .76-.147 1.019-.441.266-.301.399-.749.399-1.344 0-.595-.133-1.04-.4-1.334-.258-.3-.598-.451-1.018-.451-.21 0-.406.038-.588.115a1.24 1.24 0 00-.462.326 1.688 1.688 0 00-.304.556 2.425 2.425 0 00-.116.788c0 .301.039.563.116.787.077.224.178.41.304.557.133.147.287.259.462.336.182.07.378.105.588.105zm.315 1.05c-.413 0-.766-.091-1.06-.273a2.178 2.178 0 01-.714-.756v2.782h-1.27v-7.307h1.175l.074.944a2.15 2.15 0 01.714-.766c.3-.189.668-.283 1.102-.283.322 0 .627.059.914.178.294.112.55.287.766.525.217.231.389.525.515.882.133.35.2.763.2 1.239 0 .483-.067.903-.2 1.26-.126.35-.301.644-.525.882a2.142 2.142 0 01-.767.525 2.574 2.574 0 01-.924.168zm4.767-4.525V57h-1.27v-5.45h3.507v1.03h-2.237zm4.892 3.549a1.3 1.3 0 00.452-.074 1.7 1.7 0 00.357-.178 1.46 1.46 0 00.283-.253c.084-.09.154-.181.21-.273v-.829h-.619c-.525 0-.9.077-1.124.231a.726.726 0 00-.336.63c0 .231.067.413.2.546.133.133.326.2.578.2zm1.439.871l-.052-.357a9.96 9.96 0 01-.032-.42c-.077.112-.168.22-.273.325a1.895 1.895 0 01-.85.483 2.18 2.18 0 01-.589.074A2.08 2.08 0 0176.68 57a1.448 1.448 0 01-.903-.788 1.75 1.75 0 01-.126-.693c0-.587.217-1.035.651-1.343.434-.316 1.106-.473 2.016-.473h.683v-.273c0-.357-.095-.602-.284-.735-.189-.14-.476-.21-.861-.21-.336 0-.644.046-.924.136a4.87 4.87 0 00-.746.316l-.262-1.008c.224-.12.514-.228.871-.326a4.348 4.348 0 011.208-.157c.721 0 1.281.15 1.68.451.399.294.598.77.598 1.428v3.013c.007.078.011.158.011.242.007.084.01.165.01.242.007.07.014.129.021.178h-1.186zm6.028-2.279h-2.279V57h-1.27v-5.45h1.27v2.143h2.279V51.55h1.28V57h-1.28v-2.279zm2.675-3.171h1.26v3.77l2.604-3.77h1.25V57h-1.26v-3.759L89.1 57h-1.26v-5.45zm8.023 5.555c-.483 0-.879-.045-1.187-.136-.3-.099-.528-.203-.682-.316l.357-.986c.168.105.374.203.62.294.244.084.528.126.85.126.329 0 .595-.056.798-.169.21-.111.315-.294.315-.545 0-.245-.088-.42-.263-.526-.175-.105-.451-.157-.83-.157h-.776v-.956h.798c.294 0 .518-.049.672-.147.154-.105.23-.269.23-.493 0-.238-.09-.403-.272-.494a1.494 1.494 0 00-.672-.136c-.294 0-.56.042-.798.126a2.904 2.904 0 00-.63.283l-.252-.976c.175-.105.413-.206.714-.304a3.537 3.537 0 011.07-.148c.68 0 1.194.123 1.544.368.357.245.536.602.536 1.071 0 .357-.102.633-.305.83-.203.196-.497.339-.882.43.47.063.816.196 1.04.399.23.203.346.5.346.892 0 .287-.063.536-.189.746a1.6 1.6 0 01-.514.525c-.21.133-.459.231-.746.294-.28.07-.577.105-.892.105zm5.225-.976c.168 0 .318-.025.451-.074a1.7 1.7 0 00.357-.178 1.43 1.43 0 00.284-.253c.084-.09.154-.181.21-.273v-.829h-.62c-.525 0-.899.077-1.123.231a.726.726 0 00-.336.63c0 .231.066.413.199.546.133.133.326.2.578.2zm1.438.871l-.052-.357a9.991 9.991 0 01-.032-.42c-.077.112-.168.22-.273.325a1.892 1.892 0 01-.85.483 2.18 2.18 0 01-.588.074c-.231 0-.452-.035-.662-.105a1.448 1.448 0 01-.903-.788 1.75 1.75 0 01-.126-.693c0-.587.217-1.035.651-1.343.434-.316 1.106-.473 2.016-.473h.683v-.273c0-.357-.095-.602-.284-.735-.189-.14-.476-.21-.861-.21-.336 0-.644.046-.924.136a4.869 4.869 0 00-.745.316l-.263-1.008c.224-.12.515-.228.872-.326a4.344 4.344 0 011.207-.157c.721 0 1.281.15 1.68.451.399.294.599.77.599 1.428v3.013a2.7 2.7 0 01.01.242c.007.084.011.165.011.242.007.07.014.129.021.178h-1.187zm6.941 1.554L109.362 57h-4.357v-5.45h1.27v4.421h2.195v-4.42h1.281v4.42h.819v2.583h-1.103zm2.018-7.004h1.26v3.77l2.604-3.77h1.25V57h-1.26v-3.759L112.745 57h-1.26v-5.45zm9.063-.63c-.294 0-.55-.038-.767-.115a1.637 1.637 0 01-.546-.336 1.31 1.31 0 01-.325-.483 1.74 1.74 0 01-.105-.609h1.113c0 .245.056.42.168.525.112.105.266.157.462.157s.35-.052.462-.157c.112-.105.168-.28.168-.525h1.113c0 .217-.039.42-.116.609a1.31 1.31 0 01-.325.483c-.14.14-.319.252-.536.336a2.29 2.29 0 01-.766.115zm-2.541.63h1.26v3.77l2.604-3.77h1.249V57h-1.26v-3.759L119.267 57h-1.26v-5.45zm9.842.945v1.271h.83c.287 0 .518-.052.693-.157a.515.515 0 00.262-.473c0-.245-.077-.413-.231-.504-.147-.091-.364-.136-.651-.136h-.903zm0 2.153v1.407h.882c.322 0 .581-.049.777-.147.203-.098.305-.28.305-.546 0-.252-.091-.434-.273-.546-.175-.112-.459-.168-.851-.168h-.84zm-1.26-3.098h2.237c.707 0 1.228.113 1.564.337.343.216.515.556.515 1.018 0 .336-.095.602-.284.798-.189.196-.472.34-.85.43.455.078.791.221 1.008.431.224.203.336.497.336.882 0 .532-.21.924-.63 1.176-.42.252-.98.378-1.68.378h-2.216v-5.45zm11.753 1.534v-2.479h-1.102c-.469 0-.844.092-1.124.274-.273.181-.409.507-.409.976 0 .42.122.732.367.934.245.197.599.294 1.061.294h1.207zm0 1.081h-1.144L135.35 57h-1.502l2.048-3.024c-.525-.147-.914-.399-1.166-.756-.252-.364-.378-.816-.378-1.355 0-.406.07-.756.21-1.05a2 2 0 01.588-.745c.252-.196.557-.343.914-.441a4.52 4.52 0 011.197-.147h2.415V57h-1.334v-2.835zm6.398.556h-2.279V57h-1.27v-5.45h1.27v2.143h2.279V51.55h1.281V57h-1.281v-2.279zm6.098-2.141h-1.617a19.469 19.469 0 01-.179 2.089c-.084.539-.217.973-.399 1.302h2.195V52.58zm.976 4.42h-3.79l-.084 1.554h-1.124v-2.583h.494a1.44 1.44 0 00.367-.577c.098-.245.175-.55.231-.914.063-.364.109-.787.137-1.27.028-.483.056-1.037.084-1.66h3.99v4.421h.903v2.583h-1.113L151.814 57zm4.362-4.568c-.364 0-.665.105-.903.316-.231.21-.385.525-.462.945h2.51c.014-.42-.084-.735-.294-.945-.203-.21-.487-.316-.851-.316zm2.268 4.148a2.836 2.836 0 01-.609.305 3.987 3.987 0 01-.588.146 3.873 3.873 0 01-.798.074c-1.001 0-1.75-.248-2.247-.745-.49-.498-.735-1.194-.735-2.09 0-.441.067-.837.2-1.187.133-.35.318-.643.556-.881.238-.245.522-.431.851-.557.336-.133.703-.2 1.102-.2.406 0 .774.067 1.103.2.329.133.598.332.808.598a2.3 2.3 0 01.452.998c.084.399.084.861 0 1.386h-3.749c.049.476.21.833.483 1.071.28.238.693.357 1.239.357.224 0 .427-.017.609-.053a3.65 3.65 0 00.483-.136 3.46 3.46 0 00.347-.157c.098-.056.168-.102.21-.137l.283 1.008zm2.988-1.774h-.473V57h-1.27v-5.45h1.27v2.237h.504l1.701-2.236h1.323l-2.026 2.614L164.592 57h-1.512l-1.648-2.194zm6.253 2.299c-.434 0-.829-.063-1.186-.189a2.546 2.546 0 01-.914-.546 2.544 2.544 0 01-.588-.892c-.14-.35-.21-.75-.21-1.197 0-.441.07-.837.21-1.187.14-.357.336-.654.588-.892.252-.245.553-.431.903-.557a3.2 3.2 0 011.145-.2c.378 0 .707.042.987.127.287.076.518.178.693.304l-.263.987a3.09 3.09 0 00-.598-.263 2.313 2.313 0 00-.788-.115c-.483 0-.864.15-1.144.452-.28.294-.42.742-.42 1.344 0 .58.143 1.022.43 1.322.287.301.686.452 1.197.452.287 0 .532-.035.735-.105a3.32 3.32 0 00.578-.263l.262.988c-.182.119-.402.22-.661.304a3.133 3.133 0 01-.956.126zm5.102-4.673c-.364 0-.665.105-.903.316-.231.21-.385.525-.462.945h2.51c.014-.42-.084-.735-.294-.945-.203-.21-.487-.316-.851-.316zm2.268 4.148a2.836 2.836 0 01-.609.305 3.987 3.987 0 01-.588.146 3.873 3.873 0 01-.798.074c-1.001 0-1.75-.248-2.247-.745-.49-.498-.735-1.194-.735-2.09 0-.441.067-.837.2-1.187.133-.35.318-.643.556-.881.238-.245.522-.431.851-.557.336-.133.703-.2 1.102-.2.406 0 .774.067 1.103.2.329.133.598.332.808.598a2.3 2.3 0 01.452.998c.084.399.084.861 0 1.386h-3.749c.049.476.21.833.483 1.071.28.238.693.357 1.239.357.224 0 .427-.017.609-.053a3.65 3.65 0 00.483-.136 3.46 3.46 0 00.347-.157c.098-.056.168-.102.21-.137l.283 1.008z" fill="#656565"/><path d="M48.393 34.71c-.924 0-1.722-.084-2.394-.252-.672-.182-1.211-.406-1.617-.672l.567-2.205c.364.238.833.469 1.407.693.574.21 1.232.315 1.974.315 1.008 0 1.778-.273 2.31-.82.546-.545.819-1.252.819-2.12 0-.854-.21-1.512-.63-1.974-.42-.462-1.05-.693-1.89-.693-.574 0-1.043.084-1.407.252-.35.168-.616.364-.798.588h-1.953v-8.358h8.61v2.205H47.07v3.927c.266-.196.595-.364.987-.504.406-.14.903-.21 1.491-.21.686 0 1.309.105 1.869.315a3.79 3.79 0 011.449.924c.406.392.721.875.945 1.449.224.574.336 1.232.336 1.974 0 .77-.133 1.47-.399 2.1a4.651 4.651 0 01-1.155 1.638c-.504.448-1.113.798-1.827 1.05-.7.252-1.491.378-2.373.378zm7.742 2.037a5.94 5.94 0 00.735-1.092c.224-.42.385-.826.483-1.218-.392-.112-.686-.308-.882-.588a1.576 1.576 0 01-.294-.924c0-.462.154-.847.462-1.155.322-.308.728-.462 1.218-.462.518 0 .931.16 1.239.483.322.308.483.77.483 1.386 0 .364-.056.728-.168 1.092a6.092 6.092 0 01-.42 1.029 6.03 6.03 0 01-.567.924 4.818 4.818 0 01-.588.735l-1.701-.21zm10.098-2.037a4.806 4.806 0 01-2.059-.441c-.63-.294-1.176-.756-1.638-1.386-.447-.63-.805-1.428-1.07-2.394-.252-.98-.379-2.156-.379-3.528 0-1.358.127-2.52.378-3.486.266-.98.623-1.778 1.071-2.394.462-.63 1.008-1.092 1.638-1.386a4.806 4.806 0 012.058-.441c.743 0 1.421.147 2.037.44.63.295 1.17.75 1.617 1.366.463.616.82 1.407 1.072 2.373.252.966.377 2.128.377 3.486s-.125 2.527-.377 3.507-.61 1.792-1.072 2.436c-.447.63-.986 1.099-1.617 1.407a4.668 4.668 0 01-2.037.44zm-.022-2.121c.407 0 .764-.091 1.072-.273.308-.196.56-.511.755-.945.21-.434.365-1.008.463-1.722.111-.728.167-1.617.167-2.667 0-1.05-.056-1.932-.168-2.646-.097-.714-.251-1.288-.462-1.722-.195-.448-.447-.763-.755-.945-.294-.196-.645-.294-1.05-.294-.407 0-.77.098-1.093.294-.308.182-.567.497-.776.945-.21.434-.372 1.008-.484 1.722-.098.714-.147 1.596-.147 2.646 0 1.05.05 1.939.148 2.667.111.714.272 1.288.483 1.722.21.434.468.749.776.945.308.182.665.273 1.072.273z" fill="#040404"/><path d="M98.54 16.413a.483.483 0 01.92 0l2.126 6.545c.064.2.25.334.459.334h6.881c.468 0 .663.598.284.873l-5.567 4.045a.483.483 0 00-.175.54l2.126 6.545a.483.483 0 01-.743.54l-5.567-4.045a.483.483 0 00-.568 0l-5.567 4.045a.483.483 0 01-.743-.54l2.126-6.545a.483.483 0 00-.175-.54l-5.567-4.045a.483.483 0 01.283-.873h6.882c.21 0 .395-.135.46-.334l2.126-6.544zm24.001 0a.483.483 0 01.918 0l2.127 6.545c.064.2.25.334.459.334h6.881c.468 0 .663.598.284.873l-5.567 4.045a.483.483 0 00-.175.54l2.126 6.545a.483.483 0 01-.743.54l-5.567-4.045a.483.483 0 00-.568 0l-5.567 4.045a.483.483 0 01-.743-.54l2.126-6.545a.483.483 0 00-.175-.54l-5.567-4.045a.483.483 0 01.284-.873h6.881a.482.482 0 00.459-.334l2.127-6.544zm24 0a.483.483 0 01.918 0l2.127 6.545c.064.2.25.334.459.334h6.881c.468 0 .663.598.284.873l-5.567 4.045a.483.483 0 00-.175.54l2.126 6.545a.483.483 0 01-.743.54l-5.567-4.045a.483.483 0 00-.568 0l-5.567 4.045a.483.483 0 01-.743-.54l2.126-6.545a.483.483 0 00-.175-.54l-5.567-4.045a.483.483 0 01.284-.873h6.881a.482.482 0 00.459-.334l2.127-6.544zm24 0a.483.483 0 01.918 0l2.127 6.545c.064.2.25.334.459.334h6.881c.468 0 .663.598.284.873l-5.567 4.045a.483.483 0 00-.175.54l2.126 6.545a.483.483 0 01-.743.54l-5.567-4.045a.483.483 0 00-.568 0l-5.567 4.045a.483.483 0 01-.743-.54l2.126-6.545a.483.483 0 00-.175-.54l-5.567-4.045a.483.483 0 01.284-.873h6.881a.482.482 0 00.459-.334l2.127-6.544zm24 0a.483.483 0 01.918 0l2.127 6.545c.064.2.25.334.459.334h6.881c.468 0 .663.598.284.873l-5.567 4.045a.483.483 0 00-.175.54l2.126 6.545a.483.483 0 01-.743.54l-5.567-4.045a.483.483 0 00-.568 0l-5.567 4.045a.483.483 0 01-.743-.54l2.126-6.545a.483.483 0 00-.175-.54l-5.567-4.045a.483.483 0 01.284-.873h6.881a.482.482 0 00.459-.334l2.127-6.544z" fill="#FC0"/><g clip-path="url(#clip0_350_12)"><path d="M27 38.975c6.614 0 11.976-5.361 11.976-11.975S33.614 15.024 27 15.024c-6.614 0-11.976 5.362-11.976 11.976 0 6.614 5.362 11.975 11.976 11.975z" fill="#FC3F1D"/><path d="M31.333 34.518h-2.629V21.515h-1.17c-2.147 0-3.272 1.074-3.272 2.676 0 1.818.776 2.66 2.38 3.733l1.322.892-3.8 5.7h-2.826l3.42-5.09c-1.967-1.404-3.074-2.775-3.074-5.088 0-2.891 2.016-4.858 5.831-4.858h3.8v15.033h.018v.005z" fill="#fff"/></g><defs><clipPath id="clip0_350_12"><path fill="#fff" transform="translate(15 15)" d="M0 0h24v24H0z"/></clipPath></defs></svg>