<svg width="24" height="24" fill="none" xmlns="http://www.w3.org/2000/svg"><g clip-path="url(#clip0_350_7)"><path d="M12 23.976c6.614 0 11.976-5.362 11.976-11.976C23.976 5.386 18.614.024 12 .024 5.386.024.024 5.386.024 12c0 6.614 5.362 11.976 11.976 11.976z" fill="#FC3F1D"/><path d="M16.333 19.518h-2.629V6.516h-1.17c-2.147 0-3.272 1.073-3.272 2.675 0 1.818.776 2.66 2.38 3.733l1.322.892-3.8 5.7H6.338l3.42-5.09c-1.967-1.404-3.074-2.775-3.074-5.088 0-2.891 2.016-4.858 5.831-4.858h3.8v15.033h.018v.005z" fill="#fff"/></g><defs><clipPath id="clip0_350_7"><path fill="#fff" d="M0 0h24v24H0z"/></clipPath></defs></svg>